<?xml version="1.0" standalone="no"?>
<!DOCTYPE svg PUBLIC "-//W3C//DTD SVG 1.1//EN" "http://www.w3.org/Graphics/SVG/1.1/DTD/svg11.dtd" >
<svg xmlns="http://www.w3.org/2000/svg" xmlns:xlink="http://www.w3.org/1999/xlink" version="1.1">
<metadata></metadata>
<defs>
<font id="old_standard_ttregular" horiz-adv-x="0" >
<font-face units-per-em="1000" ascent="762" descent="-238" />
<missing-glyph horiz-adv-x="280" />
<glyph unicode="fi" horiz-adv-x="530" d="M28 0v24h52q22 0 22 22v382h-74v28h74v36q0 109 63.5 168.5t142.5 59.5q66 0 100 -32t34 -75q0 -30 -15.5 -46.5t-39.5 -16.5q-21 0 -34 11.5t-13 32.5q0 20 13 35q11 11 11 24q0 21 -18.5 32t-47.5 11q-44 0 -84 -43.5t-40 -132.5v-64h260v-410q0 -22 22 -22h42v-24 h-200v24h42q22 0 22 22v360q0 22 -22 22h-166v-382q0 -22 22 -22h42v-24h-210z" />
<glyph unicode="fl" horiz-adv-x="530" d="M28 0v24h52q22 0 22 22v382h-74v28h74v36q0 109 63.5 168.5t142.5 59.5q27 0 55 -8h71v-666q0 -22 22 -22h52v-24h-210v24h42q22 0 22 22v382h-188v-382q0 -22 22 -22h42v-24h-210zM174 456h188v101q-10 1 -16 12.5t-6 26.5q0 19 16 37q8 8 8 23q0 40 -66 40 q-44 0 -84 -43.5t-40 -132.5v-64z" />
<glyph unicode="IJ" horiz-adv-x="880" d="M848 712v-32h-72q-27 0 -27 -27v-459q0 -98 -57 -155t-138 -57q-74 0 -122 39t-48 106q0 43 23 67t54 24q29 0 45 -16t16 -41q0 -20 -14 -34.5t-34 -14.5q-16 0 -23 -7t-7 -23q0 -31 32 -49.5t78 -18.5q49 0 76 38t27 91v510q0 27 -27 27h-72v32h290zM62 0v32h72 q27 0 27 27v594q0 27 -27 27h-72v32h290v-32h-72q-27 0 -27 -27v-594q0 -27 27 -27h72v-32h-290z" />
<glyph unicode="ij" horiz-adv-x="536" d="M392 580q-22 0 -37 15t-15 37t15 37t37 15t37 -15t15 -37t-15 -37t-37 -15zM268 432v24h166v-499q0 -98 -46 -146.5t-107 -48.5q-43 0 -73 26.5t-30 75.5q0 26 12.5 41t34.5 15q18 0 29.5 -11.5t11.5 -30.5q0 -24 -18 -36q-16 -9 -16 -24q0 -32 51 -32q79 0 79 143v481 q0 22 -22 22h-72zM132 580q-22 0 -37 15t-15 37t15 37t37 15t37 -15t15 -37t-15 -37t-37 -15zM38 0v24h42q22 0 22 22v364q0 22 -22 22h-42v24h136v-410q0 -22 22 -22h42v-24h-200z" />
<glyph unicode="ffj" horiz-adv-x="766" d="M28 0v24h52q22 0 22 22v382h-74v28h74v36q0 109 63.5 168.5t142.5 59.5q80 0 113 -65q61 65 147 65q66 0 100 -32t34 -75q0 -30 -15.5 -46.5t-39.5 -16.5q-21 0 -34 11.5t-13 32.5q0 20 13 35q11 11 11 24q0 21 -18.5 32t-47.5 11q-44 0 -84 -43.5t-40 -132.5v-64h260 v-499q0 -98 -46 -146.5t-107 -48.5q-43 0 -73 26.5t-30 75.5q0 26 12.5 41t34.5 15q18 0 29.5 -11.5t11.5 -30.5q0 -24 -18 -36q-16 -9 -16 -24q0 -32 51 -32q79 0 79 143v477q0 22 -22 22h-166v-382q0 -22 22 -22h42v-24h-210v24h52q22 0 22 22v382h-188v-382q0 -22 22 -22 h42v-24h-210zM174 456h188v36q0 37 6 59q-39 4 -39 39q0 26 16 39q17 17 17 26q0 18 -18 29.5t-46 11.5q-44 0 -84 -43.5t-40 -132.5v-64z" />
<glyph unicode="fj" horiz-adv-x="506" d="M28 0v24h52q22 0 22 22v382h-74v28h74v36q0 109 63.5 168.5t142.5 59.5q66 0 100 -32t34 -75q0 -30 -15.5 -46.5t-39.5 -16.5q-21 0 -34 11.5t-13 32.5q0 20 13 35q11 11 11 24q0 21 -18.5 32t-47.5 11q-44 0 -84 -43.5t-40 -132.5v-64h260v-499q0 -98 -46 -146.5 t-107 -48.5q-43 0 -73 26.5t-30 75.5q0 26 12.5 41t34.5 15q18 0 29.5 -11.5t11.5 -30.5q0 -24 -18 -36q-16 -9 -16 -24q0 -32 51 -32q79 0 79 143v477q0 22 -22 22h-166v-382q0 -22 22 -22h42v-24h-210z" />
<glyph unicode="ff" horiz-adv-x="562" d="M28 0v24h52q22 0 22 22v382h-74v28h74v65q0 97 54.5 148t117.5 51q41 0 70.5 -24t34.5 -68h2q21 46 57 69t77 23q43 0 73 -26.5t30 -75.5q0 -26 -12.5 -41t-34.5 -15q-18 0 -29.5 11.5t-11.5 30.5q0 24 18 36q16 9 16 24q0 32 -51 32q-79 0 -79 -143v-97h94v-28h-94v-382 q0 -22 22 -22h72v-24h-230v24h42q22 0 22 22v382h-188v-382q0 -22 22 -22h42v-24h-210zM174 456h188v119h-2q-11 -13 -28 -13q-18 0 -29.5 11.5t-11.5 30.5q0 24 18 36q16 9 16 24q0 32 -51 32q-37 0 -68.5 -33t-31.5 -110v-97z" />
<glyph unicode="ffi" horiz-adv-x="790" d="M28 0v24h52q22 0 22 22v382h-74v28h74v36q0 109 63.5 168.5t142.5 59.5q80 0 113 -65q61 65 147 65q66 0 100 -32t34 -75q0 -30 -15.5 -46.5t-39.5 -16.5q-21 0 -34 11.5t-13 32.5q0 20 13 35q11 11 11 24q0 21 -18.5 32t-47.5 11q-44 0 -84 -43.5t-40 -132.5v-64h260 v-410q0 -22 22 -22h42v-24h-200v24h42q22 0 22 22v360q0 22 -22 22h-166v-382q0 -22 22 -22h42v-24h-210v24h52q22 0 22 22v382h-188v-382q0 -22 22 -22h42v-24h-210zM174 456h188v36q0 37 6 59q-39 4 -39 39q0 26 16 39q17 17 17 26q0 18 -18 29.5t-46 11.5 q-44 0 -84 -43.5t-40 -132.5v-64z" />
<glyph unicode="ffl" horiz-adv-x="790" d="M28 0v24h52q22 0 22 22v382h-74v28h74v36q0 109 63.5 168.5t142.5 59.5q80 0 113 -65q61 65 147 65q27 0 55 -8h71v-666q0 -22 22 -22h52v-24h-210v24h42q22 0 22 22v382h-188v-382q0 -22 22 -22h42v-24h-210v24h52q22 0 22 22v382h-188v-382q0 -22 22 -22h42v-24h-210z M174 456h188v36q0 37 6 59q-39 4 -39 39q0 26 16 39q17 17 17 26q0 18 -18 29.5t-46 11.5q-44 0 -84 -43.5t-40 -132.5v-64zM434 456h188v101q-10 1 -16 12.5t-6 26.5q0 19 16 37q8 8 8 23q0 40 -66 40q-44 0 -84 -43.5t-40 -132.5v-64z" />
<glyph unicode=" "  horiz-adv-x="280" />
<glyph unicode="&#x09;" horiz-adv-x="280" />
<glyph unicode="&#xa0;" horiz-adv-x="280" />
<glyph unicode="!" horiz-adv-x="280" d="M152 156h-24l-16 200q-3 39 -18.5 128t-15.5 138q0 33 17 52.5t45 19.5t45 -19.5t17 -52.5q0 -49 -15.5 -138t-18.5 -128zM140 -12q-27 0 -44.5 17.5t-17.5 44.5t17.5 44.5t44.5 17.5t44.5 -17.5t17.5 -44.5t-17.5 -44.5t-44.5 -17.5z" />
<glyph unicode="&#x22;" horiz-adv-x="394" d="M120 730q34 0 34 -46q0 -4 -2 -18l-20 -146h-24l-20 146q-2 14 -2 18q0 46 34 46zM274 730q34 0 34 -46q0 -4 -2 -18l-20 -146h-24l-20 146q-2 14 -2 18q0 46 34 46z" />
<glyph unicode="#" horiz-adv-x="684" d="M280 684h44l-30 -194h146l30 194h44l-30 -194h126v-40h-131l-34 -214h162v-40h-170l-30 -196h-44l30 196h-145l-31 -196h-44l31 196h-123v40h128l36 214h-164v40h170zM289 450l-36 -214h148l34 214h-146z" />
<glyph unicode="$" horiz-adv-x="580" d="M292 -16q-22 0 -32 1v-69h-32v73q-78 14 -122 59.5t-44 116.5q0 35 24 59q18 18 44 18q16 0 30 -12q12 -12 12 -32q0 -17 -7 -29.5t-29 -36.5q-12 -12 -12 -33q0 -26 27 -47.5t77 -30.5v312l-6 2q-136 54 -136 183q0 63 36.5 111t105.5 64v65h32v-60q20 2 32 2 q16 0 24 -1v59h32v-63q73 -13 113.5 -58t40.5 -101q0 -45 -14 -68q-16 -26 -47 -26q-19 0 -33 14q-9 11 -9 25q0 19 12 37q6 8 16.5 17.5t13.5 14.5q8 12 8 31q0 23 -25.5 47.5t-75.5 34.5v-284l20 -8q63 -25 97.5 -74.5t34.5 -109.5q0 -72 -39.5 -126.5t-112.5 -70.5v-74 h-32v69q-8 -1 -24 -1zM260 320v-303q10 -1 32 -1q16 0 24 1v281zM260 414l56 -22v275q-8 1 -24 1q-12 0 -32 -2v-252zM134 540q0 -43 18.5 -67t69.5 -44l6 -2v233q-48 -14 -71 -47.5t-23 -72.5zM456 155q0 52 -21 77.5t-67 44.5l-20 8v-262q52 14 80 51.5t28 80.5z" />
<glyph unicode="%" horiz-adv-x="860" d="M624 702h36l-426 -720h-36zM628 4q30 0 47 24t21 55t4 79t-4 79.5t-21 56t-47 24.5q-23 0 -38 -12.5t-21.5 -37.5t-8.5 -49.5t-2 -60.5t2 -60t8.5 -48.5t21.5 -37t38 -12.5zM628 -16q-58 0 -96 50.5t-38 127.5t38 128.5t96 51.5t97 -51.5t39 -128.5t-39 -127.5t-97 -50.5 zM230 362q30 0 47 24t21 55t4 79t-4 79.5t-21 56t-47 24.5q-23 0 -38 -12.5t-21.5 -37.5t-8.5 -49.5t-2 -60.5t2 -60t8.5 -48.5t21.5 -37t38 -12.5zM230 342q-58 0 -96 50.5t-38 127.5t38 128.5t96 51.5t97 -51.5t39 -128.5t-39 -127.5t-97 -50.5z" />
<glyph unicode="&#x26;" horiz-adv-x="786" d="M54 145q0 92 142 201l30 23l-10 15q-52 79 -52 146q0 75 46 124t108 49q58 0 87.5 -36.5t29.5 -86.5q0 -56 -32.5 -98t-91.5 -89l172 -244l4 5q35 43 58 93t23 79q0 18 -11.5 29t-27.5 11h-45v32h248v-32h-31q-18 0 -29 -2.5t-27.5 -15.5t-29.5 -39q-61 -123 -112 -188 q35 -49 59.5 -72t48.5 -23q37 0 59 21t38 55l16 -8q-51 -112 -136 -112q-70 0 -142 81q-92 -81 -197 -81q-91 0 -143 41t-52 122zM150 153q0 -68 35 -104.5t76 -36.5q84 0 164 75l-18 23l-161 231l-10 -8q-86 -69 -86 -180zM228 560q0 -56 53 -125l10 -13q30 23 48 39 t39 51.5t21 73.5q0 35 -23 61t-57 26q-41 0 -66 -31.5t-25 -81.5z" />
<glyph unicode="'" horiz-adv-x="240" d="M120 730q34 0 34 -46q0 -4 -2 -18l-20 -146h-24l-20 146q-2 14 -2 18q0 46 34 46z" />
<glyph unicode="(" horiz-adv-x="370" d="M98 266q0 141 53.5 261.5t142.5 202.5l30 -24q-176 -185 -176 -440t176 -440l-30 -24q-89 82 -142.5 202.5t-53.5 261.5z" />
<glyph unicode=")" horiz-adv-x="370" d="M274 266q0 -141 -53.5 -261.5t-142.5 -202.5l-30 24q176 185 176 440t-176 440l30 24q89 -82 142.5 -202.5t53.5 -261.5z" />
<glyph unicode="*" horiz-adv-x="502" d="M255 700q18 0 28 -12t10 -31q0 -14 -12 -43q-14 -35 -14 -77q0 -15 8 -15q5 0 14 6q35 22 56 49q29 39 56 39q17 0 27 -11.5t10 -25.5q0 -38 -67 -47q-37 -5 -74 -26l-5 -4q-5 -3 -5 -7t5 -7l5 -4q37 -21 74 -26q67 -9 67 -47q0 -14 -10 -25.5t-27 -11.5q-27 0 -56 39 q-21 27 -56 49q-9 6 -14 6q-8 0 -8 -15q0 -42 14 -77q12 -29 12 -43q0 -19 -10 -31t-28 -12t-28 12t-10 31q0 14 12 43q14 35 14 77q0 15 -8 15q-5 0 -14 -6q-35 -22 -56 -49q-29 -39 -56 -39q-17 0 -27 11.5t-10 25.5q0 38 67 47q37 5 74 26l5 4q5 3 5 7t-5 7l-5 4 q-37 21 -74 26q-67 9 -67 47q0 14 10 25.5t27 11.5q27 0 56 -39q21 -27 56 -49q9 -6 14 -6q8 0 8 15q0 42 -14 77q-12 29 -12 43q0 19 10 31t28 12z" />
<glyph unicode="+" horiz-adv-x="940" d="M48 244v40h400v400h44v-400h400v-40h-400v-400h-44v400h-400z" />
<glyph unicode="," horiz-adv-x="280" d="M72 82q0 27 18 42.5t40 15.5q39 0 61 -32q19 -26 19 -71q0 -62 -31 -117.5t-75 -87.5l-14 16q37 28 60.5 68t23.5 80q0 20 -18 30q-6 4 -34 4q-22 0 -36 15.5t-14 36.5z" />
<glyph unicode="-" horiz-adv-x="370" d="M60 280h250v-56h-250v56z" />
<glyph unicode="." horiz-adv-x="280" d="M140 -12q-27 0 -44.5 17.5t-17.5 44.5t17.5 44.5t44.5 17.5t44.5 -17.5t17.5 -44.5t-17.5 -44.5t-44.5 -17.5z" />
<glyph unicode="/" horiz-adv-x="450" d="M96 -198h-40l298 928h40z" />
<glyph unicode="0" horiz-adv-x="580" d="M290 16q35 0 61.5 22.5t40 54t21.5 79.5t10 85t2 84q0 48 -2 85t-10 85t-21.5 79.5t-40 54t-61.5 22.5t-61.5 -22.5t-40 -54t-21.5 -79.5t-10 -85t-2 -85q0 -47 2 -84t10 -85t21.5 -79.5t40 -54t61.5 -22.5zM290 -16q-70 0 -126.5 52.5t-85.5 133.5t-29 172t29 172 t85.5 133.5t126.5 52.5t126.5 -52.5t85.5 -133.5t29 -172t-29 -172t-85.5 -133.5t-126.5 -52.5z" />
<glyph unicode="1" horiz-adv-x="580" d="M120 0v32h96q28 0 28 26v491h-124v36h55q54 0 87.5 29t41.5 70h32v-626q0 -26 28 -26h96v-32h-340z" />
<glyph unicode="2" horiz-adv-x="580" d="M473 0h-390q0 25 3 44.5t12.5 50t35 64t64.5 66.5l96 82q96 81 96 194q0 78 -38 120.5t-108 42.5q-49 0 -88.5 -32.5t-39.5 -72.5q0 -43 41 -50q32 -5 47.5 -21.5t15.5 -39.5q0 -19 -13.5 -32t-37.5 -13q-41 0 -68 32.5t-27 85.5q0 77 56.5 128t141.5 51q98 0 161 -53.5 t63 -145.5q0 -33 -14 -64t-41 -59t-48 -45.5t-53 -40.5l-98 -76q-87 -61 -87 -110q0 -24 31 -24h189q40 0 56.5 17.5t22.5 49.5l11 59h22z" />
<glyph unicode="3" horiz-adv-x="580" d="M271 700q91 0 146.5 -48.5t55.5 -127.5q0 -61 -40 -102.5t-88 -52.5v-8q54 -9 104.5 -57t50.5 -119q0 -91 -70.5 -146t-173.5 -55q-80 0 -132 34.5t-52 100.5q0 36 21 61.5t55 25.5q29 0 45.5 -15.5t16.5 -42.5q0 -21 -12.5 -36.5t-32.5 -15.5q-35 0 -35 -17 q0 -63 126 -63q50 0 82.5 27t44 63t11.5 80q0 80 -34.5 120t-84.5 40q-25 0 -48 -9q-33 -11 -51 -11q-15 0 -26.5 7t-11.5 21q0 28 38 28q17 0 47 -5q20 -3 55 -3q48 0 73.5 43.5t25.5 99.5q0 65 -30 108t-87 43q-59 0 -83.5 -19t-24.5 -43q0 -22 26 -34q36 -15 36 -49 q0 -21 -14 -34.5t-40 -13.5q-29 0 -50.5 24.5t-21.5 54.5q0 70 53.5 108t129.5 38z" />
<glyph unicode="4" horiz-adv-x="580" d="M310 534l-208 -306h208v306zM186 0v32h97q27 0 27 26v134h-254v36l310 457h36v-457h121v-36h-121v-134q0 -26 27 -26h97v-32h-340z" />
<glyph unicode="5" horiz-adv-x="580" d="M268 -16q-83 0 -132.5 42t-49.5 105q0 47 24 72t56 25q27 0 42.5 -16.5t15.5 -41.5q0 -37 -36 -53q-30 -14 -30 -33q0 -68 110 -68q50 0 83 33.5t45 82t12 110.5q0 190 -136 190q-54 0 -93 -39q-23 -23 -23 -55q0 -25 -20 -25q-16 0 -16 25v345l22 17q21 -18 61.5 -30 t75.5 -12q95 0 167 42l12 -14q-36 -47 -88.5 -75.5t-111.5 -28.5q-63 0 -102 20v-191l6 -2q51 59 130 59q105 0 163.5 -62t58.5 -164q0 -111 -72 -184.5t-174 -73.5z" />
<glyph unicode="6" horiz-adv-x="580" d="M298 16q42 0 69.5 32t37 72t9.5 86q0 80 -24 133t-80 53q-53 0 -88.5 -51.5t-35.5 -134.5t26 -136.5t86 -53.5zM298 -16q-98 0 -158 89t-60 241q0 82 21 161t61 131q73 94 171 94q71 0 115 -48q28 -33 28 -79q0 -35 -25 -57q-17 -15 -41 -15q-23 0 -36 18q-8 10 -8 29 q0 15 13 30q9 10 19 17q16 12 16 28q0 18 -20.5 31.5t-62.5 13.5q-81 0 -123 -91q-17 -37 -26 -93t-9 -94v-45l7 -3q18 38 55.5 62.5t72.5 24.5q67 0 113 -33q39 -28 60 -75.5t21 -101.5q0 -87 -55.5 -161t-148.5 -74z" />
<glyph unicode="7" horiz-adv-x="580" d="M104 684h384q0 -52 -15.5 -119t-52.5 -122l-57 -86q-41 -79 -41 -130q0 -43 6 -75l6 -35q8 -40 8 -70q0 -63 -59 -63q-36 0 -57.5 26t-21.5 70q0 31 12.5 70t23.5 60.5t38 68.5t31 54l80 115q51 73 51 128q0 26 -31 26h-207q-40 0 -56.5 -17.5t-22.5 -49.5l-11 -59h-22z " />
<glyph unicode="8" horiz-adv-x="580" d="M289 668q-62 0 -104.5 -35t-42.5 -93q0 -42 20.5 -67t64.5 -43l129 -49q80 43 80 141q0 62 -43 104t-104 42zM281 -16q-92 0 -156.5 52t-64.5 138q0 73 41 114t87 54v4l-11 5q-53 22 -81 65t-28 100q0 79 68 131.5t153 52.5q101 0 156 -51.5t55 -120.5q0 -54 -34.5 -93.5 t-80.5 -60.5v-4l23 -9q118 -48 118 -151q0 -96 -65 -161t-180 -65zM292 16q55 0 92 25.5t50.5 55.5t13.5 59q0 56 -24.5 83t-71.5 46l-135 49q-87 -36 -87 -162q0 -80 48.5 -118t113.5 -38z" />
<glyph unicode="9" horiz-adv-x="580" d="M282 668q-42 0 -69.5 -32t-37 -72t-9.5 -86q0 -80 24 -133t80 -53q53 0 88.5 51.5t35.5 134.5t-26 136.5t-86 53.5zM247 -16q-71 0 -115 48q-28 33 -28 79q0 35 25 57q17 15 41 15q23 0 36 -18q8 -10 8 -29q0 -15 -13 -30q-9 -10 -19 -17q-16 -12 -16 -28 q0 -18 20.5 -31.5t62.5 -13.5q81 0 123 91q17 37 26 93t9 94v45l-7 3q-18 -38 -55.5 -62.5t-72.5 -24.5q-67 0 -113 33q-39 28 -60 75.5t-21 101.5q0 87 55.5 161t148.5 74q98 0 158 -89t60 -241q0 -82 -21 -161t-61 -131q-73 -94 -171 -94z" />
<glyph unicode=":" horiz-adv-x="280" d="M140 -12q-27 0 -44.5 17.5t-17.5 44.5t17.5 44.5t44.5 17.5t44.5 -17.5t17.5 -44.5t-17.5 -44.5t-44.5 -17.5zM140 344q-27 0 -44.5 17.5t-17.5 44.5t17.5 44.5t44.5 17.5t44.5 -17.5t17.5 -44.5t-17.5 -44.5t-44.5 -17.5z" />
<glyph unicode="&#x37e;" horiz-adv-x="280" d="M72 82q0 27 18 42.5t40 15.5q39 0 61 -32q19 -26 19 -71q0 -62 -31 -117.5t-75 -87.5l-14 16q37 28 60.5 68t23.5 80q0 20 -18 30q-6 4 -34 4q-22 0 -36 15.5t-14 36.5zM140 344q-27 0 -44.5 17.5t-17.5 44.5t17.5 44.5t44.5 17.5t44.5 -17.5t17.5 -44.5t-17.5 -44.5 t-44.5 -17.5z" />
<glyph unicode=";" horiz-adv-x="280" d="M72 82q0 27 18 42.5t40 15.5q39 0 61 -32q19 -26 19 -71q0 -62 -31 -117.5t-75 -87.5l-14 16q37 28 60.5 68t23.5 80q0 20 -18 30q-6 4 -34 4q-22 0 -36 15.5t-14 36.5zM140 344q-27 0 -44.5 17.5t-17.5 44.5t17.5 44.5t44.5 17.5t44.5 -17.5t17.5 -44.5t-17.5 -44.5 t-44.5 -17.5z" />
<glyph unicode="&#x3c;" horiz-adv-x="940" d="M840 -156l-756 406v28l756 406l20 -36l-714 -384l714 -384z" />
<glyph unicode="=" horiz-adv-x="940" d="M48 338v40h844v-40h-844zM48 148v40h844v-40h-844z" />
<glyph unicode="&#x3e;" horiz-adv-x="940" d="M100 684l756 -406v-28l-756 -406l-20 36l714 384l-714 384z" />
<glyph unicode="?" horiz-adv-x="470" d="M232 694q82 0 139 -40.5t57 -111.5q0 -31 -12 -59t-37 -53t-44 -40t-54 -39q-89 -61 -89 -119q0 -48 56 -48q26 0 43 18t17 48q0 16 -5 26l18 8q11 -18 11 -35q0 -40 -26.5 -67.5t-57.5 -27.5q-39 0 -64.5 21t-25.5 60q0 30 11.5 51t36.5 48l76 82q29 32 43.5 60t14.5 66 q0 53 -29 87.5t-86 34.5q-46 0 -81.5 -24t-35.5 -54q0 -23 6 -29q5 -4 10 -4q7 0 10 1q7 2 18 2q17 0 26.5 -11.5t9.5 -28.5q0 -21 -14 -34.5t-41 -13.5q-28 0 -48.5 23.5t-20.5 63.5q0 59 52.5 99t115.5 40zM248 -12q-27 0 -44.5 17.5t-17.5 44.5t17.5 44.5t44.5 17.5 t44.5 -17.5t17.5 -44.5t-17.5 -44.5t-44.5 -17.5z" />
<glyph unicode="@" horiz-adv-x="820" d="M318 131q-45 0 -78.5 32t-33.5 92q0 63 17 125t50 101q82 98 176 98q26 0 46.5 -19t24.5 -36h5l11 43h72l-84 -310q-11 -49 -0.5 -75.5t30.5 -26.5q47 0 81 23.5t51 62.5t24.5 77.5t7.5 78.5q0 143 -83.5 224t-223.5 81q-131 0 -223 -105.5t-92 -261.5q0 -151 86 -238 t238 -87q88 0 176 58l16 -23q-87 -63 -202 -63q-168 0 -265 102.5t-97 270.5q0 155 108.5 265t263.5 110q163 0 254.5 -100t91.5 -253q0 -39 -14 -80.5t-40.5 -79.5t-72 -62t-101.5 -24q-38 0 -64.5 20t-30.5 55l-5 1q-17 -26 -49 -51t-71 -25zM322 155q51 0 91.5 53 t60.5 127l23 85q11 42 -3 88.5t-45 46.5q-40 0 -71.5 -27.5t-61.5 -92.5q-18 -39 -30 -98.5t-12 -113.5q0 -31 15 -49.5t33 -18.5z" />
<glyph unicode="A" horiz-adv-x="764" d="M266 246h205l-104 303zM46 0v32h37q58 0 84 73l217 607h25l217 -636q18 -44 60 -44h56v-32h-310v32h66q15 0 25 7.5t10 17.5q0 13 -4 22l-45 131h-231l-23 -65q-14 -40 -14 -60q0 -21 11.5 -37t39.5 -16h53v-32h-274z" />
<glyph unicode="B" horiz-adv-x="690" d="M253 356v-297q0 -27 27 -27h108q140 0 140 162t-140 162h-135zM62 0v32h72q27 0 27 27v594q0 27 -27 27h-72v32h326q92 0 158 -48.5t66 -121.5q0 -68 -46 -112t-107 -57v-4q65 -5 120 -53.5t55 -121.5q0 -91 -68 -142.5t-167 -51.5h-337zM253 388h131q81 0 110.5 41.5 t29.5 112.5q0 60 -38 99t-94 39h-112q-27 0 -27 -27v-265z" />
<glyph unicode="C" horiz-adv-x="670" d="M70 362q0 101 33 184t97 133.5t150 50.5q61 0 124 -46q16 -10 26 -19q16 -14 28 -14q8 0 11.5 4.5t8.5 17.5l17 49h25v-278h-25q-33 122 -92.5 188t-122.5 66q-42 0 -73 -16t-50 -43t-31 -71t-16 -92.5t-4 -113.5t5 -115t18 -95.5t34 -74.5t54.5 -46t78.5 -17q50 0 89 21 t62.5 57t36.5 78t16 89h36q-1 -22 -4.5 -45t-11.5 -50.5t-20 -52.5t-31 -49t-42.5 -41.5t-57 -28t-73.5 -10.5q-70 0 -127.5 33t-93.5 87t-55.5 121t-19.5 139z" />
<glyph unicode="D" horiz-adv-x="780" d="M62 0v32h72q27 0 27 27v594q0 27 -27 27h-72v32h366q127 0 214.5 -98.5t87.5 -251.5q0 -154 -88 -258t-214 -104h-366zM624 362q0 85 -18 153.5t-64.5 116.5t-117.5 48h-144q-27 0 -27 -27v-594q0 -27 27 -27h144q53 0 93.5 29t63 77.5t33 104.5t10.5 119z" />
<glyph unicode="E" horiz-adv-x="690" d="M62 0v32h72q27 0 27 27v594q0 27 -27 27h-72v32h558l4 -226h-25l-1 20q-2 21 -12 55t-28 61q-38 58 -117 58h-161q-27 0 -27 -27v-273h88q27 0 45 12.5t25 35.5t9.5 43t2.5 47h26v-313h-26q0 28 -2 47.5t-9.5 43t-25.5 36t-45 12.5h-88v-285q0 -27 27 -27h160 q27 0 58.5 12.5t51.5 38.5q20 28 34.5 74t18.5 79l4 32h25l-12 -268h-558z" />
<glyph unicode="F" horiz-adv-x="676" d="M68 0v32h66q27 0 27 27v594q0 27 -27 27h-72v32h558l4 -226h-25l-1 20q-2 21 -12 55t-28 61q-38 58 -117 58h-161q-27 0 -27 -27v-273h88q27 0 45 12.5t25 35.5t9.5 43t2.5 47h26v-313h-26q0 28 -2 47.5t-9.5 43t-25.5 36t-45 12.5h-88v-285q0 -27 27 -27h88v-32h-300z " />
<glyph unicode="G" horiz-adv-x="720" d="M350 730q61 0 124 -46q16 -11 26 -19q15 -14 28 -14q8 0 11.5 4.5t8.5 17.5l17 49h25v-278h-25q-33 122 -92.5 188t-122.5 66q-53 0 -88 -24t-53.5 -71.5t-25.5 -106t-7 -140.5t7 -140t25.5 -106t53.5 -72t88 -24q56 0 102 56.5t46 118.5v106q0 27 -27 27h-72v32h291v-32 h-73q-27 0 -27 -27v-308h-32v91q0 34 -17 34t-35 -30q-23 -37 -65 -68.5t-91 -31.5q-85 0 -149 51t-97.5 134.5t-33.5 188.5q0 101 32.5 185.5t97.5 136.5t150 52z" />
<glyph unicode="H" horiz-adv-x="788" d="M62 0v32h72q27 0 27 27v594q0 27 -27 27h-72v32h290v-32h-72q-27 0 -27 -27v-261h302v261q0 27 -27 27h-72v32h290v-32h-72q-27 0 -27 -27v-594q0 -27 27 -27h72v-32h-290v32h72q27 0 27 27v297h-302v-297q0 -27 27 -27h72v-32h-290z" />
<glyph unicode="I" horiz-adv-x="394" d="M62 0v32h72q27 0 27 27v594q0 27 -27 27h-72v32h290v-32h-72q-27 0 -27 -27v-594q0 -27 27 -27h72v-32h-290z" />
<glyph unicode="J" horiz-adv-x="540" d="M508 712v-32h-72q-27 0 -27 -27v-459q0 -98 -57 -155t-138 -57q-74 0 -122 39t-48 106q0 43 23 67t54 24q29 0 45 -16t16 -41q0 -20 -14 -34.5t-34 -14.5q-16 0 -23 -7t-7 -23q0 -31 32 -49.5t78 -18.5q49 0 76 38t27 91v510q0 27 -27 27h-72v32h290z" />
<glyph unicode="K" horiz-adv-x="756" d="M62 0v32h72q27 0 27 27v594q0 27 -27 27h-72v32h285v-32h-67q-27 0 -27 -27v-310l231 236l10.5 14t7.5 12t4.5 14t1.5 19q0 18 -13 30t-32 12h-27v32h264v-32h-40q-33 0 -90 -59l-168 -170l204 -375q13 -25 29 -34.5t46 -9.5h33v-32h-302v32h67q11 0 19 6.5t8 14.5 q0 15 -7 25l-163 306l-83 -84v-241q0 -27 27 -27h67v-32h-285z" />
<glyph unicode="L" horiz-adv-x="670" d="M62 0v32h72q27 0 27 27v594q0 27 -27 27h-72v32h306v-32h-88q-27 0 -27 -27v-594q0 -27 27 -27h140q26 0 58 13t52 39q20 28 34.5 74t18.5 78l4 33h25l-13 -269h-537z" />
<glyph unicode="M" horiz-adv-x="838" d="M62 0v32h36q28 0 45.5 21.5t17.5 58.5v541q0 27 -27 27h-72v32h212l163 -551l152 551h207v-32h-72q-27 0 -27 -27v-594q0 -27 27 -27h72v-32h-290v32h72q27 0 27 27v590l-183 -661h-24l-191 634h-6v-510q0 -37 17.5 -58.5t45.5 -21.5h36v-32h-238z" />
<glyph unicode="N" horiz-adv-x="770" d="M62 0v32h36q29 0 46 21.5t17 58.5v541q-1 27 -27 27h-72v32h189l347 -558v446q0 37 -17 58.5t-45 21.5h-36v32h238v-32h-36q-28 0 -46 -21.5t-18 -58.5v-618h-40l-393 621h-4v-491q0 -37 17.5 -58.5t45.5 -21.5h36v-32h-238z" />
<glyph unicode="O" horiz-adv-x="700" d="M360 -18q-84 0 -151.5 54.5t-103 139.5t-35.5 180t35.5 180t103 139.5t151.5 54.5t151.5 -54.5t103 -139.5t35.5 -180t-35.5 -180t-103 -139.5t-151.5 -54.5zM360 14q184 0 184 342t-184 342t-184 -342t184 -342z" />
<glyph unicode="P" horiz-adv-x="680" d="M62 0v32h72q27 0 27 27v594q0 27 -27 27h-72v32h334q106 0 173 -51.5t67 -134.5t-67 -136.5t-173 -53.5h-143v-277q0 -27 27 -27h88v-32h-306zM253 368h156q54 0 87.5 46.5t33.5 111.5t-33 109.5t-88 44.5h-129q-27 0 -27 -27v-285z" />
<glyph unicode="Q" horiz-adv-x="700" d="M360 -18q-84 0 -151.5 54.5t-103 139.5t-35.5 180t35.5 180t103 139.5t151.5 54.5t152.5 -54.5t103 -141.5t34.5 -178q0 -107 -44.5 -199t-122.5 -140l8 -54q5 -34 23 -48q19 -15 44 -15q73 0 73 150h19q0 -218 -123 -218q-48 0 -79.5 33.5t-31.5 86.5v38q-29 -8 -56 -8z M360 14q32 0 56 10v28q0 39 -15.5 63t-46.5 24q-24 0 -40.5 -21t-16.5 -46q0 -31 11.5 -44.5t51.5 -13.5zM355 171q89 0 118 -108q71 80 71 293q0 342 -184 342t-184 -342q0 -233 87 -309q-3 11 -3 28q0 38 28 67t67 29z" />
<glyph unicode="R" horiz-adv-x="716" d="M253 400h97q155 0 155 152q0 61 -32.5 94.5t-88.5 33.5h-104q-27 0 -27 -27v-253zM62 0v32h72q27 0 27 27v594q0 27 -27 27h-72v32h328q105 0 163 -41.5t58 -118.5q0 -74 -55.5 -119t-133.5 -53v-4q57 -11 93.5 -52.5t48.5 -141.5q10 -82 19 -106t33 -24q43 0 43 108h25 q0 -172 -104 -172q-66 0 -91 47q-27 52 -29 177q-1 67 -24 111.5t-74 44.5h-109v-309q0 -27 27 -27h89v-32h-307z" />
<glyph unicode="S" horiz-adv-x="620" d="M88 306h24q10 -113 82 -202.5t157 -89.5q82 0 119.5 40t37.5 96q0 49 -28.5 77t-83.5 50l-152 61q-154 61 -154 204q0 96 56 142t140 46q40 0 78 -18.5t68 -41.5q24 -18 38 -18q17 0 20 24l4 36h24l10 -260h-24q-24 108 -88 177t-138 69q-56 0 -92 -36.5t-36 -101.5 q0 -45 23 -70t68 -43l193 -77q67 -27 100.5 -77t33.5 -105q0 -83 -55 -144.5t-162 -61.5q-37 0 -77.5 17t-51.5 25t-36 25.5t-30 20.5t-9 3q-8 0 -15.5 -10.5t-9.5 -32.5l-4 -40h-23z" />
<glyph unicode="T" horiz-adv-x="714" d="M72 444l8 268h574l8 -268h-25q0 11 -2 35t-15 72.5t-35 76.5q-41 52 -99 52h-46q-27 0 -27 -27v-594q0 -27 27 -27h96v-32h-338v32h96q27 0 27 27v594q0 27 -27 27h-46q-60 0 -99 -52q-22 -28 -35 -76.5t-15 -72.5t-2 -35h-25z" />
<glyph unicode="U" horiz-adv-x="804" d="M424 -18q-69 0 -121 21.5t-82 58t-45 81t-15 94.5v416q0 27 -27 27h-72v32h291v-32h-73q-27 0 -27 -27v-443q0 -93 45 -144.5t126 -51.5q94 0 146.5 53.5t52.5 130.5v401q0 37 -18 59t-46 22h-35v32h238v-32h-35q-28 0 -46 -22t-18 -59v-391q0 -97 -64.5 -161.5 t-174.5 -64.5z" />
<glyph unicode="V" horiz-adv-x="772" d="M399 -18l-233 654q-9 25 -23 34.5t-36 9.5h-63v32h320v-32h-66q-14 0 -24 -7.5t-10 -17.5q0 -11 4 -22l171 -481l132 406q12 37 12 70q0 21 -12.5 36.5t-38.5 15.5h-54v32h270v-32h-37q-60 0 -84 -73l-203 -625h-25z" />
<glyph unicode="W" horiz-adv-x="1068" d="M349 -18l-190 654q-16 44 -59 44h-62v32h296v-32h-48q-14 0 -24 -7.5t-10 -17.5q0 -8 4 -22l133 -460l121 438l-10 32q-13 37 -71 37h-29v32h296v-32h-39q-51 0 -51 -52q0 -14 6 -31l126 -433l125 394q11 43 11 72q0 20 -18 35t-48 15h-34v32h270v-32h-43q-58 0 -81 -73 l-199 -625h-25l-164 556l-158 -556h-25z" />
<glyph unicode="X" horiz-adv-x="750" d="M46 0v32h31q29 0 48.5 10t28.5 24.5t22 32.5l169 253l-149 276q-15 28 -30.5 40t-48.5 12h-61v32h310v-32h-60q-18 0 -18 -15q0 -13 8 -26l108 -200l95 142q20 30 20 57q0 17 -13.5 29.5t-35.5 12.5h-31v32h270v-32h-45q-56 0 -88 -49l-153 -230l177 -325q25 -44 62 -44 h62v-32h-310v32h60q27 0 27 21q0 11 -7 25l-128 236l-115 -175q-25 -38 -25 -63q0 -18 9 -31t27 -13h54v-32h-270z" />
<glyph unicode="Y" horiz-adv-x="728" d="M224 0v32h96q27 0 27 27v259l-194 318q-15 26 -27 35t-32 9h-52v32h310v-32h-56q-15 0 -25 -7t-10 -18q0 -15 5 -22l154 -267l102 196q5 7 11 28t6 33q0 24 -13.5 40.5t-41.5 16.5h-30v32h248v-32h-29q-24 0 -43 -13.5t-27 -25t-21 -34.5l-143 -272v-276q0 -27 27 -27h96 v-32h-338z" />
<glyph unicode="Z" horiz-adv-x="652" d="M68 0v32l414 648h-188q-59 0 -109 -58q-33 -39 -52.5 -96.5t-19.5 -69.5h-25l36 256h464v-32l-410 -648h221q55 0 103 56q25 29 44.5 77.5t27.5 82.5l7 34h25l-24 -282h-514z" />
<glyph unicode="[" horiz-adv-x="380" d="M120 -186v904l186 12l4 -26l-96 -16q-22 -4 -22 -32v-780q0 -28 22 -32l96 -16l-4 -26z" />
<glyph unicode="\" horiz-adv-x="450" d="M394 -198h-40l-298 928h40z" />
<glyph unicode="]" horiz-adv-x="380" d="M260 -186l-186 -12l-4 26l96 16q22 4 22 32v780q0 28 -22 32l-96 16l4 26l186 -12v-904z" />
<glyph unicode="^" horiz-adv-x="580" d="M62 336l230 364l226 -364h-48l-178 286l-182 -286h-48z" />
<glyph unicode="_" horiz-adv-x="520" d="M0 -158v40h520v-40h-520z" />
<glyph unicode="&#x2cb;" horiz-adv-x="440" d="M104 684q26 0 49 -32l92 -133l-13 -11l-128 101q-28 21 -28 44q0 31 28 31z" />
<glyph unicode="`" horiz-adv-x="440" d="M104 684q26 0 49 -32l92 -133l-13 -11l-128 101q-28 21 -28 44q0 31 28 31z" />
<glyph unicode="a" horiz-adv-x="500" d="M130 103q0 -79 62 -79q24 0 43.5 11.5t34 34t22 39t16.5 41.5v95l-87 -19q-48 -10 -69.5 -39.5t-21.5 -83.5zM46 106q0 31 12 55.5t27.5 38.5t42.5 25t43.5 15t44.5 9l92 17v85q0 93 -93 93q-34 0 -62 -17.5t-28 -39.5q0 -10 3 -15q4 -8 15 -10q37 -10 37 -39 q0 -39 -44 -39q-22 0 -40 17t-18 49q0 55 43 86.5t97 31.5q66 0 114 -34.5t48 -107.5v-246q0 -50 31 -50q47 0 47 100h18q0 -142 -80 -142q-85 0 -88 96l-5 2q-15 -35 -48.5 -66.5t-78.5 -31.5q-53 0 -91.5 26t-38.5 92z" />
<glyph unicode="b" horiz-adv-x="512" d="M290 12q48 0 67 56.5t19 159.5t-19 159.5t-67 56.5q-47 0 -84.5 -56.5t-37.5 -125.5v-93q0 -61 33.5 -109t88.5 -48zM96 0v666q0 22 -22 22h-52v24h146v-320l6 -2q20 33 52.5 55.5t65.5 22.5q79 0 125.5 -69t46.5 -171t-48.5 -171t-127.5 -69q-87 0 -142 96l-4 -2 l-28 -82h-18z" />
<glyph unicode="c" horiz-adv-x="436" d="M244 -12q-87 0 -141.5 69.5t-54.5 170.5t55 170.5t141 69.5q68 0 109 -40.5t41 -90.5q0 -31 -16 -48.5t-39 -17.5q-20 0 -33.5 13t-13.5 31q0 35 34 46q16 5 16 18q0 20 -25 42.5t-73 22.5q-63 0 -85.5 -54t-22.5 -162t22 -162t86 -54q61 0 94 43t40 101h24 q-4 -65 -45 -116.5t-113 -51.5z" />
<glyph unicode="d" horiz-adv-x="522" d="M222 12q55 0 88.5 48t33.5 109v93q0 69 -37.5 125.5t-84.5 56.5q-48 0 -67 -56.5t-19 -159.5t19 -159.5t67 -56.5zM344 0v42l-5 3q-49 -57 -115 -57q-79 0 -127.5 69t-48.5 171t46.5 171t125.5 69q33 0 65.5 -22.5t52.5 -55.5l6 2v274q0 22 -22 22h-72v24h166v-666 q0 -22 22 -22h52v-24h-146z" />
<glyph unicode="e" horiz-adv-x="460" d="M136 252h190q0 36 -5 68t-15 61t-29 46t-45 17t-45 -17t-30 -46t-16 -61.5t-5 -67.5zM48 228q0 62 23 116t66.5 89t98.5 35q36 0 66 -15t50 -40t34 -57t20 -65t6 -67h-276q0 -49 5 -85.5t17 -66t35 -45t57 -15.5q20 0 38.5 6t38 21t33 45t18.5 72h24q-6 -74 -45 -121 t-109 -47q-90 0 -145 67t-55 173z" />
<glyph unicode="f" horiz-adv-x="330" d="M28 0v24h52q22 0 22 22v382h-74v28h74v69q0 98 46 146.5t107 48.5q43 0 73 -26.5t30 -75.5q0 -26 -12.5 -41t-34.5 -15q-18 0 -29.5 11.5t-11.5 30.5q0 24 18 36q16 9 16 24q0 32 -51 32q-79 0 -79 -143v-97h94v-28h-94v-382q0 -22 22 -22h72v-24h-240z" />
<glyph unicode="g" horiz-adv-x="540" d="M52 -122q0 37 29 65t69 34v3q-88 19 -88 74q0 41 31.5 64.5t77.5 31.5v3q-101 43 -101 151q0 76 52.5 120t125.5 44q42 0 82.5 -19t50.5 -33q9 26 29 39t40 13q34 0 56 -20t22 -52q0 -24 -11.5 -39t-30.5 -15q-16 0 -28 8.5t-12 27.5q0 22 17 32q11 7 11 18q0 16 -27 16 q-18 0 -32.5 -14.5t-16.5 -33.5q28 -39 28 -92q0 -75 -51.5 -119.5t-126.5 -44.5q-57 0 -101.5 -15.5t-44.5 -51.5q0 -33 64 -33q21 0 34 1q12 1 31 1h103q64 0 107 -34.5t43 -101.5q0 -70 -59.5 -107t-156.5 -37q-88 0 -152 28t-64 88zM150 304q0 -66 26 -103t72 -37t72 37 t26 103t-26 103t-72 37t-72 -37t-26 -103zM96 -120q0 -47 53 -70.5t119 -23.5q45 0 82.5 8.5t67.5 35t30 68.5q0 31 -18.5 53.5t-64.5 22.5h-111q-40 0 -73 -7.5t-59 -29.5t-26 -57z" />
<glyph unicode="h" horiz-adv-x="544" d="M28 0v24h56q22 0 22 22v620q0 22 -22 22h-56v24h150v-348l4 -1q26 50 62.5 77.5t76.5 27.5q50 0 81 -26q46 -37 46 -123v-273q0 -22 22 -22h42v-24h-200v24h42q22 0 22 22v293q0 105 -64 105q-45 0 -89.5 -57.5t-44.5 -132.5v-208q0 -22 22 -22h42v-24h-214z" />
<glyph unicode="i" horiz-adv-x="270" d="M132 580q-22 0 -37 15t-15 37t15 37t37 15t37 -15t15 -37t-15 -37t-37 -15zM38 0v24h42q22 0 22 22v364q0 22 -22 22h-42v24h136v-410q0 -22 22 -22h42v-24h-200z" />
<glyph unicode="j" horiz-adv-x="320" d="M176 580q-22 0 -37 15t-15 37t15 37t37 15t37 -15t15 -37t-15 -37t-37 -15zM52 432v24h166v-499q0 -98 -46 -146.5t-107 -48.5q-43 0 -73 26.5t-30 75.5q0 26 12.5 41t34.5 15q18 0 29.5 -11.5t11.5 -30.5q0 -24 -18 -36q-16 -9 -16 -24q0 -32 51 -32q79 0 79 143v481 q0 22 -22 22h-72z" />
<glyph unicode="k" horiz-adv-x="520" d="M28 0v24h52q22 0 22 22v620q0 22 -22 22h-52v24h146v-509l136 167q18 22 18 36q0 26 -34 26h-26v24h204v-24h-32q-27 0 -48 -14t-48 -47l-76 -93l156 -222q7 -10 11.5 -17t12.5 -11t22 -4h20v-24h-212v24h26q27 0 27 20q0 15 -14 36l-97 140l-46 -56v-118q0 -22 22 -22 h32v-24h-200z" />
<glyph unicode="l" horiz-adv-x="270" d="M28 0v24h52q22 0 22 22v620q0 22 -22 22h-52v24h146v-666q0 -22 22 -22h52v-24h-220z" />
<glyph unicode="m" horiz-adv-x="794" d="M38 0v24h42q22 0 22 22v364q0 22 -22 22h-42v24h136v-88l4 -1q54 101 129 101q52 0 83 -26q30 -24 42 -84l4 -1q5 12 14 27t25.5 36t41 34.5t52.5 13.5q52 0 83 -26q46 -37 46 -123v-273q0 -22 22 -22h42v-24h-200v24h42q22 0 22 22v293q0 43 -15.5 74t-50.5 31 q-44 0 -84 -57t-40 -133v-208q0 -22 22 -22h42v-24h-200v24h42q22 0 22 22v293q0 43 -15.5 74t-50.5 31q-44 0 -84 -57t-40 -133v-208q0 -22 22 -22h42v-24h-200z" />
<glyph unicode="n" horiz-adv-x="540" d="M38 0v24h42q22 0 22 22v364q0 22 -22 22h-42v24h136v-92l4 -1q26 50 62.5 77.5t76.5 27.5q50 0 81 -26q46 -37 46 -123v-273q0 -22 22 -22h42v-24h-200v24h42q22 0 22 22v293q0 105 -64 105q-45 0 -89.5 -57.5t-44.5 -132.5v-208q0 -22 22 -22h42v-24h-200z" />
<glyph unicode="o" horiz-adv-x="496" d="M248 12q112 0 112 216t-112 216t-112 -216t112 -216zM248 -12q-84 0 -142 70.5t-58 169.5t58 169.5t142 70.5t142 -70.5t58 -169.5t-58 -169.5t-142 -70.5z" />
<glyph unicode="p" horiz-adv-x="518" d="M296 12q48 0 67 56.5t19 159.5t-19 159.5t-67 56.5q-47 0 -84.5 -56.5t-37.5 -125.5v-93q0 -61 33.5 -109t88.5 -48zM28 -230v24h52q22 0 22 22v594q0 22 -22 22h-52v24h146v-64l6 -2q20 33 52.5 55.5t65.5 22.5q79 0 125.5 -69t46.5 -171t-48.5 -171t-127.5 -69 q-66 0 -115 57l-5 -3v-226q0 -22 22 -22h52v-24h-220z" />
<glyph unicode="q" horiz-adv-x="502" d="M270 -230v24h52q22 0 22 22v226l-5 3q-49 -57 -115 -57q-79 0 -127.5 69t-48.5 171t48.5 171t127.5 69q48 0 83 -32t53 -74l7 2l31 92h18v-640q0 -22 22 -22h52v-24h-220zM222 12q55 0 88.5 48t33.5 109v109q0 59 -36.5 112.5t-85.5 53.5q-48 0 -67 -57t-19 -159t19 -159 t67 -57z" />
<glyph unicode="r" horiz-adv-x="410" d="M38 0v24h42q22 0 22 22v364q0 22 -22 22h-42v24h136v-126l4 -1q17 48 41.5 81.5t44.5 43.5q25 14 50 14q38 0 57 -24.5t19 -57.5q0 -24 -14 -46t-42 -22q-19 0 -32 9.5t-13 28.5q0 29 27 44q22 12 22 27q0 17 -28 17q-17 0 -34.5 -9t-38 -38.5t-37.5 -78.5 q-26 -74 -26 -140v-132q0 -22 22 -22h42v-24h-200z" />
<glyph unicode="s" horiz-adv-x="434" d="M52 345q0 61 38 92t96 31q53 0 97 -32q22 -16 33 -16q14 0 16 18l2 20h18v-152h-18l-14 35q-22 54 -58.5 78.5t-76.5 24.5q-37 0 -61 -18.5t-24 -51.5q0 -23 12.5 -37.5t33.5 -24.5q36 -19 42 -21l108 -45q48 -20 72 -48q24 -30 24 -80q0 -67 -38 -98.5t-100 -31.5 q-38 0 -66 13.5t-44 27t-27 13.5q-28 0 -35 -34l-4 -20h-18v198h18l34 -72q17 -37 54.5 -69.5t88.5 -32.5q46 0 68.5 22.5t22.5 61.5q0 45 -64 71l-114 46q-116 47 -116 132z" />
<glyph unicode="t" horiz-adv-x="350" d="M206 -12q-45 0 -74.5 32t-29.5 87v321h-74v28h22q45 0 70.5 48.5t25.5 107.5v36h28v-192h124v-28h-124v-326q0 -70 53 -70q71 0 71 120h18q0 -23 -1 -38t-6.5 -41.5t-16.5 -42.5t-33 -29t-53 -13z" />
<glyph unicode="u" horiz-adv-x="534" d="M223 -12q-50 0 -81 26q-46 37 -46 123v273q0 22 -22 22h-42v24h136v-339q0 -105 64 -105q45 0 89.5 57.5t44.5 132.5v208q0 22 -22 22h-42v24h136v-410q0 -22 22 -22h42v-24h-136v92l-4 1q-26 -50 -62.5 -77.5t-76.5 -27.5z" />
<glyph unicode="v" horiz-adv-x="530" d="M264 -12l-165 394q-5 13 -8.5 19.5t-10 15t-14.5 12t-19 3.5h-29v24h216v-24h-28q-12 0 -22 -6.5t-10 -17.5q0 -17 6 -33l112 -270l81 237q11 31 11 51q0 17 -10 28t-26 11h-24v24h182v-24h-23q-22 0 -40.5 -14.5t-28.5 -44.5l-132 -385h-18z" />
<glyph unicode="w" horiz-adv-x="776" d="M264 -12l-161 385q-4 9 -7.5 17.5t-7 15t-7.5 11.5t-9.5 8.5t-13 5t-17.5 1.5h-23v24h216v-24h-28q-12 0 -22 -6.5t-10 -17.5q0 -17 6 -33l112 -270l71 237q4 10 4 21q0 5 -11 33q-17 36 -43 36h-23v24h216v-24h-40q-14 0 -21 -6t-7.5 -10.5t-0.5 -13.5q0 -14 5 -27 l96 -270l81 237q11 31 11 51q0 39 -36 39h-24v24h182v-24h-23q-49 0 -69 -59l-136 -385h-18l-120 328l-104 -328h-18z" />
<glyph unicode="x" horiz-adv-x="520" d="M34 0v24h26q14 0 25 5.5t19.5 13.5t13.5 14.5t15 21.5l91 136l-122 195q-5 7 -7.5 12t-9 7.5t-17.5 2.5h-30v24h198v-24h-24q-20 0 -20 -20q0 -11 6 -21l69 -112l66 98q9 13 9 32q0 11 -7.5 17t-16.5 6h-24v24h174v-24h-25q-40 0 -69 -44l-91 -134l127 -204 q6 -10 10 -14.5t14 -8t25 -3.5h23v-24h-208v24h30q23 0 23 17q0 9 -7 21l-80 128l-68 -101q-15 -24 -15 -35q0 -30 25 -30h18v-24h-166z" />
<glyph unicode="y" horiz-adv-x="530" d="M134 -238q-39 0 -64 25q-28 26 -28 63q0 28 16 42q15 15 34 15q23 0 34.5 -14.5t11.5 -36.5q0 -12 -8 -28q-6 -10 -6 -19q0 -15 20 -15q30 0 50.5 23.5t30.5 55.5l27 87l-142 413q-8 22 -13.5 32.5t-17 18.5t-28.5 8h-33v24h226v-24h-32q-12 0 -22 -6.5t-10 -17.5 q0 -17 6 -33l104 -307l83 274q11 31 11 51q0 17 -10 28t-26 11h-24v24h182v-24h-23q-49 0 -69 -59l-161 -512q-11 -37 -42 -68t-77 -31z" />
<glyph unicode="z" horiz-adv-x="440" d="M40 0v26l260 406h-122q-63 0 -88 -50q-15 -30 -22 -66l-8 -36h-20l6 176h336v-32l-259 -400h127q63 0 88 50q15 30 22 66l8 36h20l-6 -176h-342z" />
<glyph unicode="{" horiz-adv-x="420" d="M104 276q56 0 81 14t25 64q0 31 -18 101t-18 107q0 119 150 168l12 -24q-25 -9 -39.5 -15.5t-31 -17.5t-24 -26t-7.5 -35q0 -36 18 -103t18 -103q0 -108 -94 -138v-2q94 -30 94 -144q0 -36 -18 -100t-18 -100q0 -38 25.5 -57t76.5 -37l-12 -24q-150 49 -150 168 q0 37 18 104t18 98q0 50 -26 67t-80 17v18z" />
<glyph unicode="|" horiz-adv-x="284" d="M120 730h44v-928h-44v928z" />
<glyph unicode="}" horiz-adv-x="420" d="M316 258q-56 0 -81 -14t-25 -64q0 -31 18 -101t18 -107q0 -119 -150 -168l-12 24q25 9 39.5 15.5t31 17.5t24 26t7.5 35q0 36 -18 103t-18 103q0 108 94 138v2q-94 30 -94 138q0 36 18 103t18 103q0 38 -25.5 57t-76.5 37l12 24q150 -49 150 -168q0 -37 -18 -107 t-18 -101q0 -50 25 -64t81 -14v-18z" />
<glyph unicode="~" horiz-adv-x="660" d="M122 290q-16 0 -28 -12.5t-12 -33.5q0 -38 42 -60l-12 -21q-64 29 -64 90q0 40 30 69.5t84 29.5q63 0 208 -64q124 -56 168 -56q16 0 28 12.5t12 33.5q0 38 -42 60l12 21q64 -29 64 -90q0 -40 -30 -69.5t-84 -29.5q-30 0 -69.5 11t-65 21.5t-73.5 31.5q-19 8 -37 16 t-36.5 15.5t-34.5 13t-32 8.5t-28 3z" />
<glyph unicode="&#xc4;" horiz-adv-x="764" d="M498 902q22 0 37 -15t15 -37t-15 -37t-37 -15t-37 15t-15 37t15 37t37 15zM294 902q22 0 37 -15t15 -37t-15 -37t-37 -15t-37 15t-15 37t15 37t37 15zM266 246h205l-104 303zM46 0v32h37q58 0 84 73l217 607h25l217 -636q18 -44 60 -44h56v-32h-310v32h66q15 0 25 7.5 t10 17.5q0 13 -4 22l-45 131h-231l-23 -65q-14 -40 -14 -60q0 -21 11.5 -37t39.5 -16h53v-32h-274z" />
<glyph unicode="&#xc5;" horiz-adv-x="764" d="M396 754q-40 0 -68.5 28.5t-28.5 69.5q0 40 28 68t69 28t69 -28t28 -68q0 -41 -28.5 -69.5t-68.5 -28.5zM396 778q31 0 52 21t21 53q0 31 -20.5 51.5t-52.5 20.5t-52.5 -20.5t-20.5 -51.5q0 -32 21 -53t52 -21zM266 246h205l-104 303zM46 0v32h37q58 0 84 73l217 607h25 l217 -636q18 -44 60 -44h56v-32h-310v32h66q15 0 25 7.5t10 17.5q0 13 -4 22l-45 131h-231l-23 -65q-14 -40 -14 -60q0 -21 11.5 -37t39.5 -16h53v-32h-274z" />
<glyph unicode="&#xc7;" horiz-adv-x="670" d="M70 362q0 101 33 184t97 133.5t150 50.5q61 0 124 -46q16 -10 26 -19q16 -14 28 -14q8 0 11.5 4.5t8.5 17.5l17 49h25v-278h-25q-33 122 -92.5 188t-122.5 66q-42 0 -73 -16t-50 -43t-31 -71t-16 -92.5t-4 -113.5t5 -115t18 -95.5t34 -74.5t54.5 -46t78.5 -17 q40 0 73.5 14t56.5 37.5t39.5 55.5t24.5 66.5t10 71.5h36q-1 -22 -4.5 -45t-11.5 -50.5t-20 -52.5t-31 -49t-42.5 -41.5t-57 -28t-73.5 -10.5h-11l-12 -36l26 -6q43 -10 67 -34.5t24 -59.5q0 -38 -33 -61t-93 -23q-34 0 -61 15t-43 36l16 17q38 -36 74 -36q29 0 48.5 13 t19.5 45q0 28 -12 43t-41 22l-31 7l20 61q-60 9 -109.5 45t-80.5 88t-47.5 115t-16.5 129z" />
<glyph unicode="&#xc9;" horiz-adv-x="690" d="M484 938q28 0 28 -31q0 -23 -28 -44l-128 -101l-13 11l92 133q23 32 49 32zM62 0v32h72q27 0 27 27v594q0 27 -27 27h-72v32h558l4 -226h-25l-1 20q-2 21 -12 55t-28 61q-38 58 -117 58h-161q-27 0 -27 -27v-273h88q27 0 45 12.5t25 35.5t9.5 43t2.5 47h26v-313h-26 q0 28 -2 47.5t-9.5 43t-25.5 36t-45 12.5h-88v-285q0 -27 27 -27h160q27 0 58.5 12.5t51.5 38.5q20 28 34.5 74t18.5 79l4 32h25l-12 -268h-558z" />
<glyph unicode="&#xd1;" horiz-adv-x="770" d="M490 810q-32 0 -85 20t-77 20q-29 0 -36 -40h-22q0 39 21 66.5t59 27.5q32 0 85 -20t77 -20q29 0 36 40h22q0 -39 -21 -66.5t-59 -27.5zM62 0v32h36q29 0 46 21.5t17 58.5v541q-1 27 -27 27h-72v32h189l347 -558v446q0 37 -17 58.5t-45 21.5h-36v32h238v-32h-36 q-28 0 -46 -21.5t-18 -58.5v-618h-40l-393 621h-4v-491q0 -37 17.5 -58.5t45.5 -21.5h36v-32h-238z" />
<glyph unicode="&#xd6;" horiz-adv-x="700" d="M462 902q22 0 37 -15t15 -37t-15 -37t-37 -15t-37 15t-15 37t15 37t37 15zM258 902q22 0 37 -15t15 -37t-15 -37t-37 -15t-37 15t-15 37t15 37t37 15zM360 -18q-84 0 -151.5 54.5t-103 139.5t-35.5 180t35.5 180t103 139.5t151.5 54.5t151.5 -54.5t103 -139.5t35.5 -180 t-35.5 -180t-103 -139.5t-151.5 -54.5zM360 14q184 0 184 342t-184 342t-184 -342t184 -342z" />
<glyph unicode="&#xdc;" horiz-adv-x="804" d="M524 902q22 0 37 -15t15 -37t-15 -37t-37 -15t-37 15t-15 37t15 37t37 15zM320 902q22 0 37 -15t15 -37t-15 -37t-37 -15t-37 15t-15 37t15 37t37 15zM424 -18q-69 0 -121 21.5t-82 58t-45 81t-15 94.5v416q0 27 -27 27h-72v32h291v-32h-73q-27 0 -27 -27v-443 q0 -93 45 -144.5t126 -51.5q94 0 146.5 53.5t52.5 130.5v401q0 37 -18 59t-46 22h-35v32h238v-32h-35q-28 0 -46 -22t-18 -59v-391q0 -97 -64.5 -161.5t-174.5 -64.5z" />
<glyph unicode="&#xe1;" horiz-adv-x="500" d="M344 684q28 0 28 -31q0 -23 -28 -44l-128 -101l-13 11l92 133q23 32 49 32zM130 103q0 -79 62 -79q24 0 43.5 11.5t34 34t22 39t16.5 41.5v95l-87 -19q-48 -10 -69.5 -39.5t-21.5 -83.5zM46 106q0 31 12 55.5t27.5 38.5t42.5 25t43.5 15t44.5 9l92 17v85q0 93 -93 93 q-34 0 -62 -17.5t-28 -39.5q0 -10 3 -15q4 -8 15 -10q37 -10 37 -39q0 -39 -44 -39q-22 0 -40 17t-18 49q0 55 43 86.5t97 31.5q66 0 114 -34.5t48 -107.5v-246q0 -50 31 -50q47 0 47 100h18q0 -142 -80 -142q-85 0 -88 96l-5 2q-15 -35 -48.5 -66.5t-78.5 -31.5 q-53 0 -91.5 26t-38.5 92z" />
<glyph unicode="&#xe0;" horiz-adv-x="500" d="M112 684q26 0 49 -32l92 -133l-13 -11l-128 101q-28 21 -28 44q0 31 28 31zM130 103q0 -79 62 -79q24 0 43.5 11.5t34 34t22 39t16.5 41.5v95l-87 -19q-48 -10 -69.5 -39.5t-21.5 -83.5zM46 106q0 31 12 55.5t27.5 38.5t42.5 25t43.5 15t44.5 9l92 17v85q0 93 -93 93 q-34 0 -62 -17.5t-28 -39.5q0 -10 3 -15q4 -8 15 -10q37 -10 37 -39q0 -39 -44 -39q-22 0 -40 17t-18 49q0 55 43 86.5t97 31.5q66 0 114 -34.5t48 -107.5v-246q0 -50 31 -50q47 0 47 100h18q0 -142 -80 -142q-85 0 -88 96l-5 2q-15 -35 -48.5 -66.5t-78.5 -31.5 q-53 0 -91.5 26t-38.5 92z" />
<glyph unicode="&#xe2;" horiz-adv-x="500" d="M248 672q36 -103 111 -151l-9 -13q-68 35 -122 92q-54 -57 -122 -92l-9 13q75 48 111 151h40zM130 103q0 -79 62 -79q24 0 43.5 11.5t34 34t22 39t16.5 41.5v95l-87 -19q-48 -10 -69.5 -39.5t-21.5 -83.5zM46 106q0 31 12 55.5t27.5 38.5t42.5 25t43.5 15t44.5 9l92 17 v85q0 93 -93 93q-34 0 -62 -17.5t-28 -39.5q0 -10 3 -15q4 -8 15 -10q37 -10 37 -39q0 -39 -44 -39q-22 0 -40 17t-18 49q0 55 43 86.5t97 31.5q66 0 114 -34.5t48 -107.5v-246q0 -50 31 -50q47 0 47 100h18q0 -142 -80 -142q-85 0 -88 96l-5 2q-15 -35 -48.5 -66.5 t-78.5 -31.5q-53 0 -91.5 26t-38.5 92z" />
<glyph unicode="&#xe4;" horiz-adv-x="500" d="M322 648q22 0 37 -15t15 -37t-15 -37t-37 -15t-37 15t-15 37t15 37t37 15zM134 648q22 0 37 -15t15 -37t-15 -37t-37 -15t-37 15t-15 37t15 37t37 15zM130 103q0 -79 62 -79q24 0 43.5 11.5t34 34t22 39t16.5 41.5v95l-87 -19q-48 -10 -69.5 -39.5t-21.5 -83.5zM46 106 q0 31 12 55.5t27.5 38.5t42.5 25t43.5 15t44.5 9l92 17v85q0 93 -93 93q-34 0 -62 -17.5t-28 -39.5q0 -10 3 -15q4 -8 15 -10q37 -10 37 -39q0 -39 -44 -39q-22 0 -40 17t-18 49q0 55 43 86.5t97 31.5q66 0 114 -34.5t48 -107.5v-246q0 -50 31 -50q47 0 47 100h18 q0 -142 -80 -142q-85 0 -88 96l-5 2q-15 -35 -48.5 -66.5t-78.5 -31.5q-53 0 -91.5 26t-38.5 92z" />
<glyph unicode="&#xe3;" horiz-adv-x="500" d="M286 556q-32 0 -73 20t-65 20q-29 0 -36 -40h-22q0 39 21 66.5t59 27.5q32 0 73 -20t65 -20q29 0 36 40h22q0 -39 -21 -66.5t-59 -27.5zM130 103q0 -79 62 -79q24 0 43.5 11.5t34 34t22 39t16.5 41.5v95l-87 -19q-48 -10 -69.5 -39.5t-21.5 -83.5zM46 106q0 31 12 55.5 t27.5 38.5t42.5 25t43.5 15t44.5 9l92 17v85q0 93 -93 93q-34 0 -62 -17.5t-28 -39.5q0 -10 3 -15q4 -8 15 -10q37 -10 37 -39q0 -39 -44 -39q-22 0 -40 17t-18 49q0 55 43 86.5t97 31.5q66 0 114 -34.5t48 -107.5v-246q0 -50 31 -50q47 0 47 100h18q0 -142 -80 -142 q-85 0 -88 96l-5 2q-15 -35 -48.5 -66.5t-78.5 -31.5q-53 0 -91.5 26t-38.5 92z" />
<glyph unicode="&#xe5;" horiz-adv-x="500" d="M228 500q-40 0 -68.5 28.5t-28.5 69.5q0 40 28 68t69 28t69 -28t28 -68q0 -41 -28.5 -69.5t-68.5 -28.5zM228 524q31 0 52 21t21 53q0 31 -20.5 51.5t-52.5 20.5t-52.5 -20.5t-20.5 -51.5q0 -32 21 -53t52 -21zM130 103q0 -79 62 -79q24 0 43.5 11.5t34 34t22 39 t16.5 41.5v95l-87 -19q-48 -10 -69.5 -39.5t-21.5 -83.5zM46 106q0 31 12 55.5t27.5 38.5t42.5 25t43.5 15t44.5 9l92 17v85q0 93 -93 93q-34 0 -62 -17.5t-28 -39.5q0 -10 3 -15q4 -8 15 -10q37 -10 37 -39q0 -39 -44 -39q-22 0 -40 17t-18 49q0 55 43 86.5t97 31.5 q66 0 114 -34.5t48 -107.5v-246q0 -50 31 -50q47 0 47 100h18q0 -142 -80 -142q-85 0 -88 96l-5 2q-15 -35 -48.5 -66.5t-78.5 -31.5q-53 0 -91.5 26t-38.5 92z" />
<glyph unicode="&#xe7;" horiz-adv-x="436" d="M48 228q0 101 55 170.5t141 69.5q68 0 109 -40.5t41 -90.5q0 -31 -16 -48.5t-39 -17.5q-20 0 -33.5 13t-13.5 31q0 35 34 46q16 5 16 18q0 20 -25 42.5t-73 22.5q-63 0 -85.5 -54t-22.5 -162t22 -162t86 -54q61 0 94 43t40 101h24q-4 -63 -45 -115.5t-107 -52.5h-12 l-13 -41l24 -5q41 -9 64 -29.5t23 -54.5q0 -30 -29 -50t-85 -20q-23 0 -47.5 11t-38.5 25l12 16q11 -9 26.5 -16.5t35.5 -7.5q27 0 44.5 12.5t17.5 38.5q0 27 -10 39q-11 13 -34 18l-34 7l20 60q-76 12 -121 78.5t-45 158.5z" />
<glyph unicode="&#xe9;" horiz-adv-x="460" d="M356 684q28 0 28 -31q0 -23 -28 -44l-128 -101l-13 11l92 133q23 32 49 32zM136 252h190q0 36 -5 68t-15 61t-29 46t-45 17t-45 -17t-30 -46t-16 -61.5t-5 -67.5zM48 228q0 62 23 116t66.5 89t98.5 35q36 0 66 -15t50 -40t34 -57t20 -65t6 -67h-276q0 -49 5 -85.5t17 -66 t35 -45t57 -15.5q20 0 38.5 6t38 21t33 45t18.5 72h24q-6 -74 -45 -121t-109 -47q-90 0 -145 67t-55 173z" />
<glyph unicode="&#xe8;" horiz-adv-x="460" d="M124 684q26 0 49 -32l92 -133l-13 -11l-128 101q-28 21 -28 44q0 31 28 31zM136 252h190q0 36 -5 68t-15 61t-29 46t-45 17t-45 -17t-30 -46t-16 -61.5t-5 -67.5zM48 228q0 62 23 116t66.5 89t98.5 35q36 0 66 -15t50 -40t34 -57t20 -65t6 -67h-276q0 -49 5 -85.5t17 -66 t35 -45t57 -15.5q20 0 38.5 6t38 21t33 45t18.5 72h24q-6 -74 -45 -121t-109 -47q-90 0 -145 67t-55 173z" />
<glyph unicode="&#xea;" horiz-adv-x="460" d="M260 672q36 -103 111 -151l-9 -13q-68 35 -122 92q-54 -57 -122 -92l-9 13q75 48 111 151h40zM136 252h190q0 36 -5 68t-15 61t-29 46t-45 17t-45 -17t-30 -46t-16 -61.5t-5 -67.5zM48 228q0 62 23 116t66.5 89t98.5 35q36 0 66 -15t50 -40t34 -57t20 -65t6 -67h-276 q0 -49 5 -85.5t17 -66t35 -45t57 -15.5q20 0 38.5 6t38 21t33 45t18.5 72h24q-6 -74 -45 -121t-109 -47q-90 0 -145 67t-55 173z" />
<glyph unicode="&#xeb;" horiz-adv-x="460" d="M334 648q22 0 37 -15t15 -37t-15 -37t-37 -15t-37 15t-15 37t15 37t37 15zM146 648q22 0 37 -15t15 -37t-15 -37t-37 -15t-37 15t-15 37t15 37t37 15zM136 252h190q0 36 -5 68t-15 61t-29 46t-45 17t-45 -17t-30 -46t-16 -61.5t-5 -67.5zM48 228q0 62 23 116t66.5 89 t98.5 35q36 0 66 -15t50 -40t34 -57t20 -65t6 -67h-276q0 -49 5 -85.5t17 -66t35 -45t57 -15.5q20 0 38.5 6t38 21t33 45t18.5 72h24q-6 -74 -45 -121t-109 -47q-90 0 -145 67t-55 173z" />
<glyph unicode="&#xed;" horiz-adv-x="270" d="M248 684q28 0 28 -31q0 -23 -28 -44l-128 -101l-13 11l92 133q23 32 49 32zM38 0v24h42q22 0 22 22v364q0 22 -22 22h-42v24h136v-410q0 -22 22 -22h42v-24h-200z" />
<glyph unicode="&#xec;" horiz-adv-x="270" d="M16 684q26 0 49 -32l92 -133l-13 -11l-128 101q-28 21 -28 44q0 31 28 31zM38 0v24h42q22 0 22 22v364q0 22 -22 22h-42v24h136v-410q0 -22 22 -22h42v-24h-200z" />
<glyph unicode="&#xee;" horiz-adv-x="282" d="M158 672q36 -103 111 -151l-9 -13q-68 35 -122 92q-54 -57 -122 -92l-9 13q75 48 111 151h40zM44 0v24h42q22 0 22 22v364q0 22 -22 22h-42v24h136v-410q0 -22 22 -22h42v-24h-200z" />
<glyph unicode="&#xef;" horiz-adv-x="282" d="M50 0v24h42q22 0 22 22v364q0 22 -22 22h-42v24h136v-410q0 -22 22 -22h42v-24h-200zM172 596q0 22 15 37t37 15t37 -15t15 -37t-15 -37t-37 -15t-37 15t-15 37zM10 596q0 22 15 37t37 15t37 -15t15 -37t-15 -37t-37 -15t-37 15t-15 37z" />
<glyph unicode="&#xf1;" horiz-adv-x="540" d="M334 556q-32 0 -73 20t-65 20q-29 0 -36 -40h-22q0 39 21 66.5t59 27.5q32 0 73 -20t65 -20q29 0 36 40h22q0 -39 -21 -66.5t-59 -27.5zM38 0v24h42q22 0 22 22v364q0 22 -22 22h-42v24h136v-92l4 -1q26 50 62.5 77.5t76.5 27.5q50 0 81 -26q46 -37 46 -123v-273 q0 -22 22 -22h42v-24h-200v24h42q22 0 22 22v293q0 105 -64 105q-45 0 -89.5 -57.5t-44.5 -132.5v-208q0 -22 22 -22h42v-24h-200z" />
<glyph unicode="&#xf3;" horiz-adv-x="496" d="M364 684q28 0 28 -31q0 -23 -28 -44l-128 -101l-13 11l92 133q23 32 49 32zM248 12q112 0 112 216t-112 216t-112 -216t112 -216zM248 -12q-84 0 -142 70.5t-58 169.5t58 169.5t142 70.5t142 -70.5t58 -169.5t-58 -169.5t-142 -70.5z" />
<glyph unicode="&#xf2;" horiz-adv-x="496" d="M132 684q26 0 49 -32l92 -133l-13 -11l-128 101q-28 21 -28 44q0 31 28 31zM248 12q112 0 112 216t-112 216t-112 -216t112 -216zM248 -12q-84 0 -142 70.5t-58 169.5t58 169.5t142 70.5t142 -70.5t58 -169.5t-58 -169.5t-142 -70.5z" />
<glyph unicode="&#xf4;" horiz-adv-x="496" d="M268 672q36 -103 111 -151l-9 -13q-68 35 -122 92q-54 -57 -122 -92l-9 13q75 48 111 151h40zM248 12q112 0 112 216t-112 216t-112 -216t112 -216zM248 -12q-84 0 -142 70.5t-58 169.5t58 169.5t142 70.5t142 -70.5t58 -169.5t-58 -169.5t-142 -70.5z" />
<glyph unicode="&#xf6;" horiz-adv-x="496" d="M342 648q22 0 37 -15t15 -37t-15 -37t-37 -15t-37 15t-15 37t15 37t37 15zM154 648q22 0 37 -15t15 -37t-15 -37t-37 -15t-37 15t-15 37t15 37t37 15zM248 12q112 0 112 216t-112 216t-112 -216t112 -216zM248 -12q-84 0 -142 70.5t-58 169.5t58 169.5t142 70.5 t142 -70.5t58 -169.5t-58 -169.5t-142 -70.5z" />
<glyph unicode="&#xf5;" horiz-adv-x="496" d="M306 556q-32 0 -73 20t-65 20q-29 0 -36 -40h-22q0 39 21 66.5t59 27.5q32 0 73 -20t65 -20q29 0 36 40h22q0 -39 -21 -66.5t-59 -27.5zM248 12q112 0 112 216t-112 216t-112 -216t112 -216zM248 -12q-84 0 -142 70.5t-58 169.5t58 169.5t142 70.5t142 -70.5t58 -169.5 t-58 -169.5t-142 -70.5z" />
<glyph unicode="&#xfa;" horiz-adv-x="534" d="M378 684q28 0 28 -31q0 -23 -28 -44l-128 -101l-13 11l92 133q23 32 49 32zM223 -12q-50 0 -81 26q-46 37 -46 123v273q0 22 -22 22h-42v24h136v-339q0 -105 64 -105q45 0 89.5 57.5t44.5 132.5v208q0 22 -22 22h-42v24h136v-410q0 -22 22 -22h42v-24h-136v92l-4 1 q-26 -50 -62.5 -77.5t-76.5 -27.5z" />
<glyph unicode="&#xf9;" horiz-adv-x="534" d="M146 684q26 0 49 -32l92 -133l-13 -11l-128 101q-28 21 -28 44q0 31 28 31zM223 -12q-50 0 -81 26q-46 37 -46 123v273q0 22 -22 22h-42v24h136v-339q0 -105 64 -105q45 0 89.5 57.5t44.5 132.5v208q0 22 -22 22h-42v24h136v-410q0 -22 22 -22h42v-24h-136v92l-4 1 q-26 -50 -62.5 -77.5t-76.5 -27.5z" />
<glyph unicode="&#xfb;" horiz-adv-x="534" d="M282 672q36 -103 111 -151l-9 -13q-68 35 -122 92q-54 -57 -122 -92l-9 13q75 48 111 151h40zM223 -12q-50 0 -81 26q-46 37 -46 123v273q0 22 -22 22h-42v24h136v-339q0 -105 64 -105q45 0 89.5 57.5t44.5 132.5v208q0 22 -22 22h-42v24h136v-410q0 -22 22 -22h42v-24 h-136v92l-4 1q-26 -50 -62.5 -77.5t-76.5 -27.5z" />
<glyph unicode="&#xfc;" horiz-adv-x="534" d="M356 648q22 0 37 -15t15 -37t-15 -37t-37 -15t-37 15t-15 37t15 37t37 15zM168 648q22 0 37 -15t15 -37t-15 -37t-37 -15t-37 15t-15 37t15 37t37 15zM223 -12q-50 0 -81 26q-46 37 -46 123v273q0 22 -22 22h-42v24h136v-339q0 -105 64 -105q45 0 89.5 57.5t44.5 132.5 v208q0 22 -22 22h-42v24h136v-410q0 -22 22 -22h42v-24h-136v92l-4 1q-26 -50 -62.5 -77.5t-76.5 -27.5z" />
<glyph unicode="&#x2020;" horiz-adv-x="540" d="M269 730q25 0 40.5 -19t15.5 -45q0 -24 -19.5 -77.5t-22.5 -81.5q28 3 80.5 23t76.5 20q26 0 45.5 -15.5t19.5 -40.5t-19.5 -40.5t-45.5 -15.5q-24 0 -77 20t-80 23q5 -56 46 -131q-40 -98 -40 -262v-256h-38v256q0 164 -40 262q41 75 46 131q-28 -3 -80.5 -23t-76.5 -20 q-26 0 -45.5 15.5t-19.5 40.5t19.5 40.5t45.5 15.5q23 0 76 -20t81 -23q-3 28 -23.5 81.5t-20.5 77.5q0 26 15.5 45t40.5 19z" />
<glyph unicode="&#xb0;" horiz-adv-x="580" d="M154 564q0 57 39.5 96.5t96.5 39.5t96.5 -39.5t39.5 -96.5t-39.5 -96.5t-96.5 -39.5t-96.5 39.5t-39.5 96.5zM186 564q0 -45 29.5 -74.5t74.5 -29.5t74.5 29.5t29.5 74.5t-29.5 74.5t-74.5 29.5t-74.5 -29.5t-29.5 -74.5z" />
<glyph unicode="&#xa2;" horiz-adv-x="580" d="M112 228q0 94 50.5 162.5t127.5 76.5v109h32v-109q62 -4 99 -43.5t37 -86.5q0 -31 -16 -48.5t-39 -17.5q-20 0 -33.5 13t-13.5 31q0 35 34 46q16 5 16 18q0 19 -21.5 40t-62.5 24v-431q56 3 84.5 45t35.5 99h24q-3 -40 -17 -75.5t-47 -63t-80 -29.5v-108h-32v109 q-84 9 -131 76t-47 163zM200 228q0 -76 20.5 -137.5t69.5 -75.5v427q-47 -12 -68.5 -75t-21.5 -139z" />
<glyph unicode="&#xa3;" horiz-adv-x="720" d="M162 -12q-41 0 -69.5 19.5t-28.5 58.5q0 35 29.5 57.5t62.5 22.5q51 0 111 -29q9 39 9 99q0 42 -7 137q-52 9 -65 9q-21 0 -33.5 -2.5t-21 -7.5t-21.5 -12l-14 22q32 28 82 28q19 0 71 -10q-1 14 -1 50q0 113 64.5 191.5t153.5 78.5q52 0 86.5 -24.5t45.5 -50.5t11 -48 q0 -34 -15 -54.5t-45 -20.5q-21 0 -35.5 13t-14.5 34q0 32 25 45q13 7 18 12t5 17q0 19 -19.5 35t-61.5 16q-49 0 -88 -43.5t-39 -128.5v-138q42 -8 61 -8q16 0 27.5 2t19.5 5t15 7l14 8l14 -22q-28 -28 -82 -28q-17 0 -69 9v-65q0 -108 -48 -177q78 -47 190 -47 q45 0 78 37.5t43 82.5l18 -7q-35 -179 -179 -179q-60 0 -180 75q-22 -25 -54.5 -47t-62.5 -22zM162 12q24 0 49 19t40 48q-9 6 -17.5 12t-18.5 11.5t-19.5 10t-21.5 7t-24 2.5q-25 0 -41.5 -16.5t-16.5 -39.5q0 -54 70 -54z" />
<glyph unicode="&#xa7;" horiz-adv-x="640" d="M298 700q46 0 82 -29.5t36 -70.5q0 -26 -15 -41t-37 -15q-21 0 -35.5 13t-14.5 31q0 10 3.5 18t8 11.5t14.5 10.5t10 18q0 30 -52 30q-36 0 -63 -20.5t-27 -57.5q0 -30 10 -54t21.5 -37t36.5 -35l128 -110q37 -31 51.5 -60t14.5 -76q0 -76 -110 -146q58 -62 58 -132 q0 -62 -44 -98t-104 -36q-45 0 -81.5 30t-36.5 72q0 26 15 40t39 14q19 0 33.5 -12.5t14.5 -29.5q0 -26 -24 -41q-12 -7 -12 -19q0 -14 15 -22t37 -8q36 0 63 21t27 57q0 39 -15.5 67.5t-50.5 58.5l-128 108q-34 31 -50 61.5t-16 74.5q0 78 110 148q-60 54 -60 128 q0 62 44.5 100t103.5 38zM342 94q32 18 61 44.5t29 47.5q0 59 -44 94l-140 120l-20 20q-90 -56 -90 -94q0 -55 42 -92l140 -118z" />
<glyph unicode="&#x2022;" horiz-adv-x="500" d="M250 240q-48 0 -81 33t-33 81t33 81t81 33t81 -33t33 -81t-33 -81t-81 -33z" />
<glyph unicode="&#xb6;" horiz-adv-x="540" d="M476 712v-34h-68v-834h-38v834h-100v-834h-38v542q-73 0 -120.5 43.5t-47.5 114.5q0 72 48 120t120 48h244z" />
<glyph unicode="&#xdf;" horiz-adv-x="526" d="M28 0v24h52q22 0 22 22v463q0 101 56.5 155t129.5 54q70 0 112 -37t42 -96q0 -60 -45 -100t-98 -53v-4q32 -9 61.5 -27t57 -47.5t44 -74.5t16.5 -101q0 -86 -47.5 -138t-118.5 -52q-46 0 -78 27t-32 69q0 29 15 44.5t37 15.5q44 0 44 -42q0 -23 -30 -38q-12 -7 -12 -16 q0 -17 16.5 -26.5t40.5 -9.5q37 0 57 37t20 129q0 105 -34 171.5t-96 66.5h-38v28h38q54 0 80 40.5t26 95.5q0 114 -83 114q-44 0 -76.5 -42.5t-32.5 -123.5v-528h-146z" />
<glyph unicode="&#xae;" horiz-adv-x="820" d="M336 382h77q33 0 53 23t20 65q0 92 -74 92h-54q-22 0 -22 -22v-158zM200 130v24h42q22 0 22 22v364q0 22 -22 22h-42v24h228q63 0 104.5 -28.5t41.5 -81.5q0 -28 -12.5 -49t-32 -32.5t-34.5 -16.5t-29 -8v-4q81 -17 91 -115q3 -24 4 -46t9 -36.5t24 -14.5q24 0 33 29.5 t9 60.5h18q0 -19 -3 -37t-10.5 -40t-26 -35.5t-45.5 -13.5q-31 0 -51 14q-37 26 -37 87v54q0 47 -20.5 66t-46.5 19h-78v-182q0 -22 22 -22h44v-24h-202zM76 356q0 -142 97 -244t237 -102t237 102t97 244t-97 244t-237 102t-237 -102t-97 -244zM48 356q0 156 104.5 265 t257.5 109t257.5 -109t104.5 -265t-104.5 -265t-257.5 -109t-257.5 109t-104.5 265z" />
<glyph unicode="&#xa9;" horiz-adv-x="820" d="M76 356q0 -142 97 -244t237 -102t237 102t97 244t-97 244t-237 102t-237 -102t-97 -244zM48 356q0 156 104.5 265t257.5 109t257.5 -109t104.5 -265t-104.5 -265t-257.5 -109t-257.5 109t-104.5 265zM422 110q-95 0 -148.5 69t-53.5 159q0 112 54.5 182t149.5 70 q44 0 82 -32q10 -9 20 -9q9 0 15.5 11.5t6.5 23.5h18v-164h-18q-6 57 -46 101.5t-78 44.5q-116 0 -116 -228q0 -32 5.5 -65t17.5 -65.5t35.5 -53t55.5 -20.5q61 0 91 42t37 102h24q-4 -66 -42.5 -117t-109.5 -51z" />
<glyph unicode="&#x2122;" horiz-adv-x="980" d="M466 302v24h20q22 0 30 13.5t8 40.5v286q0 22 -22 22h-36v24h138l102 -295l93 295h143v-24h-36q-22 0 -22 -22v-318q0 -22 22 -22h36v-24h-188v24h36q22 0 22 22v312l-120 -366h-18l-122 350v-264q0 -27 8 -40.5t30 -13.5h20v-24h-144zM114 302v24h42q22 0 22 22v318 q0 22 -22 22q-30 0 -46.5 -12.5t-29.5 -37.5q-15 -30 -22 -66l-8 -36h-20l7 176h355l6 -176h-20l-8 36q-7 36 -22 66q-13 25 -29.5 37.5t-46.5 12.5q-22 0 -22 -22v-318q0 -22 22 -22h42v-24h-200z" />
<glyph unicode="&#x2ca;" horiz-adv-x="440" d="M336 684q28 0 28 -31q0 -23 -28 -44l-128 -101l-13 11l92 133q23 32 49 32z" />
<glyph unicode="&#xb4;" horiz-adv-x="440" d="M336 684q28 0 28 -31q0 -23 -28 -44l-128 -101l-13 11l92 133q23 32 49 32z" />
<glyph unicode="&#xa8;" horiz-adv-x="440" d="M314 648q22 0 37 -15t15 -37t-15 -37t-37 -15t-37 15t-15 37t15 37t37 15zM126 648q22 0 37 -15t15 -37t-15 -37t-37 -15t-37 15t-15 37t15 37t37 15z" />
<glyph unicode="&#x2260;" horiz-adv-x="940" d="M48 148v40h366l68 150h-434v40h452l140 306h44l-140 -306h348v-40h-366l-68 -150h434v-40h-452l-140 -306h-44l140 306h-348z" />
<glyph unicode="&#xc6;" horiz-adv-x="1004" d="M26 0v32h32q33 0 57.5 18t43.5 55l266 503q10 19 13 28q4 12 4 24q0 20 -25 20h-41v32h558l4 -226h-25l-1 20q-1 16 -12 55q-10 34 -28 61q-38 58 -117 58h-161q-27 0 -27 -27v-273h88q27 0 45 12.5t25 35.5t9.5 43t2.5 47h26v-313h-26q0 28 -2 47.5t-9.5 43t-25.5 36 t-45 12.5h-88v-285q0 -27 27 -27h159q30 0 59 12q34 14 53 40q20 28 34 74t18 78l4 32h25l-12 -268h-553v32h67q27 0 27 27v151h-217l-35 -65q-18 -33 -18 -66q0 -47 44 -47h47v-32h-270zM475 246v374l-198 -374h198z" />
<glyph unicode="&#xd8;" horiz-adv-x="700" d="M360 -18q-110 0 -190 90l-68 -90l-32 24l75 99q-75 108 -75 251q0 148 82 261t208 113q108 0 189 -89l67 89l32 -24l-74 -98q76 -107 76 -252q0 -95 -35.5 -180t-103 -139.5t-151.5 -54.5zM360 14q184 0 184 342q0 111 -19 187l-316 -419q45 -110 151 -110zM360 698 q-184 0 -184 -342q0 -107 18 -185l316 418q-44 109 -150 109z" />
<glyph unicode="&#x221e;" horiz-adv-x="924" d="M84 252q0 -67 44 -107.5t104 -40.5q80 0 190 136l-12 14q-30 36 -49 56t-46 44t-52.5 35t-52.5 11q-47 0 -86.5 -42.5t-39.5 -105.5zM48 262q0 86 61.5 140t142.5 54q63 0 115.5 -37t112.5 -105q116 142 212 142q79 0 131.5 -51.5t52.5 -138.5q0 -86 -61.5 -140 t-142.5 -54q-63 0 -115.5 37t-112.5 105q-116 -142 -212 -142q-79 0 -131.5 51.5t-52.5 138.5zM840 276q0 67 -44 107.5t-104 40.5q-80 0 -190 -136l12 -14q30 -36 49 -56t46 -44t52.5 -35t52.5 -11q47 0 86.5 42.5t39.5 105.5z" />
<glyph unicode="&#xb1;" horiz-adv-x="940" d="M48 338v40h400v274h44v-274h400v-40h-400v-274h-44v274h-400zM48 -40v40h836v-40h-836z" />
<glyph unicode="&#x2264;" horiz-adv-x="940" d="M48 -156v40h844v-40h-844zM870 0l-814 330v28l814 330l14 -36l-760 -308l760 -308z" />
<glyph unicode="&#x2265;" horiz-adv-x="940" d="M48 -156v40h844v-40h-844zM70 0l-14 36l760 308l-760 308l14 36l814 -330v-28z" />
<glyph unicode="&#xa5;" horiz-adv-x="580" d="M136 0v32h74q28 0 28 28v146h-140v32h140v60h-140v32h134l-139 283q-10 20 -19 29q-9 10 -25 10h-35v32h228v-32h-33q-27 0 -27 -17q0 -9 9 -27l120 -244l109 198q20 36 20 55q0 13 -7.5 24t-26.5 11h-42v32h200v-32h-28q-27 0 -36.5 -13t-36.5 -62l-137 -247h140v-32 h-140v-60h140v-32h-140v-146q0 -28 28 -28h74v-32h-292z" />
<glyph unicode="&#xb5;" horiz-adv-x="606" d="M62 354q0 110 52 110q44 0 44 -88q0 -34 -27 -184q-9 -46 -11 -67q10 -40 43.5 -65.5t79.5 -25.5q29 0 52 9t37 22t23 29t12 28.5t3 21.5q0 26 -9 86q-11 74 -11 126q0 110 52 110q28 0 42 -32t14 -86q0 -52 -13 -132.5t-30 -126.5q11 -18 30 -27.5t38 -9.5q31 0 49 19.5 t24 45.5q22 -27 22 -55q0 -32 -17 -53t-48 -21q-63 0 -103 79l-7 -1q-18 -30 -52.5 -53t-86.5 -23q-54 0 -94 29t-61 70q-5 -31 -5 -59q0 -78 10.5 -120t31.5 -83q22 -43 22 -63q0 -22 -11 -34t-29 -12q-20 0 -35 17t-21 39t-6 43q0 60 12 172q10 93 10 143q-10 32 -18 93 t-8 129z" />
<glyph unicode="&#x2202;" horiz-adv-x="528" d="M270 420q-71 0 -112 -111q-30 -83 -30 -177q0 -57 20 -88.5t56 -31.5q41 0 66.5 29.5t45.5 80.5q30 76 30 178q0 57 -20 88.5t-56 31.5zM274 444q32 0 62 -20.5t41 -55.5l9 1q8 28 15 78.5t7 79.5q0 168 -99 168q-49 0 -117 -77l-29 28q27 31 66 52.5t79 21.5 q59 0 97.5 -34.5t52.5 -80t14 -99.5q0 -80 -18.5 -180t-53.5 -178q-71 -160 -203 -160q-55 0 -102 47t-47 133q0 120 66.5 198t159.5 78z" />
<glyph unicode="&#x2211;" horiz-adv-x="760" d="M66 -156v39l309 364l-284 426v39h598v-285h-31l-2 30q-1 30 -14 75t-37 75q-17 23 -54.5 48t-79.5 25h-256l249 -382l-303 -358h393q34 0 54.5 21t33.5 65q16 53 24 101l9 48h31v-331h-640z" />
<glyph unicode="&#x220f;" horiz-adv-x="788" d="M62 -156v32h72q27 0 27 27v750q0 27 -27 27h-72v32h684v-32h-72q-27 0 -27 -27v-750q0 -27 27 -27h72v-32h-290v32h72q27 0 27 27v750q0 27 -27 27h-248q-27 0 -27 -27v-750q0 -27 27 -27h72v-32h-290z" />
<glyph unicode="&#x3c0;" horiz-adv-x="620" d="M574 456v-76h-194v-158q0 -80 20.5 -119t66.5 -39t65 66q14 -18 14 -48q0 -40 -23 -67t-65 -27q-54 0 -80 36.5t-26 89.5v266h-132v-269q0 -49 -20 -86t-54 -37q-12 0 -28 16q-14 14 -14 28q0 20 27.5 40.5t38.5 40.5q26 47 26 267h-76q-32 0 -54 -17.5t-28 -44.5h-10 q0 23 11 56t27 51q28 31 72 31h436z" />
<glyph unicode="&#x222b;" horiz-adv-x="448" d="M276 30q0 -73 -6.5 -127.5t-22.5 -101t-46 -71t-74 -24.5q-34 0 -56.5 22.5t-22.5 55.5q0 29 16 51.5t47 22.5q47 0 47 -44q0 -17 -14 -39q-8 -11 -8 -23q0 -14 16 -14q24 0 46 27.5t22 72.5q0 116 -24 350t-24 310q0 73 6.5 127.5t22.5 101t46 71t74 24.5 q34 0 56.5 -22.5t22.5 -55.5q0 -29 -16 -51.5t-47 -22.5q-47 0 -47 44q0 17 14 39q8 11 8 23q0 14 -16 14q-24 0 -46 -27.5t-22 -72.5q0 -116 24 -350t24 -310z" />
<glyph unicode="&#xaa;" horiz-adv-x="380" d="M70 386h240v-24h-240v24zM118 478q0 -18 10.5 -27.5t22.5 -9.5q20 0 33 9.5t24 29.5v94l-39 -20q-51 -26 -51 -76zM62 473q0 29 23.5 51.5t72.5 44.5l50 23v38q0 52 -51 52q-22 0 -38.5 -9t-16.5 -22q0 -6 2 -9t8 -3q10 0 16 -7.5t6 -16.5q0 -12 -8.5 -18.5t-19.5 -6.5 q-17 0 -27.5 9t-10.5 28q0 33 27.5 53t60.5 20q41 0 70.5 -20t29.5 -65v-141q0 -37 23 -37q27 0 27 60h14q0 -85 -52 -85q-27 0 -42 14t-17 36l-2 1q-15 -23 -34 -37t-41 -14q-70 0 -70 61z" />
<glyph unicode="&#xba;" horiz-adv-x="380" d="M70 386h240v-24h-240v24zM189 430q35 0 50 38t15 88t-15 88t-50 38q-34 0 -48.5 -37.5t-14.5 -88.5t14.5 -88.5t48.5 -37.5zM189 412q-50 0 -84.5 42t-34.5 102t34.5 102t84.5 42q51 0 86 -42t35 -102t-35 -102t-86 -42z" />
<glyph unicode="&#x3a9;" horiz-adv-x="716" d="M369 698q-83 0 -134 -64t-51 -180q0 -109 36.5 -167.5t78.5 -71.5l35 -11v-204h-226l-18 208h26l18 -97q5 -27 34 -27h105q27 0 27 27v76l-62 19q-67 26 -113.5 98t-46.5 150q0 123 84 199.5t207 76.5q122 0 205.5 -76.5t83.5 -199.5q0 -78 -46.5 -150t-113.5 -98 l-62 -19v-76q0 -27 27 -27h105q29 0 34 27l18 97h26l-18 -208h-226v204l35 11q44 14 79.5 71.5t35.5 167.5q0 116 -50.5 180t-132.5 64z" />
<glyph unicode="&#xe6;" horiz-adv-x="704" d="M46 106q0 31 12 55.5t27.5 38t42 24.5t43.5 15.5t45 9.5l92 17v85q0 93 -93 93q-34 0 -62 -17.5t-28 -39.5q0 -10 3 -15q4 -8 15 -10q37 -10 37 -39q0 -39 -44 -39q-22 0 -40 17t-18 49q0 55 43 86.5t97 31.5q98 0 138 -60q53 60 124 60q44 0 79.5 -22.5t55.5 -59 t30.5 -78.5t10.5 -84h-276q0 -102 25 -157t89 -55q20 0 38.5 6.5t37.5 21t33 44.5t19 72h24q-6 -74 -45 -121t-109 -47q-123 0 -177 121q-17 -50 -54.5 -85.5t-84.5 -35.5q-53 0 -91.5 26t-38.5 92zM380 252h190q0 78 -22.5 135t-71.5 57t-72.5 -57.5t-23.5 -134.5zM130 103 q0 -79 62 -79q24 0 43.5 11.5t33.5 34t22 39t17 41.5v95l-87 -19q-48 -10 -69.5 -39.5t-21.5 -83.5z" />
<glyph unicode="&#xf8;" horiz-adv-x="496" d="M248 -12q-76 0 -131 58l-47 -58l-22 18l51 62q-51 68 -51 160q0 99 58 169.5t142 70.5q76 0 131 -58l47 58l22 -18l-51 -62q51 -68 51 -160q0 -99 -58 -169.5t-142 -70.5zM248 12q112 0 112 216q0 60 -9 104l-197 -242q27 -78 94 -78zM248 444q-112 0 -112 -216 q0 -60 9 -104l197 242q-27 78 -94 78z" />
<glyph unicode="&#xbf;" horiz-adv-x="470" d="M230 -238q-82 0 -139 40.5t-57 111.5q0 31 12 59t37 53t44 40t54 39q89 61 89 119q0 48 -56 48q-26 0 -43 -18t-17 -48q0 -16 5 -26l-18 -8q-11 18 -11 35q0 40 26.5 67.5t57.5 27.5q39 0 64.5 -21t25.5 -60q0 -30 -11.5 -51t-36.5 -48l-76 -82q-29 -32 -43.5 -60 t-14.5 -66q0 -53 29 -87.5t86 -34.5q46 0 81.5 24t35.5 54q0 23 -6 29q-5 4 -10 4q-7 0 -10 -1q-7 -2 -18 -2q-17 0 -26.5 11.5t-9.5 28.5q0 21 14 34.5t41 13.5q28 0 48.5 -23.5t20.5 -63.5q0 -59 -52.5 -99t-115.5 -40zM214 468q27 0 44.5 -17.5t17.5 -44.5t-17.5 -44.5 t-44.5 -17.5t-44.5 17.5t-17.5 44.5t17.5 44.5t44.5 17.5z" />
<glyph unicode="&#xa1;" horiz-adv-x="280" d="M128 300h24l16 -200q3 -39 18.5 -128t15.5 -138q0 -33 -17 -52.5t-45 -19.5t-45 19.5t-17 52.5q0 49 15.5 138t18.5 128zM140 468q27 0 44.5 -17.5t17.5 -44.5t-17.5 -44.5t-44.5 -17.5t-44.5 17.5t-17.5 44.5t17.5 44.5t44.5 17.5z" />
<glyph unicode="&#xac;" horiz-adv-x="580" d="M48 326v40h484v-206h-44v166h-440z" />
<glyph unicode="&#x221a;" horiz-adv-x="760" d="M34 289l-22 33l194 146l182 -458l246 852h126v-40h-93l-286 -979h-26l-212 527z" />
<glyph unicode="&#x192;" horiz-adv-x="580" d="M4 -238q-34 0 -55 23t-21 49q0 27 15 44.5t36 17.5q13 0 23 -9t10 -24q0 -17 -16 -31t-16 -23q0 -23 28 -23q16 0 30 5.5t32 22t35 53t32 91.5l128 470h-102l6 28h104l4 13q24 78 50 125q27 49 68.5 78.5t92.5 29.5q34 0 55 -23t21 -49q0 -27 -15 -44.5t-36 -17.5 q-13 0 -23 9t-10 24q0 18 16 31t16 23q0 23 -28 23q-16 0 -30 -5.5t-31.5 -22t-34.5 -52.5q-17 -35 -33 -92l-14 -50h112l-6 -28h-114l-118 -433q-18 -66 -50 -125q-27 -49 -68.5 -78.5t-92.5 -29.5z" />
<glyph unicode="&#x2248;" horiz-adv-x="924" d="M211 394q-51 0 -84.5 -31.5t-60.5 -82.5l-18 11q74 147 190 147q82 0 264 -73q161 -65 227 -65q51 0 84.5 31.5t60.5 82.5l18 -11q-74 -147 -190 -147q-82 0 -264 73q-161 65 -227 65zM211 218q-51 0 -84.5 -31.5t-60.5 -82.5l-18 11q74 147 190 147q82 0 264 -73 q161 -65 227 -65q51 0 84.5 31.5t60.5 82.5l18 -11q-74 -147 -190 -147q-82 0 -264 73q-161 65 -227 65z" />
<glyph unicode="&#x394;" horiz-adv-x="640" d="M110 84h370l-184 490zM54 0v32l259 680h25l274 -712h-558z" />
<glyph unicode="&#xab;" horiz-adv-x="480" d="M265 228q0 61 27.5 108.5t59.5 73.5l14 -14q-53 -67 -53 -168t53 -168l-14 -14q-32 26 -59.5 73.5t-27.5 108.5zM108 228q0 65 35.5 118t80.5 82l15 -15q-75 -67 -75 -185t75 -185l-15 -15q-45 29 -80.5 82t-35.5 118z" />
<glyph unicode="&#xbb;" horiz-adv-x="480" d="M372 228q0 -65 -35.5 -118t-80.5 -82l-15 15q75 67 75 185t-75 185l15 15q45 -29 80.5 -82t35.5 -118zM215 228q0 -61 -27.5 -108.5t-59.5 -73.5l-14 14q53 67 53 168t-53 168l14 14q32 -26 59.5 -73.5t27.5 -108.5z" />
<glyph unicode="&#x2026;" horiz-adv-x="840" d="M700 -12q-27 0 -44.5 17.5t-17.5 44.5t17.5 44.5t44.5 17.5t44.5 -17.5t17.5 -44.5t-17.5 -44.5t-44.5 -17.5zM420 -12q-27 0 -44.5 17.5t-17.5 44.5t17.5 44.5t44.5 17.5t44.5 -17.5t17.5 -44.5t-17.5 -44.5t-44.5 -17.5zM140 -12q-27 0 -44.5 17.5t-17.5 44.5 t17.5 44.5t44.5 17.5t44.5 -17.5t17.5 -44.5t-17.5 -44.5t-44.5 -17.5z" />
<glyph unicode="&#xc0;" horiz-adv-x="764" d="M280 938q26 0 49 -32l92 -133l-13 -11l-128 101q-28 21 -28 44q0 31 28 31zM266 246h205l-104 303zM46 0v32h37q58 0 84 73l217 607h25l217 -636q18 -44 60 -44h56v-32h-310v32h66q15 0 25 7.5t10 17.5q0 13 -4 22l-45 131h-231l-23 -65q-14 -40 -14 -60q0 -21 11.5 -37 t39.5 -16h53v-32h-274z" />
<glyph unicode="&#xc3;" horiz-adv-x="764" d="M470 810q-32 0 -85 20t-77 20q-29 0 -36 -40h-22q0 39 21 66.5t59 27.5q32 0 85 -20t77 -20q29 0 36 40h22q0 -39 -21 -66.5t-59 -27.5zM266 246h205l-104 303zM46 0v32h37q58 0 84 73l217 607h25l217 -636q18 -44 60 -44h56v-32h-310v32h66q15 0 25 7.5t10 17.5 q0 13 -4 22l-45 131h-231l-23 -65q-14 -40 -14 -60q0 -21 11.5 -37t39.5 -16h53v-32h-274z" />
<glyph unicode="&#xd5;" horiz-adv-x="700" d="M434 810q-32 0 -85 20t-77 20q-29 0 -36 -40h-22q0 39 21 66.5t59 27.5q32 0 85 -20t77 -20q29 0 36 40h22q0 -39 -21 -66.5t-59 -27.5zM360 -18q-84 0 -151.5 54.5t-103 139.5t-35.5 180t35.5 180t103 139.5t151.5 54.5t151.5 -54.5t103 -139.5t35.5 -180t-35.5 -180 t-103 -139.5t-151.5 -54.5zM360 14q184 0 184 342t-184 342t-184 -342t184 -342z" />
<glyph unicode="&#x152;" horiz-adv-x="1048" d="M360 -18q-126 0 -208 113t-82 261t82 261t208 113q16 0 59 -9t99 -9h460l4 -226h-25l-1 20q-2 21 -12 55t-28 61q-38 58 -117 58h-161q-27 0 -27 -27v-273h88q27 0 45 12.5t25 35.5t9.5 43t2.5 47h26v-313h-26q0 28 -2 47.5t-9.5 43t-25.5 36t-45 12.5h-88v-285 q0 -27 27 -27h161q27 0 58.5 12.5t51.5 39.5q20 28 34 74t18 78l4 32h25l-12 -268h-459q-57 0 -100 -9t-59 -9zM360 14q76 0 117.5 45t41.5 122v349q0 168 -159 168q-184 0 -184 -342t184 -342z" />
<glyph unicode="&#x153;" horiz-adv-x="758" d="M240 -12q-83 0 -137.5 70t-54.5 170t54.5 170t137.5 70q45 0 85 -23.5t64 -61.5h2q52 85 143 85q44 0 79.5 -22.5t55.5 -59t30.5 -78.5t10.5 -84h-276q0 -102 25 -157t89 -55q20 0 38.5 6.5t37.5 21t33 44.5t19 72h24q-6 -74 -45 -121t-109 -47q-50 0 -92 22.5t-64 61.5 h-2q-24 -39 -63.5 -61.5t-84.5 -22.5zM624 252q0 78 -22.5 135t-71.5 57t-72.5 -57.5t-23.5 -134.5h190zM240 12q30 0 52 20t33 54t16 69t5 73t-5 73t-16 69t-33 54t-52 20t-51.5 -20t-32.5 -54t-15.5 -69t-4.5 -73t4.5 -73t15.5 -69t32.5 -54t51.5 -20z" />
<glyph unicode="&#x2013;" horiz-adv-x="620" d="M60 244v36h500v-36h-500z" />
<glyph unicode="&#x2014;" horiz-adv-x="1000" d="M60 234v36h880v-36h-880z" />
<glyph unicode="&#x201c;" horiz-adv-x="466" d="M394 480q0 -27 -18 -42.5t-40 -15.5q-39 0 -61 32q-19 26 -19 71q0 62 31 117.5t75 87.5l14 -16q-37 -28 -60.5 -68t-23.5 -80q0 -20 18 -30q6 -4 34 -4q22 0 36 -15.5t14 -36.5zM208 480q0 -27 -18 -42.5t-40 -15.5q-39 0 -61 32q-19 26 -19 71q0 62 31 117.5t75 87.5 l14 -16q-37 -28 -60.5 -68t-23.5 -80q0 -20 18 -30q6 -4 34 -4q22 0 36 -15.5t14 -36.5z" />
<glyph unicode="&#x201d;" horiz-adv-x="466" d="M258 672q0 27 18 42.5t40 15.5q39 0 61 -32q19 -26 19 -71q0 -62 -31 -117.5t-75 -87.5l-14 16q37 28 60.5 68t23.5 80q0 20 -18 30q-6 4 -34 4q-22 0 -36 15.5t-14 36.5zM72 672q0 27 18 42.5t40 15.5q39 0 61 -32q19 -26 19 -71q0 -62 -31 -117.5t-75 -87.5l-14 16 q37 28 60.5 68t23.5 80q0 20 -18 30q-6 4 -34 4q-22 0 -36 15.5t-14 36.5z" />
<glyph unicode="&#x2018;" horiz-adv-x="280" d="M208 480q0 -27 -18 -42.5t-40 -15.5q-39 0 -61 32q-19 26 -19 71q0 62 31 117.5t75 87.5l14 -16q-37 -28 -60.5 -68t-23.5 -80q0 -20 18 -30q6 -4 34 -4q22 0 36 -15.5t14 -36.5z" />
<glyph unicode="&#x2019;" horiz-adv-x="280" d="M72 672q0 27 18 42.5t40 15.5q39 0 61 -32q19 -26 19 -71q0 -62 -31 -117.5t-75 -87.5l-14 16q37 28 60.5 68t23.5 80q0 20 -18 30q-6 4 -34 4q-22 0 -36 15.5t-14 36.5z" />
<glyph unicode="&#xf7;" horiz-adv-x="940" d="M48 244v40h844v-40h-844zM470 -56q-27 0 -44.5 17.5t-17.5 44.5t17.5 44.5t44.5 17.5t44.5 -17.5t17.5 -44.5t-17.5 -44.5t-44.5 -17.5zM470 456q-27 0 -44.5 17.5t-17.5 44.5t17.5 44.5t44.5 17.5t44.5 -17.5t17.5 -44.5t-17.5 -44.5t-44.5 -17.5z" />
<glyph unicode="&#x25ca;" horiz-adv-x="552" d="M276 46l174 310l-174 310l-174 -310zM264 -18l-216 374l216 374h24l216 -374l-216 -374h-24z" />
<glyph unicode="&#xff;" horiz-adv-x="530" d="M370 648q22 0 37 -15t15 -37t-15 -37t-37 -15t-37 15t-15 37t15 37t37 15zM182 648q22 0 37 -15t15 -37t-15 -37t-37 -15t-37 15t-15 37t15 37t37 15zM134 -238q-39 0 -64 25q-28 26 -28 63q0 28 16 42q15 15 34 15q23 0 34.5 -14.5t11.5 -36.5q0 -12 -8 -28 q-6 -10 -6 -19q0 -15 20 -15q30 0 50.5 23.5t30.5 55.5l27 87l-142 413q-8 22 -13.5 32.5t-17 18.5t-28.5 8h-33v24h226v-24h-32q-12 0 -22 -6.5t-10 -17.5q0 -17 6 -33l104 -307l83 274q11 31 11 51q0 17 -10 28t-26 11h-24v24h182v-24h-23q-49 0 -69 -59l-161 -512 q-11 -37 -42 -68t-77 -31z" />
<glyph unicode="&#x178;" horiz-adv-x="728" d="M494 902q22 0 37 -15t15 -37t-15 -37t-37 -15t-37 15t-15 37t15 37t37 15zM290 902q22 0 37 -15t15 -37t-15 -37t-37 -15t-37 15t-15 37t15 37t37 15zM224 0v32h96q27 0 27 27v259l-194 318q-15 26 -27 35t-32 9h-52v32h310v-32h-56q-15 0 -25 -7t-10 -18q0 -15 5 -22 l154 -267l102 196q5 7 11 28t6 33q0 24 -13.5 40.5t-41.5 16.5h-30v32h248v-32h-29q-24 0 -43 -13.5t-27 -25t-21 -34.5l-143 -272v-276q0 -27 27 -27h96v-32h-338z" />
<glyph unicode="&#x2044;" horiz-adv-x="82" d="M-88 -198h-40l298 928h40z" />
<glyph unicode="&#x20ac;" horiz-adv-x="580" d="M34 286l6 32h31q-1 7 -1 23q0 22 1 33h-37l6 32h34q17 127 89.5 210.5t174.5 83.5q62 0 118 -46q27 -21 37 -21q12 0 17 17l11 43h23v-220h-24q-21 86 -71 140.5t-111 54.5q-71 0 -112 -69t-47 -193h246l-7 -32h-241q-1 -14 -1 -33q0 -13 1 -23h231l-6 -32h-224 q0 -116 47.5 -193t125.5 -77q67 0 109 45t55 110h26q-6 -34 -19.5 -64.5t-35 -59.5t-57 -46t-78.5 -17q-118 0 -192 84.5t-86 217.5h-39z" />
<glyph unicode="&#x2039;" horiz-adv-x="330" d="M108 228q0 65 35.5 118t80.5 82l15 -15q-75 -67 -75 -185t75 -185l-15 -15q-45 29 -80.5 82t-35.5 118z" />
<glyph unicode="&#x203a;" horiz-adv-x="330" d="M222 228q0 -65 -35.5 -118t-80.5 -82l-15 15q75 67 75 185t-75 185l15 15q45 -29 80.5 -82t35.5 -118z" />
<glyph unicode="&#x2021;" horiz-adv-x="540" d="M269 730q25 0 40.5 -19t15.5 -45q0 -24 -19.5 -77.5t-22.5 -81.5q28 3 80.5 23t76.5 20q26 0 45.5 -15.5t19.5 -40.5t-19.5 -40.5t-45.5 -15.5q-24 0 -77 20t-80 23q6 -64 46 -100q-16 -14 -31 -45.5t-15 -54.5t15 -54.5t31 -45.5q-40 -36 -46 -100q28 3 80.5 23t76.5 20 q26 0 45.5 -15.5t19.5 -40.5t-19.5 -40.5t-45.5 -15.5q-23 0 -76 20t-81 23q3 -28 23.5 -81.5t20.5 -77.5q0 -26 -15.5 -45t-40.5 -19t-40.5 19t-15.5 45q0 24 19.5 77.5t22.5 81.5q-28 -3 -80.5 -23t-76.5 -20q-26 0 -45.5 15.5t-19.5 40.5t19.5 40.5t45.5 15.5 q24 0 77 -20t80 -23q-6 64 -46 100q16 14 31 45.5t15 54.5t-15 54.5t-31 45.5q40 36 46 100q-28 -3 -80.5 -23t-76.5 -20q-26 0 -45.5 15.5t-19.5 40.5t19.5 40.5t45.5 15.5q23 0 76 -20t81 -23q-3 28 -23.5 81.5t-20.5 77.5q0 26 15.5 45t40.5 19z" />
<glyph unicode="&#xb7;" horiz-adv-x="280" d="M140 254q-27 0 -44.5 17.5t-17.5 44.5t17.5 44.5t44.5 17.5t44.5 -17.5t17.5 -44.5t-17.5 -44.5t-44.5 -17.5z" />
<glyph unicode="&#x201a;" horiz-adv-x="280" d="M72 82q0 27 18 42.5t40 15.5q39 0 61 -32q19 -26 19 -71q0 -62 -31 -117.5t-75 -87.5l-14 16q37 28 60.5 68t23.5 80q0 20 -18 30q-6 4 -34 4q-22 0 -36 15.5t-14 36.5z" />
<glyph unicode="&#x201e;" horiz-adv-x="466" d="M258 82q0 27 18 42.5t40 15.5q39 0 61 -32q19 -26 19 -71q0 -62 -31 -117.5t-75 -87.5l-14 16q37 28 60.5 68t23.5 80q0 20 -18 30q-6 4 -34 4q-22 0 -36 15.5t-14 36.5zM72 82q0 27 18 42.5t40 15.5q39 0 61 -32q19 -26 19 -71q0 -62 -31 -117.5t-75 -87.5l-14 16 q37 28 60.5 68t23.5 80q0 20 -18 30q-6 4 -34 4q-22 0 -36 15.5t-14 36.5z" />
<glyph unicode="&#x2030;" horiz-adv-x="1220" d="M624 702h36l-426 -720h-36zM230 362q30 0 47 24t21 55t4 79t-4 79.5t-21 56t-47 24.5q-23 0 -38 -12.5t-21.5 -37.5t-8.5 -49.5t-2 -60.5t2 -60t8.5 -48.5t21.5 -37t38 -12.5zM230 342q-58 0 -96 50.5t-38 127.5t38 128.5t96 51.5t97 -51.5t39 -128.5t-39 -127.5 t-97 -50.5zM628 4q30 0 47 24t21 55t4 79t-4 79.5t-21 56t-47 24.5q-23 0 -38 -12.5t-21.5 -37.5t-8.5 -49.5t-2 -60.5t2 -60t8.5 -48.5t21.5 -37t38 -12.5zM628 -16q-58 0 -96 50.5t-38 127.5t38 128.5t96 51.5t97 -51.5t39 -128.5t-39 -127.5t-97 -50.5zM988 4q30 0 47 24 t21 55t4 79t-4 79.5t-21 56t-47 24.5q-23 0 -38 -12.5t-21.5 -37.5t-8.5 -49.5t-2 -60.5t2 -60t8.5 -48.5t21.5 -37t38 -12.5zM988 -16q-58 0 -96 50.5t-38 127.5t38 128.5t96 51.5t97 -51.5t39 -128.5t-39 -127.5t-97 -50.5z" />
<glyph unicode="&#xc2;" horiz-adv-x="764" d="M416 920q47 -90 138 -142l-10 -16q-26 9 -71.5 38.5t-76.5 57.5q-31 -28 -76.5 -57.5t-71.5 -38.5l-10 16q91 52 138 142h40zM266 246h205l-104 303zM46 0v32h37q58 0 84 73l217 607h25l217 -636q18 -44 60 -44h56v-32h-310v32h66q15 0 25 7.5t10 17.5q0 13 -4 22 l-45 131h-231l-23 -65q-14 -40 -14 -60q0 -21 11.5 -37t39.5 -16h53v-32h-274z" />
<glyph unicode="&#xca;" horiz-adv-x="690" d="M388 920q47 -90 138 -142l-10 -16q-26 9 -71.5 38.5t-76.5 57.5q-31 -28 -76.5 -57.5t-71.5 -38.5l-10 16q91 52 138 142h40zM62 0v32h72q27 0 27 27v594q0 27 -27 27h-72v32h558l4 -226h-25l-1 20q-2 21 -12 55t-28 61q-38 58 -117 58h-161q-27 0 -27 -27v-273h88 q27 0 45 12.5t25 35.5t9.5 43t2.5 47h26v-313h-26q0 28 -2 47.5t-9.5 43t-25.5 36t-45 12.5h-88v-285q0 -27 27 -27h160q27 0 58.5 12.5t51.5 38.5q20 28 34.5 74t18.5 79l4 32h25l-12 -268h-558z" />
<glyph unicode="&#xc1;" horiz-adv-x="764" d="M512 938q28 0 28 -31q0 -23 -28 -44l-128 -101l-13 11l92 133q23 32 49 32zM266 246h205l-104 303zM46 0v32h37q58 0 84 73l217 607h25l217 -636q18 -44 60 -44h56v-32h-310v32h66q15 0 25 7.5t10 17.5q0 13 -4 22l-45 131h-231l-23 -65q-14 -40 -14 -60q0 -21 11.5 -37 t39.5 -16h53v-32h-274z" />
<glyph unicode="&#xcb;" horiz-adv-x="690" d="M470 902q22 0 37 -15t15 -37t-15 -37t-37 -15t-37 15t-15 37t15 37t37 15zM266 902q22 0 37 -15t15 -37t-15 -37t-37 -15t-37 15t-15 37t15 37t37 15zM62 0v32h72q27 0 27 27v594q0 27 -27 27h-72v32h558l4 -226h-25l-1 20q-2 21 -12 55t-28 61q-38 58 -117 58h-161 q-27 0 -27 -27v-273h88q27 0 45 12.5t25 35.5t9.5 43t2.5 47h26v-313h-26q0 28 -2 47.5t-9.5 43t-25.5 36t-45 12.5h-88v-285q0 -27 27 -27h160q27 0 58.5 12.5t51.5 38.5q20 28 34.5 74t18.5 79l4 32h25l-12 -268h-558z" />
<glyph unicode="&#xc8;" horiz-adv-x="690" d="M252 938q26 0 49 -32l92 -133l-13 -11l-128 101q-28 21 -28 44q0 31 28 31zM62 0v32h72q27 0 27 27v594q0 27 -27 27h-72v32h558l4 -226h-25l-1 20q-2 21 -12 55t-28 61q-38 58 -117 58h-161q-27 0 -27 -27v-273h88q27 0 45 12.5t25 35.5t9.5 43t2.5 47h26v-313h-26 q0 28 -2 47.5t-9.5 43t-25.5 36t-45 12.5h-88v-285q0 -27 27 -27h160q27 0 58.5 12.5t51.5 38.5q20 28 34.5 74t18.5 79l4 32h25l-12 -268h-558z" />
<glyph unicode="&#xcd;" horiz-adv-x="394" d="M324 938q28 0 28 -31q0 -23 -28 -44l-128 -101l-13 11l92 133q23 32 49 32zM62 0v32h72q27 0 27 27v594q0 27 -27 27h-72v32h290v-32h-72q-27 0 -27 -27v-594q0 -27 27 -27h72v-32h-290z" />
<glyph unicode="&#xce;" horiz-adv-x="394" d="M228 920q47 -90 138 -142l-10 -16q-26 9 -71.5 38.5t-76.5 57.5q-31 -28 -76.5 -57.5t-71.5 -38.5l-10 16q91 52 138 142h40zM62 0v32h72q27 0 27 27v594q0 27 -27 27h-72v32h290v-32h-72q-27 0 -27 -27v-594q0 -27 27 -27h72v-32h-290z" />
<glyph unicode="&#xcf;" horiz-adv-x="394" d="M310 902q22 0 37 -15t15 -37t-15 -37t-37 -15t-37 15t-15 37t15 37t37 15zM106 902q22 0 37 -15t15 -37t-15 -37t-37 -15t-37 15t-15 37t15 37t37 15zM62 0v32h72q27 0 27 27v594q0 27 -27 27h-72v32h290v-32h-72q-27 0 -27 -27v-594q0 -27 27 -27h72v-32h-290z" />
<glyph unicode="&#xcc;" horiz-adv-x="394" d="M92 938q26 0 49 -32l92 -133l-13 -11l-128 101q-28 21 -28 44q0 31 28 31zM62 0v32h72q27 0 27 27v594q0 27 -27 27h-72v32h290v-32h-72q-27 0 -27 -27v-594q0 -27 27 -27h72v-32h-290z" />
<glyph unicode="&#xd3;" horiz-adv-x="700" d="M476 938q28 0 28 -31q0 -23 -28 -44l-128 -101l-13 11l92 133q23 32 49 32zM360 -18q-84 0 -151.5 54.5t-103 139.5t-35.5 180t35.5 180t103 139.5t151.5 54.5t151.5 -54.5t103 -139.5t35.5 -180t-35.5 -180t-103 -139.5t-151.5 -54.5zM360 14q184 0 184 342t-184 342 t-184 -342t184 -342z" />
<glyph unicode="&#xd4;" horiz-adv-x="700" d="M380 920q47 -90 138 -142l-10 -16q-26 9 -71.5 38.5t-76.5 57.5q-31 -28 -76.5 -57.5t-71.5 -38.5l-10 16q91 52 138 142h40zM360 -18q-84 0 -151.5 54.5t-103 139.5t-35.5 180t35.5 180t103 139.5t151.5 54.5t151.5 -54.5t103 -139.5t35.5 -180t-35.5 -180t-103 -139.5 t-151.5 -54.5zM360 14q184 0 184 342t-184 342t-184 -342t184 -342z" />
<glyph unicode="&#xd2;" horiz-adv-x="700" d="M244 938q26 0 49 -32l92 -133l-13 -11l-128 101q-28 21 -28 44q0 31 28 31zM360 -18q-84 0 -151.5 54.5t-103 139.5t-35.5 180t35.5 180t103 139.5t151.5 54.5t151.5 -54.5t103 -139.5t35.5 -180t-35.5 -180t-103 -139.5t-151.5 -54.5zM360 14q184 0 184 342t-184 342 t-184 -342t184 -342z" />
<glyph unicode="&#xda;" horiz-adv-x="804" d="M538 938q28 0 28 -31q0 -23 -28 -44l-128 -101l-13 11l92 133q23 32 49 32zM424 -18q-69 0 -121 21.5t-82 58t-45 81t-15 94.5v416q0 27 -27 27h-72v32h291v-32h-73q-27 0 -27 -27v-443q0 -93 45 -144.5t126 -51.5q94 0 146.5 53.5t52.5 130.5v401q0 37 -18 59t-46 22 h-35v32h238v-32h-35q-28 0 -46 -22t-18 -59v-391q0 -97 -64.5 -161.5t-174.5 -64.5z" />
<glyph unicode="&#xdb;" horiz-adv-x="804" d="M442 920q47 -90 138 -142l-10 -16q-26 9 -71.5 38.5t-76.5 57.5q-31 -28 -76.5 -57.5t-71.5 -38.5l-10 16q91 52 138 142h40zM424 -18q-69 0 -121 21.5t-82 58t-45 81t-15 94.5v416q0 27 -27 27h-72v32h291v-32h-73q-27 0 -27 -27v-443q0 -93 45 -144.5t126 -51.5 q94 0 146.5 53.5t52.5 130.5v401q0 37 -18 59t-46 22h-35v32h238v-32h-35q-28 0 -46 -22t-18 -59v-391q0 -97 -64.5 -161.5t-174.5 -64.5z" />
<glyph unicode="&#xd9;" horiz-adv-x="804" d="M306 938q26 0 49 -32l92 -133l-13 -11l-128 101q-28 21 -28 44q0 31 28 31zM424 -18q-69 0 -121 21.5t-82 58t-45 81t-15 94.5v416q0 27 -27 27h-72v32h291v-32h-73q-27 0 -27 -27v-443q0 -93 45 -144.5t126 -51.5q94 0 146.5 53.5t52.5 130.5v401q0 37 -18 59t-46 22 h-35v32h238v-32h-35q-28 0 -46 -22t-18 -59v-391q0 -97 -64.5 -161.5t-174.5 -64.5z" />
<glyph unicode="&#x131;" horiz-adv-x="270" d="M38 0v24h42q22 0 22 22v364q0 22 -22 22h-42v24h136v-410q0 -22 22 -22h42v-24h-200z" />
<glyph unicode="&#x2c6;" horiz-adv-x="440" d="M240 672q36 -103 111 -151l-9 -13q-68 35 -122 92q-54 -57 -122 -92l-9 13q75 48 111 151h40z" />
<glyph unicode="&#x2dc;" horiz-adv-x="440" d="M278 556q-32 0 -73 20t-65 20q-29 0 -36 -40h-22q0 39 21 66.5t59 27.5q32 0 73 -20t65 -20q29 0 36 40h22q0 -39 -21 -66.5t-59 -27.5z" />
<glyph unicode="&#x2c9;" horiz-adv-x="440" d="M90 612h260v-40h-260v40z" />
<glyph unicode="&#xaf;" horiz-adv-x="440" d="M90 612h260v-40h-260v40z" />
<glyph unicode="&#x2d8;" horiz-adv-x="440" d="M220 526q-65 0 -101.5 47.5t-36.5 92.5h22q6 -40 33.5 -70t82.5 -30t82.5 30t33.5 70h22q0 -45 -36.5 -92.5t-101.5 -47.5z" />
<glyph unicode="&#x2d9;" horiz-adv-x="440" d="M220 544q-22 0 -37 15t-15 37t15 37t37 15t37 -15t15 -37t-15 -37t-37 -15z" />
<glyph unicode="&#x2da;" horiz-adv-x="440" d="M220 500q-40 0 -68.5 28.5t-28.5 69.5q0 40 28 68t69 28t69 -28t28 -68q0 -41 -28.5 -69.5t-68.5 -28.5zM220 524q31 0 52 21t21 53q0 31 -20.5 51.5t-52.5 20.5t-52.5 -20.5t-20.5 -51.5q0 -32 21 -53t52 -21z" />
<glyph unicode="&#xb8;" horiz-adv-x="440" d="M114 -176l12 16q11 -9 26.5 -16.5t35.5 -7.5q27 0 44.5 12.5t17.5 38.5q0 27 -10 39q-11 13 -34 18l-34 7l24 69h25l-18 -53l24 -5q41 -9 64 -29.5t23 -54.5q0 -30 -29 -50t-85 -20q-23 0 -47.5 11t-38.5 25z" />
<glyph unicode="&#x2dd;" horiz-adv-x="440" d="M404 684q28 0 28 -31q0 -23 -28 -44l-128 -101l-13 11l92 133q23 32 49 32zM268 684q28 0 28 -31q0 -23 -28 -44l-128 -101l-13 11l92 133q23 32 49 32z" />
<glyph unicode="&#x2db;" horiz-adv-x="440" d="M88 -142q0 32 23 63t47.5 50t63.5 43l10 -14q-45 -33 -66.5 -62.5t-21.5 -66.5q0 -47 44 -47q29 0 58 34l14 -10q-37 -68 -93 -68q-33 0 -56 21.5t-23 56.5z" />
<glyph unicode="&#x2c7;" horiz-adv-x="440" d="M88 661l13 11l119 -100l119 100l13 -11l-112 -153h-40z" />
<glyph unicode="&#xa4;" horiz-adv-x="580" d="M290 162q78 0 129 51t51 129t-51 130t-129 52t-129 -52t-51 -130t51 -129t129 -51zM290 122q-79 0 -140 50l-67 -67l-31 31l67 67q-49 60 -49 139t50 140l-68 68l31 31l67 -67q61 50 140 50t140 -50l67 67l31 -31l-68 -68q50 -61 50 -140t-49 -139l67 -67l-31 -31l-67 67 q-61 -50 -140 -50z" />
<glyph unicode="&#xa6;" horiz-adv-x="284" d="M120 -168v360h44v-360h-44zM120 370v360h44v-360h-44z" />
<glyph unicode="&#xad;" horiz-adv-x="370" d="M60 280h250v-56h-250v56z" />
<glyph unicode="&#xb2;" horiz-adv-x="440" d="M345 280h-255q0 21 2.5 36.5t20 44t51.5 54.5l63 49q59 47 59 117q0 41 -24 68t-68 27q-32 0 -56 -18t-24 -43t27 -30q37 -5 37 -36q0 -12 -9 -19.5t-25 -7.5q-27 0 -44.5 19.5t-17.5 51.5q0 46 37 76.5t93 30.5q65 0 105.5 -31.5t40.5 -85.5q0 -63 -101 -130l-64 -43 q-55 -37 -55 -60q0 -14 20 -14h122q27 0 36.5 7t14.5 26l9 36h14z" />
<glyph unicode="&#xb3;" horiz-adv-x="440" d="M235 700q60 0 96.5 -29t36.5 -77q0 -36 -26 -61t-58 -32v-5q36 -5 69 -33.5t33 -71.5q0 -55 -46.5 -88t-114.5 -33q-51 0 -84 22.5t-33 63.5q0 22 14 37t36 15q41 0 41 -34q0 -13 -8 -22.5t-22 -9.5q-25 0 -25 -10q0 -38 81 -38q48 0 68.5 28t20.5 69q0 49 -21.5 73 t-54.5 24q-19 0 -39 -8q-12 -6 -27 -6q-25 0 -25 20t25 20q15 0 28 -4q14 -4 40 -4q31 0 47.5 25t16.5 59q0 39 -19 62t-57 23q-66 0 -66 -39q0 -12 16 -19q23 -9 23 -29q0 -29 -35 -29q-20 0 -34 14.5t-14 32.5q0 43 34.5 68.5t82.5 25.5z" />
<glyph unicode="&#xb9;" horiz-adv-x="448" d="M112 278v24h63q17 0 17 15v277h-80v28h40q35 0 55.5 20.5t26.5 47.5h22v-373q0 -15 17 -15h63v-24h-224z" />
<glyph unicode="&#xbc;" horiz-adv-x="860" d="M648 349l-126 -203h126v203zM576 -2v24h55q17 0 17 15v81h-154v28l166 264h52v-264h72v-28h-72v-81q0 -15 17 -15h55v-24h-208zM112 278v24h63q17 0 17 15v277h-80v28h40q35 0 55.5 20.5t26.5 47.5h22v-373q0 -15 17 -15h63v-24h-224zM244 -18h-36l426 720h36z" />
<glyph unicode="&#xbd;" horiz-adv-x="860" d="M765 0h-255q0 21 2.5 36.5t20 44t51.5 54.5l63 49q59 47 59 117q0 41 -24 68t-68 27q-32 0 -56 -18t-24 -43t27 -30q37 -5 37 -36q0 -12 -9 -19.5t-25 -7.5q-27 0 -44.5 19.5t-17.5 51.5q0 46 37 76.5t93 30.5q65 0 105.5 -31.5t40.5 -85.5q0 -63 -101 -130l-64 -43 q-55 -37 -55 -60q0 -14 20 -14h122q27 0 36.5 7t14.5 26l9 36h14zM112 278v24h63q17 0 17 15v277h-80v28h40q35 0 55.5 20.5t26.5 47.5h22v-373q0 -15 17 -15h63v-24h-224zM244 -18h-36l426 720h36z" />
<glyph unicode="&#xbe;" horiz-adv-x="860" d="M648 349l-126 -203h126v203zM576 -2v24h55q17 0 17 15v81h-154v28l166 264h52v-264h72v-28h-72v-81q0 -15 17 -15h55v-24h-208zM235 700q60 0 96.5 -29t36.5 -77q0 -36 -26 -61t-58 -32v-5q36 -5 69 -33.5t33 -71.5q0 -55 -46.5 -88t-114.5 -33q-51 0 -84 22.5t-33 63.5 q0 22 14 37t36 15q41 0 41 -34q0 -13 -8 -22.5t-22 -9.5q-25 0 -25 -10q0 -38 81 -38q48 0 68.5 28t20.5 69q0 49 -21.5 73t-54.5 24q-19 0 -39 -8q-12 -6 -27 -6q-25 0 -25 20t25 20q15 0 28 -4q14 -4 40 -4q31 0 47.5 25t16.5 59q0 39 -19 62t-57 23q-66 0 -66 -39 q0 -12 16 -19q23 -9 23 -29q0 -29 -35 -29q-20 0 -34 14.5t-14 32.5q0 43 34.5 68.5t82.5 25.5zM244 -18h-36l426 720h36z" />
<glyph unicode="&#x110;" horiz-adv-x="768" d="M62 0v32h72q27 0 27 27v297h-93v36h93v261q0 27 -27 27h-72v32h366q127 0 214.5 -98.5t87.5 -251.5q0 -154 -88 -258t-214 -104h-366zM624 362q0 85 -18 153.5t-64.5 116.5t-117.5 48h-144q-27 0 -27 -27v-261h115v-36h-115v-297q0 -27 27 -27h144q53 0 93.5 29t63 77.5 t33 104.5t10.5 119z" />
<glyph unicode="&#xd0;" horiz-adv-x="768" d="M62 0v32h72q27 0 27 27v297h-93v36h93v261q0 27 -27 27h-72v32h366q127 0 214.5 -98.5t87.5 -251.5q0 -154 -88 -258t-214 -104h-366zM624 362q0 85 -18 153.5t-64.5 116.5t-117.5 48h-144q-27 0 -27 -27v-261h115v-36h-115v-297q0 -27 27 -27h144q53 0 93.5 29t63 77.5 t33 104.5t10.5 119z" />
<glyph unicode="&#xd7;" horiz-adv-x="940" d="M188 -50l-32 32l283 282l-283 282l32 32l282 -283l282 283l32 -32l-283 -282l283 -282l-32 -32l-282 283z" />
<glyph unicode="&#xdd;" horiz-adv-x="728" d="M508 938q28 0 28 -31q0 -23 -28 -44l-128 -101l-13 11l92 133q23 32 49 32zM224 0v32h96q27 0 27 27v259l-194 318q-15 26 -27 35t-32 9h-52v32h310v-32h-56q-15 0 -25 -7t-10 -18q0 -15 5 -22l154 -267l102 196q5 7 11 28t6 33q0 24 -13.5 40.5t-41.5 16.5h-30v32h248 v-32h-29q-24 0 -43 -13.5t-27 -25t-21 -34.5l-143 -272v-276q0 -27 27 -27h96v-32h-338z" />
<glyph unicode="&#xde;" horiz-adv-x="680" d="M62 0v32h72q27 0 27 27v594q0 27 -27 27h-72v32h306v-32h-88q-27 0 -27 -27v-67h143q106 0 173 -51.5t67 -134.5t-67 -136.5t-173 -53.5h-143v-151q0 -27 27 -27h88v-32h-306zM253 242h156q54 0 87.5 46.5t33.5 111.5t-33 109.5t-88 44.5h-129q-27 0 -27 -27v-285z" />
<glyph unicode="&#xf0;" horiz-adv-x="500" d="M248 12q112 0 112 216t-112 216t-112 -216t112 -216zM248 -12q-84 0 -142 70.5t-58 169.5t58 169.5t142 70.5q32 0 63 -12l3 4q-23 43 -84 120l-108 -67l-15 23l104 65q-45 57 -103 111h96q26 -23 67 -74l108 68l15 -23l-105 -66q35 -43 67 -92q92 -143 92 -267 q0 -127 -57.5 -198.5t-142.5 -71.5z" />
<glyph unicode="&#xfd;" horiz-adv-x="530" d="M392 684q28 0 28 -31q0 -23 -28 -44l-128 -101l-13 11l92 133q23 32 49 32zM134 -238q-39 0 -64 25q-28 26 -28 63q0 28 16 42q15 15 34 15q23 0 34.5 -14.5t11.5 -36.5q0 -12 -8 -28q-6 -10 -6 -19q0 -15 20 -15q30 0 50.5 23.5t30.5 55.5l27 87l-142 413 q-8 22 -13.5 32.5t-17 18.5t-28.5 8h-33v24h226v-24h-32q-12 0 -22 -6.5t-10 -17.5q0 -17 6 -33l104 -307l83 274q11 31 11 51q0 17 -10 28t-26 11h-24v24h182v-24h-23q-49 0 -69 -59l-161 -512q-11 -37 -42 -68t-77 -31z" />
<glyph unicode="&#xfe;" horiz-adv-x="500" d="M364 334q0 90 -62 90q-45 0 -88.5 -62t-43.5 -130v-205q52 26 90 61q49 46 76.5 111t27.5 135zM36 -252l-10 24l52 22q20 9 20 28v786q0 18 -16 18q-7 0 -16 -4l-30 -11l-10 24l116 49h28v-332l6 -2q28 55 72 86.5t88 31.5q46 0 81 -29t35 -90q0 -68 -44 -140t-114 -131 q-56 -47 -124 -78v-199z" />
<glyph unicode="&#x100;" horiz-adv-x="764" d="M260 862h272v-40h-272v40zM266 246h205l-104 303zM46 0v32h37q58 0 84 73l217 607h25l217 -636q18 -44 60 -44h56v-32h-310v32h66q15 0 25 7.5t10 17.5q0 13 -4 22l-45 131h-231l-23 -65q-14 -40 -14 -60q0 -21 11.5 -37t39.5 -16h53v-32h-274z" />
<glyph unicode="&#x101;" horiz-adv-x="500" d="M98 612h260v-40h-260v40zM130 103q0 -79 62 -79q24 0 43.5 11.5t34 34t22 39t16.5 41.5v95l-87 -19q-48 -10 -69.5 -39.5t-21.5 -83.5zM46 106q0 31 12 55.5t27.5 38.5t42.5 25t43.5 15t44.5 9l92 17v85q0 93 -93 93q-34 0 -62 -17.5t-28 -39.5q0 -10 3 -15q4 -8 15 -10 q37 -10 37 -39q0 -39 -44 -39q-22 0 -40 17t-18 49q0 55 43 86.5t97 31.5q66 0 114 -34.5t48 -107.5v-246q0 -50 31 -50q47 0 47 100h18q0 -142 -80 -142q-85 0 -88 96l-5 2q-15 -35 -48.5 -66.5t-78.5 -31.5q-53 0 -91.5 26t-38.5 92z" />
<glyph unicode="&#x102;" horiz-adv-x="764" d="M396 762q-72 0 -111.5 50t-39.5 104h28q9 -42 40.5 -75t82.5 -33t82.5 33t40.5 75h28q0 -54 -39.5 -104t-111.5 -50zM266 246h205l-104 303zM46 0v32h37q58 0 84 73l217 607h25l217 -636q18 -44 60 -44h56v-32h-310v32h66q15 0 25 7.5t10 17.5q0 13 -4 22l-45 131h-231 l-23 -65q-14 -40 -14 -60q0 -21 11.5 -37t39.5 -16h53v-32h-274z" />
<glyph unicode="&#x103;" horiz-adv-x="500" d="M228 526q-65 0 -101.5 47.5t-36.5 92.5h22q6 -40 33.5 -70t82.5 -30t82.5 30t33.5 70h22q0 -45 -36.5 -92.5t-101.5 -47.5zM130 103q0 -79 62 -79q24 0 43.5 11.5t34 34t22 39t16.5 41.5v95l-87 -19q-48 -10 -69.5 -39.5t-21.5 -83.5zM46 106q0 31 12 55.5t27.5 38.5 t42.5 25t43.5 15t44.5 9l92 17v85q0 93 -93 93q-34 0 -62 -17.5t-28 -39.5q0 -10 3 -15q4 -8 15 -10q37 -10 37 -39q0 -39 -44 -39q-22 0 -40 17t-18 49q0 55 43 86.5t97 31.5q66 0 114 -34.5t48 -107.5v-246q0 -50 31 -50q47 0 47 100h18q0 -142 -80 -142q-85 0 -88 96 l-5 2q-15 -35 -48.5 -66.5t-78.5 -31.5q-53 0 -91.5 26t-38.5 92z" />
<glyph unicode="&#x104;" horiz-adv-x="764" d="M266 246h205l-104 303zM46 0v32h37q57 0 84 73l215 607h27l217 -636q18 -44 60 -44h56v-32h-126q-96 -48 -96 -135q0 -25 14 -42t38 -17q37 0 62 27l12 -9q-33 -62 -99 -62q-44 0 -69.5 24.5t-25.5 65.5q0 80 112 143l-2 5h-130v32h66q15 0 25 7.5t10 17.5q0 13 -4 22 l-45 131h-231l-23 -65q-14 -40 -14 -60q0 -21 11.5 -37t39.5 -16h53v-32h-274z" />
<glyph unicode="&#x105;" horiz-adv-x="500" d="M46 106q0 31 12 55.5t27.5 38.5t42.5 25t43.5 15t44.5 9l92 17v85q0 93 -93 93q-34 0 -62 -17.5t-28 -39.5q0 -10 3 -15q4 -8 15 -10q37 -10 37 -39q0 -39 -44 -39q-22 0 -40 17t-18 49q0 55 43 86.5t97 31.5q66 0 114 -34.5t48 -107.5v-246q0 -50 31 -50q47 0 47 100h18 q0 -119 -62 -142q-36 -14 -60 -46.5t-24 -70.5q0 -47 44 -47q29 0 58 34l14 -10q-37 -68 -93 -68q-33 0 -56 21.5t-23 56.5q0 67 98 130v2q-61 14 -64 94l-5 2q-15 -35 -48.5 -66.5t-78.5 -31.5q-53 0 -91.5 26t-38.5 92zM130 103q0 -79 62 -79q24 0 43.5 11.5t34 34t22 39 t16.5 41.5v95l-87 -19q-48 -10 -69.5 -39.5t-21.5 -83.5z" />
<glyph unicode="&#x106;" horiz-adv-x="670" d="M474 938q28 0 28 -31q0 -23 -28 -44l-128 -101l-13 11l92 133q23 32 49 32zM70 362q0 101 33 184t97 133.5t150 50.5q61 0 124 -46q16 -10 26 -19q16 -14 28 -14q8 0 11.5 4.5t8.5 17.5l17 49h25v-278h-25q-33 122 -92.5 188t-122.5 66q-42 0 -73 -16t-50 -43t-31 -71 t-16 -92.5t-4 -113.5t5 -115t18 -95.5t34 -74.5t54.5 -46t78.5 -17q50 0 89 21t62.5 57t36.5 78t16 89h36q-1 -22 -4.5 -45t-11.5 -50.5t-20 -52.5t-31 -49t-42.5 -41.5t-57 -28t-73.5 -10.5q-70 0 -127.5 33t-93.5 87t-55.5 121t-19.5 139z" />
<glyph unicode="&#x107;" horiz-adv-x="436" d="M364 684q28 0 28 -31q0 -23 -28 -44l-128 -101l-13 11l92 133q23 32 49 32zM244 -12q-87 0 -141.5 69.5t-54.5 170.5t55 170.5t141 69.5q68 0 109 -40.5t41 -90.5q0 -31 -16 -48.5t-39 -17.5q-20 0 -33.5 13t-13.5 31q0 35 34 46q16 5 16 18q0 20 -25 42.5t-73 22.5 q-63 0 -85.5 -54t-22.5 -162t22 -162t86 -54q61 0 94 43t40 101h24q-4 -65 -45 -116.5t-113 -51.5z" />
<glyph unicode="&#x108;" horiz-adv-x="670" d="M378 920q47 -90 138 -142l-10 -16q-26 9 -71.5 38.5t-76.5 57.5q-31 -28 -76.5 -57.5t-71.5 -38.5l-10 16q91 52 138 142h40zM70 362q0 101 33 184t97 133.5t150 50.5q61 0 124 -46q16 -10 26 -19q16 -14 28 -14q8 0 11.5 4.5t8.5 17.5l17 49h25v-278h-25 q-33 122 -92.5 188t-122.5 66q-42 0 -73 -16t-50 -43t-31 -71t-16 -92.5t-4 -113.5t5 -115t18 -95.5t34 -74.5t54.5 -46t78.5 -17q50 0 89 21t62.5 57t36.5 78t16 89h36q-1 -22 -4.5 -45t-11.5 -50.5t-20 -52.5t-31 -49t-42.5 -41.5t-57 -28t-73.5 -10.5q-70 0 -127.5 33 t-93.5 87t-55.5 121t-19.5 139z" />
<glyph unicode="&#x109;" horiz-adv-x="436" d="M268 672q36 -103 111 -151l-9 -13q-68 35 -122 92q-54 -57 -122 -92l-9 13q75 48 111 151h40zM244 -12q-87 0 -141.5 69.5t-54.5 170.5t55 170.5t141 69.5q68 0 109 -40.5t41 -90.5q0 -31 -16 -48.5t-39 -17.5q-20 0 -33.5 13t-13.5 31q0 35 34 46q16 5 16 18 q0 20 -25 42.5t-73 22.5q-63 0 -85.5 -54t-22.5 -162t22 -162t86 -54q61 0 94 43t40 101h24q-4 -65 -45 -116.5t-113 -51.5z" />
<glyph unicode="&#x10a;" horiz-adv-x="670" d="M358 798q-22 0 -37 15t-15 37t15 37t37 15t37 -15t15 -37t-15 -37t-37 -15zM70 362q0 101 33 184t97 133.5t150 50.5q61 0 124 -46q16 -10 26 -19q16 -14 28 -14q8 0 11.5 4.5t8.5 17.5l17 49h25v-278h-25q-33 122 -92.5 188t-122.5 66q-42 0 -73 -16t-50 -43t-31 -71 t-16 -92.5t-4 -113.5t5 -115t18 -95.5t34 -74.5t54.5 -46t78.5 -17q50 0 89 21t62.5 57t36.5 78t16 89h36q-1 -22 -4.5 -45t-11.5 -50.5t-20 -52.5t-31 -49t-42.5 -41.5t-57 -28t-73.5 -10.5q-70 0 -127.5 33t-93.5 87t-55.5 121t-19.5 139z" />
<glyph unicode="&#x10b;" horiz-adv-x="436" d="M248 544q-22 0 -37 15t-15 37t15 37t37 15t37 -15t15 -37t-15 -37t-37 -15zM244 -12q-87 0 -141.5 69.5t-54.5 170.5t55 170.5t141 69.5q68 0 109 -40.5t41 -90.5q0 -31 -16 -48.5t-39 -17.5q-20 0 -33.5 13t-13.5 31q0 35 34 46q16 5 16 18q0 20 -25 42.5t-73 22.5 q-63 0 -85.5 -54t-22.5 -162t22 -162t86 -54q61 0 94 43t40 101h24q-4 -65 -45 -116.5t-113 -51.5z" />
<glyph unicode="&#x10c;" horiz-adv-x="670" d="M198 906l12 14l148 -96l148 96l12 -14l-140 -144h-40zM70 362q0 101 33 184t97 133.5t150 50.5q61 0 124 -46q16 -10 26 -19q16 -14 28 -14q8 0 11.5 4.5t8.5 17.5l17 49h25v-278h-25q-33 122 -92.5 188t-122.5 66q-42 0 -73 -16t-50 -43t-31 -71t-16 -92.5t-4 -113.5 t5 -115t18 -95.5t34 -74.5t54.5 -46t78.5 -17q50 0 89 21t62.5 57t36.5 78t16 89h36q-1 -22 -4.5 -45t-11.5 -50.5t-20 -52.5t-31 -49t-42.5 -41.5t-57 -28t-73.5 -10.5q-70 0 -127.5 33t-93.5 87t-55.5 121t-19.5 139z" />
<glyph unicode="&#x10d;" horiz-adv-x="436" d="M116 661l13 11l119 -100l119 100l13 -11l-112 -153h-40zM244 -12q-87 0 -141.5 69.5t-54.5 170.5t55 170.5t141 69.5q68 0 109 -40.5t41 -90.5q0 -31 -16 -48.5t-39 -17.5q-20 0 -33.5 13t-13.5 31q0 35 34 46q16 5 16 18q0 20 -25 42.5t-73 22.5q-63 0 -85.5 -54 t-22.5 -162t22 -162t86 -54q61 0 94 43t40 101h24q-4 -65 -45 -116.5t-113 -51.5z" />
<glyph unicode="&#x10e;" horiz-adv-x="780" d="M208 906l12 14l148 -96l148 96l12 -14l-140 -144h-40zM62 0v32h72q27 0 27 27v594q0 27 -27 27h-72v32h366q127 0 214.5 -98.5t87.5 -251.5q0 -154 -88 -258t-214 -104h-366zM624 362q0 85 -18 153.5t-64.5 116.5t-117.5 48h-144q-27 0 -27 -27v-594q0 -27 27 -27h144 q53 0 93.5 29t63 77.5t33 104.5t10.5 119z" />
<glyph unicode="&#x10f;" horiz-adv-x="576" d="M464 676q0 20 12.5 32t31.5 12q26 0 43 -22t17 -54q0 -91 -98 -156l-10 12q32 22 54 51.5t22 56.5q0 11 -6 18q-7 8 -24 8q-18 0 -30 12.5t-12 29.5zM222 12q55 0 88.5 48t33.5 109v93q0 69 -37.5 125.5t-84.5 56.5q-48 0 -67 -56.5t-19 -159.5t19 -159.5t67 -56.5z M344 0v42l-5 3q-49 -57 -115 -57q-79 0 -127.5 69t-48.5 171t46.5 171t125.5 69q33 0 65.5 -22.5t52.5 -55.5l6 2v274q0 22 -22 22h-72v24h166v-666q0 -22 22 -22h52v-24h-146z" />
<glyph unicode="&#x111;" horiz-adv-x="522" d="M222 12q55 0 88.5 48t33.5 109v93q0 69 -37.5 125.5t-84.5 56.5q-48 0 -67 -56.5t-19 -159.5t19 -159.5t67 -56.5zM344 0v42l-5 3q-49 -57 -115 -57q-79 0 -127.5 69t-48.5 171t46.5 171t125.5 69q33 0 65.5 -22.5t52.5 -55.5l6 2v164h-184v28h184v82q0 22 -22 22h-72v24 h166v-128h74v-28h-74v-510q0 -22 22 -22h52v-24h-146z" />
<glyph unicode="&#x112;" horiz-adv-x="690" d="M232 862h272v-40h-272v40zM62 0v32h72q27 0 27 27v594q0 27 -27 27h-72v32h558l4 -226h-25l-1 20q-2 21 -12 55t-28 61q-38 58 -117 58h-161q-27 0 -27 -27v-273h88q27 0 45 12.5t25 35.5t9.5 43t2.5 47h26v-313h-26q0 28 -2 47.5t-9.5 43t-25.5 36t-45 12.5h-88v-285 q0 -27 27 -27h160q27 0 58.5 12.5t51.5 38.5q20 28 34.5 74t18.5 79l4 32h25l-12 -268h-558z" />
<glyph unicode="&#x113;" horiz-adv-x="460" d="M110 612h260v-40h-260v40zM136 252h190q0 36 -5 68t-15 61t-29 46t-45 17t-45 -17t-30 -46t-16 -61.5t-5 -67.5zM48 228q0 62 23 116t66.5 89t98.5 35q36 0 66 -15t50 -40t34 -57t20 -65t6 -67h-276q0 -49 5 -85.5t17 -66t35 -45t57 -15.5q20 0 38.5 6t38 21t33 45 t18.5 72h24q-6 -74 -45 -121t-109 -47q-90 0 -145 67t-55 173z" />
<glyph unicode="&#x114;" horiz-adv-x="690" d="M368 762q-72 0 -111.5 50t-39.5 104h28q9 -42 40.5 -75t82.5 -33t82.5 33t40.5 75h28q0 -54 -39.5 -104t-111.5 -50zM62 0v32h72q27 0 27 27v594q0 27 -27 27h-72v32h558l4 -226h-25l-1 20q-2 21 -12 55t-28 61q-38 58 -117 58h-161q-27 0 -27 -27v-273h88q27 0 45 12.5 t25 35.5t9.5 43t2.5 47h26v-313h-26q0 28 -2 47.5t-9.5 43t-25.5 36t-45 12.5h-88v-285q0 -27 27 -27h160q27 0 58.5 12.5t51.5 38.5q20 28 34.5 74t18.5 79l4 32h25l-12 -268h-558z" />
<glyph unicode="&#x115;" horiz-adv-x="460" d="M240 526q-65 0 -101.5 47.5t-36.5 92.5h22q6 -40 33.5 -70t82.5 -30t82.5 30t33.5 70h22q0 -45 -36.5 -92.5t-101.5 -47.5zM136 252h190q0 36 -5 68t-15 61t-29 46t-45 17t-45 -17t-30 -46t-16 -61.5t-5 -67.5zM48 228q0 62 23 116t66.5 89t98.5 35q36 0 66 -15t50 -40 t34 -57t20 -65t6 -67h-276q0 -49 5 -85.5t17 -66t35 -45t57 -15.5q20 0 38.5 6t38 21t33 45t18.5 72h24q-6 -74 -45 -121t-109 -47q-90 0 -145 67t-55 173z" />
<glyph unicode="&#x116;" horiz-adv-x="690" d="M368 798q-22 0 -37 15t-15 37t15 37t37 15t37 -15t15 -37t-15 -37t-37 -15zM62 0v32h72q27 0 27 27v594q0 27 -27 27h-72v32h558l4 -226h-25l-1 20q-2 21 -12 55t-28 61q-38 58 -117 58h-161q-27 0 -27 -27v-273h88q27 0 45 12.5t25 35.5t9.5 43t2.5 47h26v-313h-26 q0 28 -2 47.5t-9.5 43t-25.5 36t-45 12.5h-88v-285q0 -27 27 -27h160q27 0 58.5 12.5t51.5 38.5q20 28 34.5 74t18.5 79l4 32h25l-12 -268h-558z" />
<glyph unicode="&#x117;" horiz-adv-x="460" d="M240 544q-22 0 -37 15t-15 37t15 37t37 15t37 -15t15 -37t-15 -37t-37 -15zM136 252h190q0 36 -5 68t-15 61t-29 46t-45 17t-45 -17t-30 -46t-16 -61.5t-5 -67.5zM48 228q0 62 23 116t66.5 89t98.5 35q36 0 66 -15t50 -40t34 -57t20 -65t6 -67h-276q0 -49 5 -85.5t17 -66 t35 -45t57 -15.5q20 0 38.5 6t38 21t33 45t18.5 72h24q-6 -74 -45 -121t-109 -47q-90 0 -145 67t-55 173z" />
<glyph unicode="&#x118;" horiz-adv-x="690" d="M62 0v32h72q27 0 27 27v594q0 27 -27 27h-72v32h558l4 -226h-25l-1 20q-2 21 -12 55t-28 61q-38 58 -117 58h-161q-27 0 -27 -27v-273h88q27 0 45 12.5t25 35.5t9.5 43t2.5 47h26v-313h-26q0 28 -2 47.5t-9.5 43t-25.5 36t-45 12.5h-88v-285q0 -27 27 -27h160 q27 0 58.5 12.5t51.5 38.5q20 28 34.5 74t18.5 79l4 32h25l-12 -268h-92q-42 -21 -69 -55.5t-27 -79.5q0 -25 14 -42t38 -17q37 0 62 27l12 -9q-33 -62 -99 -62q-44 0 -69.5 24.5t-25.5 65.5q0 43 31.5 80t80.5 63l-2 5h-412z" />
<glyph unicode="&#x119;" horiz-adv-x="460" d="M136 252h190q0 36 -5 68t-15 61t-29 46t-45 17t-45 -17t-30 -46t-16 -61.5t-5 -67.5zM48 228q0 62 23 116t66.5 89t98.5 35q36 0 66 -15t50 -40t34 -57t20 -65t6 -67h-276q0 -49 5 -85.5t17 -66t35 -45t57 -15.5q20 0 38.5 6t38 21t33 45t18.5 72h24q-3 -46 -20 -82.5 t-47 -58.5q-33 -25 -52.5 -43t-35 -45t-15.5 -56q0 -22 11 -34.5t33 -12.5q18 0 31 8t27 26l14 -10q-15 -28 -39.5 -48t-53.5 -20q-33 0 -56 21.5t-23 56.5q0 62 91 129v2q-6 -1 -19 -1q-90 0 -145 67t-55 173z" />
<glyph unicode="&#x11a;" horiz-adv-x="690" d="M208 906l12 14l148 -96l148 96l12 -14l-140 -144h-40zM62 0v32h72q27 0 27 27v594q0 27 -27 27h-72v32h558l4 -226h-25l-1 20q-2 21 -12 55t-28 61q-38 58 -117 58h-161q-27 0 -27 -27v-273h88q27 0 45 12.5t25 35.5t9.5 43t2.5 47h26v-313h-26q0 28 -2 47.5t-9.5 43 t-25.5 36t-45 12.5h-88v-285q0 -27 27 -27h160q27 0 58.5 12.5t51.5 38.5q20 28 34.5 74t18.5 79l4 32h25l-12 -268h-558z" />
<glyph unicode="&#x11b;" horiz-adv-x="460" d="M108 661l13 11l119 -100l119 100l13 -11l-112 -153h-40zM136 252h190q0 36 -5 68t-15 61t-29 46t-45 17t-45 -17t-30 -46t-16 -61.5t-5 -67.5zM48 228q0 62 23 116t66.5 89t98.5 35q36 0 66 -15t50 -40t34 -57t20 -65t6 -67h-276q0 -49 5 -85.5t17 -66t35 -45t57 -15.5 q20 0 38.5 6t38 21t33 45t18.5 72h24q-6 -74 -45 -121t-109 -47q-90 0 -145 67t-55 173z" />
<glyph unicode="&#x11c;" horiz-adv-x="720" d="M378 920q47 -90 138 -142l-10 -16q-26 9 -71.5 38.5t-76.5 57.5q-31 -28 -76.5 -57.5t-71.5 -38.5l-10 16q91 52 138 142h40zM350 730q61 0 124 -46q16 -11 26 -19q15 -14 28 -14q8 0 11.5 4.5t8.5 17.5l17 49h25v-278h-25q-33 122 -92.5 188t-122.5 66q-53 0 -88 -24 t-53.5 -71.5t-25.5 -106t-7 -140.5t7 -140t25.5 -106t53.5 -72t88 -24q56 0 102 56.5t46 118.5v106q0 27 -27 27h-72v32h291v-32h-73q-27 0 -27 -27v-308h-32v91q0 34 -17 34t-35 -30q-23 -37 -65 -68.5t-91 -31.5q-85 0 -149 51t-97.5 134.5t-33.5 188.5q0 101 32.5 185.5 t97.5 136.5t150 52z" />
<glyph unicode="&#x11d;" horiz-adv-x="540" d="M282 672q36 -103 111 -151l-9 -13q-68 35 -122 92q-54 -57 -122 -92l-9 13q75 48 111 151h40zM52 -122q0 37 29 65t69 34v3q-88 19 -88 74q0 41 31.5 64.5t77.5 31.5v3q-101 43 -101 151q0 76 52.5 120t125.5 44q42 0 82.5 -19t50.5 -33q9 26 29 39t40 13q34 0 56 -20 t22 -52q0 -24 -11.5 -39t-30.5 -15q-16 0 -28 8.5t-12 27.5q0 22 17 32q11 7 11 18q0 16 -27 16q-18 0 -32.5 -14.5t-16.5 -33.5q28 -39 28 -92q0 -75 -51.5 -119.5t-126.5 -44.5q-57 0 -101.5 -15.5t-44.5 -51.5q0 -33 64 -33q21 0 34 1q12 1 31 1h103q64 0 107 -34.5 t43 -101.5q0 -70 -59.5 -107t-156.5 -37q-88 0 -152 28t-64 88zM150 304q0 -66 26 -103t72 -37t72 37t26 103t-26 103t-72 37t-72 -37t-26 -103zM96 -120q0 -47 53 -70.5t119 -23.5q45 0 82.5 8.5t67.5 35t30 68.5q0 31 -18.5 53.5t-64.5 22.5h-111q-40 0 -73 -7.5 t-59 -29.5t-26 -57z" />
<glyph unicode="&#x11e;" horiz-adv-x="720" d="M358 762q-72 0 -111.5 50t-39.5 104h28q9 -42 40.5 -75t82.5 -33t82.5 33t40.5 75h28q0 -54 -39.5 -104t-111.5 -50zM350 730q61 0 124 -46q16 -11 26 -19q15 -14 28 -14q8 0 11.5 4.5t8.5 17.5l17 49h25v-278h-25q-33 122 -92.5 188t-122.5 66q-53 0 -88 -24 t-53.5 -71.5t-25.5 -106t-7 -140.5t7 -140t25.5 -106t53.5 -72t88 -24q56 0 102 56.5t46 118.5v106q0 27 -27 27h-72v32h291v-32h-73q-27 0 -27 -27v-308h-32v91q0 34 -17 34t-35 -30q-23 -37 -65 -68.5t-91 -31.5q-85 0 -149 51t-97.5 134.5t-33.5 188.5q0 101 32.5 185.5 t97.5 136.5t150 52z" />
<glyph unicode="&#x11f;" horiz-adv-x="540" d="M262 526q-65 0 -101.5 47.5t-36.5 92.5h22q6 -40 33.5 -70t82.5 -30t82.5 30t33.5 70h22q0 -45 -36.5 -92.5t-101.5 -47.5zM52 -122q0 37 29 65t69 34v3q-88 19 -88 74q0 41 31.5 64.5t77.5 31.5v3q-101 43 -101 151q0 76 52.5 120t125.5 44q42 0 82.5 -19t50.5 -33 q9 26 29 39t40 13q34 0 56 -20t22 -52q0 -24 -11.5 -39t-30.5 -15q-16 0 -28 8.5t-12 27.5q0 22 17 32q11 7 11 18q0 16 -27 16q-18 0 -32.5 -14.5t-16.5 -33.5q28 -39 28 -92q0 -75 -51.5 -119.5t-126.5 -44.5q-57 0 -101.5 -15.5t-44.5 -51.5q0 -33 64 -33q21 0 34 1 q12 1 31 1h103q64 0 107 -34.5t43 -101.5q0 -70 -59.5 -107t-156.5 -37q-88 0 -152 28t-64 88zM150 304q0 -66 26 -103t72 -37t72 37t26 103t-26 103t-72 37t-72 -37t-26 -103zM96 -120q0 -47 53 -70.5t119 -23.5q45 0 82.5 8.5t67.5 35t30 68.5q0 31 -18.5 53.5t-64.5 22.5 h-111q-40 0 -73 -7.5t-59 -29.5t-26 -57z" />
<glyph unicode="&#x120;" horiz-adv-x="720" d="M358 798q-22 0 -37 15t-15 37t15 37t37 15t37 -15t15 -37t-15 -37t-37 -15zM350 730q61 0 124 -46q16 -11 26 -19q15 -14 28 -14q8 0 11.5 4.5t8.5 17.5l17 49h25v-278h-25q-33 122 -92.5 188t-122.5 66q-53 0 -88 -24t-53.5 -71.5t-25.5 -106t-7 -140.5t7 -140 t25.5 -106t53.5 -72t88 -24q56 0 102 56.5t46 118.5v106q0 27 -27 27h-72v32h291v-32h-73q-27 0 -27 -27v-308h-32v91q0 34 -17 34t-35 -30q-23 -37 -65 -68.5t-91 -31.5q-85 0 -149 51t-97.5 134.5t-33.5 188.5q0 101 32.5 185.5t97.5 136.5t150 52z" />
<glyph unicode="&#x121;" horiz-adv-x="540" d="M262 544q-22 0 -37 15t-15 37t15 37t37 15t37 -15t15 -37t-15 -37t-37 -15zM52 -122q0 37 29 65t69 34v3q-88 19 -88 74q0 41 31.5 64.5t77.5 31.5v3q-101 43 -101 151q0 76 52.5 120t125.5 44q42 0 82.5 -19t50.5 -33q9 26 29 39t40 13q34 0 56 -20t22 -52 q0 -24 -11.5 -39t-30.5 -15q-16 0 -28 8.5t-12 27.5q0 22 17 32q11 7 11 18q0 16 -27 16q-18 0 -32.5 -14.5t-16.5 -33.5q28 -39 28 -92q0 -75 -51.5 -119.5t-126.5 -44.5q-57 0 -101.5 -15.5t-44.5 -51.5q0 -33 64 -33q21 0 34 1q12 1 31 1h103q64 0 107 -34.5t43 -101.5 q0 -70 -59.5 -107t-156.5 -37q-88 0 -152 28t-64 88zM150 304q0 -66 26 -103t72 -37t72 37t26 103t-26 103t-72 37t-72 -37t-26 -103zM96 -120q0 -47 53 -70.5t119 -23.5q45 0 82.5 8.5t67.5 35t30 68.5q0 31 -18.5 53.5t-64.5 22.5h-111q-40 0 -73 -7.5t-59 -29.5t-26 -57z " />
<glyph unicode="&#x122;" horiz-adv-x="720" d="M306 -85q0 21 13.5 33t33.5 12q26 0 41.5 -19t15.5 -47q0 -43 -27.5 -80t-64.5 -52l-10 11q26 12 45.5 33.5t19.5 41.5q0 17 -8 22q-6 4 -24 4q-16 0 -25.5 13t-9.5 28zM350 730q61 0 124 -46q16 -11 26 -19q15 -14 28 -14q8 0 11.5 4.5t8.5 17.5l17 49h25v-278h-25 q-33 122 -92.5 188t-122.5 66q-53 0 -88 -24t-53.5 -71.5t-25.5 -106t-7 -140.5t7 -140t25.5 -106t53.5 -72t88 -24q56 0 102 56.5t46 118.5v106q0 27 -27 27h-72v32h291v-32h-73q-27 0 -27 -27v-308h-32v91q0 34 -17 34t-35 -30q-23 -37 -65 -68.5t-91 -31.5q-85 0 -149 51 t-97.5 134.5t-33.5 188.5q0 101 32.5 185.5t97.5 136.5t150 52z" />
<glyph unicode="&#x123;" horiz-adv-x="540" d="M306 540q0 -25 -15.5 -38.5t-38.5 -13.5q-30 0 -48 21.5t-18 54.5q0 50 31.5 92.5t74.5 63.5l12 -12q-31 -15 -53.5 -41t-22.5 -49q0 -16 10 -24q8 -6 28 -6q18 0 29 -15t11 -33zM52 -122q0 37 29 65t69 34v3q-88 19 -88 74q0 41 31.5 64.5t77.5 31.5v3q-101 43 -101 151 q0 76 52.5 120t125.5 44q42 0 82.5 -19t50.5 -33q9 26 29 39t40 13q34 0 56 -20t22 -52q0 -24 -11.5 -39t-30.5 -15q-16 0 -28 8.5t-12 27.5q0 22 17 32q11 7 11 18q0 16 -27 16q-18 0 -32.5 -14.5t-16.5 -33.5q28 -39 28 -92q0 -75 -51.5 -119.5t-126.5 -44.5 q-57 0 -101.5 -15.5t-44.5 -51.5q0 -33 64 -33q21 0 34 1q12 1 31 1h103q64 0 107 -34.5t43 -101.5q0 -70 -59.5 -107t-156.5 -37q-88 0 -152 28t-64 88zM150 304q0 -66 26 -103t72 -37t72 37t26 103t-26 103t-72 37t-72 -37t-26 -103zM96 -120q0 -47 53 -70.5t119 -23.5 q45 0 82.5 8.5t67.5 35t30 68.5q0 31 -18.5 53.5t-64.5 22.5h-111q-40 0 -73 -7.5t-59 -29.5t-26 -57z" />
<glyph unicode="&#x124;" horiz-adv-x="788" d="M424 920q47 -90 138 -142l-10 -16q-26 9 -71.5 38.5t-76.5 57.5q-31 -28 -76.5 -57.5t-71.5 -38.5l-10 16q91 52 138 142h40zM62 0v32h72q27 0 27 27v594q0 27 -27 27h-72v32h290v-32h-72q-27 0 -27 -27v-261h302v261q0 27 -27 27h-72v32h290v-32h-72q-27 0 -27 -27v-594 q0 -27 27 -27h72v-32h-290v32h72q27 0 27 27v297h-302v-297q0 -27 27 -27h72v-32h-290z" />
<glyph unicode="&#x125;" horiz-adv-x="544" d="M284 928q36 -103 111 -151l-9 -13q-68 35 -122 92q-54 -57 -122 -92l-9 13q75 48 111 151h40zM28 0v24h56q22 0 22 22v620q0 22 -22 22h-56v24h150v-348l4 -1q26 50 62.5 77.5t76.5 27.5q50 0 81 -26q46 -37 46 -123v-273q0 -22 22 -22h42v-24h-200v24h42q22 0 22 22v293 q0 105 -64 105q-45 0 -89.5 -57.5t-44.5 -132.5v-208q0 -22 22 -22h42v-24h-214z" />
<glyph unicode="&#x126;" horiz-adv-x="804" d="M70 0v32h72q27 0 27 27v449h-113v36h113v109q0 27 -27 27h-72v32h290v-32h-72q-27 0 -27 -27v-109h302v109q0 27 -27 27h-72v32h290v-32h-72q-27 0 -27 -27v-109h113v-36h-113v-449q0 -27 27 -27h72v-32h-290v32h72q27 0 27 27v297h-302v-297q0 -27 27 -27h72v-32h-290z M563 508h-302v-116h302v116z" />
<glyph unicode="&#x127;" horiz-adv-x="544" d="M28 0v24h56q22 0 22 22v510h-74v28h74v82q0 22 -22 22h-56v24h150v-128h188v-28h-188v-192l4 -1q26 50 62.5 77.5t76.5 27.5q50 0 81 -26q46 -37 46 -123v-273q0 -22 22 -22h42v-24h-200v24h42q22 0 22 22v293q0 105 -64 105q-45 0 -89.5 -57.5t-44.5 -132.5v-208 q0 -22 22 -22h42v-24h-214z" />
<glyph unicode="&#x128;" horiz-adv-x="394" d="M282 810q-32 0 -85 20t-77 20q-29 0 -36 -40h-22q0 39 21 66.5t59 27.5q32 0 85 -20t77 -20q29 0 36 40h22q0 -39 -21 -66.5t-59 -27.5zM62 0v32h72q27 0 27 27v594q0 27 -27 27h-72v32h290v-32h-72q-27 0 -27 -27v-594q0 -27 27 -27h72v-32h-290z" />
<glyph unicode="&#x129;" horiz-adv-x="270" d="M196 556q-32 0 -73 20t-65 20q-29 0 -36 -40h-22q0 39 21 66.5t59 27.5q32 0 73 -20t65 -20q29 0 36 40h22q0 -39 -21 -66.5t-59 -27.5zM44 0v24h42q22 0 22 22v364q0 22 -22 22h-42v24h136v-410q0 -22 22 -22h42v-24h-200z" />
<glyph unicode="&#x12a;" horiz-adv-x="394" d="M72 862h272v-40h-272v40zM62 0v32h72q27 0 27 27v594q0 27 -27 27h-72v32h290v-32h-72q-27 0 -27 -27v-594q0 -27 27 -27h72v-32h-290z" />
<glyph unicode="&#x12b;" horiz-adv-x="270" d="M8 612h260v-40h-260v40zM44 0v24h42q22 0 22 22v364q0 22 -22 22h-42v24h136v-410q0 -22 22 -22h42v-24h-200z" />
<glyph unicode="&#x12c;" horiz-adv-x="394" d="M208 762q-72 0 -111.5 50t-39.5 104h28q9 -42 40.5 -75t82.5 -33t82.5 33t40.5 75h28q0 -54 -39.5 -104t-111.5 -50zM62 0v32h72q27 0 27 27v594q0 27 -27 27h-72v32h290v-32h-72q-27 0 -27 -27v-594q0 -27 27 -27h72v-32h-290z" />
<glyph unicode="&#x12d;" horiz-adv-x="270" d="M138 526q-65 0 -101.5 47.5t-36.5 92.5h22q6 -40 33.5 -70t82.5 -30t82.5 30t33.5 70h22q0 -45 -36.5 -92.5t-101.5 -47.5zM44 0v24h42q22 0 22 22v364q0 22 -22 22h-42v24h136v-410q0 -22 22 -22h42v-24h-200z" />
<glyph unicode="&#x12e;" horiz-adv-x="394" d="M62 0v32h72q27 0 27 27v594q0 27 -27 27h-72v32h290v-32h-72q-27 0 -27 -27v-594q0 -27 27 -27h72v-32h-18q-42 -21 -69 -55.5t-27 -79.5q0 -25 14 -42t38 -17q37 0 62 27l12 -9q-33 -62 -99 -62q-44 0 -69.5 24.5t-25.5 65.5q0 43 31.5 80t80.5 63l-2 5h-218z" />
<glyph unicode="&#x12f;" horiz-adv-x="270" d="M132 580q-22 0 -37 15t-15 37t15 37t37 15t37 -15t15 -37t-15 -37t-37 -15zM38 0v24h42q22 0 22 22v364q0 22 -22 22h-42v24h136v-410q0 -22 22 -22h42v-24h-28q-45 -33 -66.5 -62.5t-21.5 -66.5q0 -47 44 -47q29 0 58 34l14 -10q-37 -68 -93 -68q-33 0 -56 21.5 t-23 56.5q0 67 106 138v4h-134z" />
<glyph unicode="&#x130;" horiz-adv-x="394" d="M208 798q-22 0 -37 15t-15 37t15 37t37 15t37 -15t15 -37t-15 -37t-37 -15zM62 0v32h72q27 0 27 27v594q0 27 -27 27h-72v32h290v-32h-72q-27 0 -27 -27v-594q0 -27 27 -27h72v-32h-290z" />
<glyph unicode="&#x134;" horiz-adv-x="540" d="M382 920q47 -90 138 -142l-10 -16q-26 9 -71.5 38.5t-76.5 57.5q-31 -28 -76.5 -57.5t-71.5 -38.5l-10 16q91 52 138 142h40zM508 712v-32h-72q-27 0 -27 -27v-459q0 -98 -57 -155t-138 -57q-74 0 -122 39t-48 106q0 43 23 67t54 24q29 0 45 -16t16 -41q0 -20 -14 -34.5 t-34 -14.5q-16 0 -23 -7t-7 -23q0 -31 32 -49.5t78 -18.5q49 0 76 38t27 91v510q0 27 -27 27h-72v32h290z" />
<glyph unicode="&#x135;" horiz-adv-x="320" d="M196 672q36 -103 111 -151l-9 -13q-68 35 -122 92q-54 -57 -122 -92l-9 13q75 48 111 151h40zM52 432v24h166v-499q0 -98 -46 -146.5t-107 -48.5q-43 0 -73 26.5t-30 75.5q0 26 12.5 41t34.5 15q18 0 29.5 -11.5t11.5 -30.5q0 -24 -18 -36q-16 -9 -16 -24q0 -32 51 -32 q79 0 79 143v481q0 22 -22 22h-72z" />
<glyph unicode="&#x136;" horiz-adv-x="756" d="M332 -85q0 21 13.5 33t33.5 12q26 0 41.5 -19t15.5 -47q0 -43 -27.5 -80t-64.5 -52l-10 11q26 12 45.5 33.5t19.5 41.5q0 17 -8 22q-6 4 -24 4q-16 0 -25.5 13t-9.5 28zM62 0v32h72q27 0 27 27v594q0 27 -27 27h-72v32h285v-32h-67q-27 0 -27 -27v-310l231 236l10.5 14 t7.5 12t4.5 14t1.5 19q0 18 -13 30t-32 12h-27v32h264v-32h-40q-33 0 -90 -59l-168 -170l204 -375q13 -25 29 -34.5t46 -9.5h33v-32h-302v32h67q11 0 19 6.5t8 14.5q0 15 -7 25l-163 306l-83 -84v-241q0 -27 27 -27h67v-32h-285z" />
<glyph unicode="&#x137;" horiz-adv-x="520" d="M210 -85q0 21 13.5 33t33.5 12q26 0 41.5 -19t15.5 -47q0 -43 -27.5 -80t-64.5 -52l-10 11q26 12 45.5 33.5t19.5 41.5q0 17 -8 22q-6 4 -24 4q-16 0 -25.5 13t-9.5 28zM28 0v24h52q22 0 22 22v620q0 22 -22 22h-52v24h146v-509l136 167q18 22 18 36q0 26 -34 26h-26v24 h204v-24h-32q-27 0 -48 -14t-48 -47l-76 -93l156 -222q7 -10 11.5 -17t12.5 -11t22 -4h20v-24h-212v24h26q27 0 27 20q0 15 -14 36l-97 140l-46 -56v-118q0 -22 22 -22h32v-24h-200z" />
<glyph unicode="&#x138;" horiz-adv-x="520" d="M38 0v24h42q22 0 22 22v364q0 22 -22 22h-42v24h136v-253l136 167q18 22 18 36q0 26 -34 26h-26v24h204v-24h-32q-27 0 -48 -14t-48 -47l-76 -93l156 -222q7 -10 11.5 -17t12.5 -11t22 -4h20v-24h-212v24h26q27 0 27 20q0 15 -14 36l-97 140l-46 -56v-118q0 -22 22 -22 h32v-24h-190z" />
<glyph unicode="&#x139;" horiz-adv-x="670" d="M336 938q28 0 28 -31q0 -23 -28 -44l-128 -101l-13 11l92 133q23 32 49 32zM62 0v32h72q27 0 27 27v594q0 27 -27 27h-72v32h306v-32h-88q-27 0 -27 -27v-594q0 -27 27 -27h140q26 0 58 13t52 39q20 28 34.5 74t18.5 78l4 33h25l-13 -269h-537z" />
<glyph unicode="&#x13a;" horiz-adv-x="270" d="M248 940q28 0 28 -31q0 -23 -28 -44l-128 -101l-13 11l92 133q23 32 49 32zM28 0v24h52q22 0 22 22v620q0 22 -22 22h-52v24h146v-666q0 -22 22 -22h52v-24h-220z" />
<glyph unicode="&#x13b;" horiz-adv-x="670" d="M290 -85q0 21 13.5 33t33.5 12q26 0 41.5 -19t15.5 -47q0 -43 -27.5 -80t-64.5 -52l-10 11q26 12 45.5 33.5t19.5 41.5q0 17 -8 22q-6 4 -24 4q-16 0 -25.5 13t-9.5 28zM62 0v32h72q27 0 27 27v594q0 27 -27 27h-72v32h306v-32h-88q-27 0 -27 -27v-594q0 -27 27 -27h140 q26 0 58 13t52 39q20 28 34.5 74t18.5 78l4 33h25l-13 -269h-537z" />
<glyph unicode="&#x13c;" horiz-adv-x="270" d="M80 -85q0 21 13.5 33t33.5 12q26 0 41.5 -19t15.5 -47q0 -43 -27.5 -80t-64.5 -52l-10 11q26 12 45.5 33.5t19.5 41.5q0 17 -8 22q-6 4 -24 4q-16 0 -25.5 13t-9.5 28zM28 0v24h52q22 0 22 22v620q0 22 -22 22h-52v24h146v-666q0 -22 22 -22h52v-24h-220z" />
<glyph unicode="&#x13d;" horiz-adv-x="690" d="M544 668q0 25 15.5 38.5t38.5 13.5q30 0 48 -21.5t18 -54.5q0 -50 -31.5 -92.5t-74.5 -63.5l-12 12q31 15 53.5 41t22.5 49q0 16 -10 24q-8 6 -28 6q-18 0 -29 15t-11 33zM62 0v32h72q27 0 27 27v594q0 27 -27 27h-72v32h306v-32h-88q-27 0 -27 -27v-594q0 -27 27 -27 h140q26 0 58 13t52 39q20 28 34.5 74t18.5 78l4 33h25l-13 -269h-537z" />
<glyph unicode="&#x13e;" horiz-adv-x="334" d="M222 676q0 20 12.5 32t31.5 12q26 0 43 -22t17 -54q0 -91 -98 -156l-10 12q32 22 54 51.5t22 56.5q0 11 -6 18q-7 8 -24 8q-18 0 -30 12.5t-12 29.5zM28 0v24h52q22 0 22 22v620q0 22 -22 22h-52v24h146v-666q0 -22 22 -22h52v-24h-220z" />
<glyph unicode="&#x13f;" horiz-adv-x="670" d="M532 342q-22 0 -37 15t-15 37t15 37t37 15t37 -15t15 -37t-15 -37t-37 -15zM62 0v32h72q27 0 27 27v594q0 27 -27 27h-72v32h306v-32h-88q-27 0 -27 -27v-594q0 -27 27 -27h140q26 0 58 13t52 39q20 28 34.5 74t18.5 78l4 33h25l-13 -269h-537z" />
<glyph unicode="&#x140;" horiz-adv-x="372" d="M324 320q-22 0 -37 15t-15 37t15 37t37 15t37 -15t15 -37t-15 -37t-37 -15zM28 0v24h52q22 0 22 22v620q0 22 -22 22h-52v24h146v-666q0 -22 22 -22h52v-24h-220z" />
<glyph unicode="&#x141;" horiz-adv-x="691" d="M62 0v32h72q27 0 27 27v253l-75 -44l-18 32l93 54v299q0 27 -27 27h-72v32h306v-32h-88q-27 0 -27 -27v-245l137 80l18 -32l-155 -90v-307q0 -27 27 -27h140q26 0 58 13t52 39q20 28 34.5 74t18.5 78l4 33h25l-13 -269h-537z" />
<glyph unicode="&#x142;" horiz-adv-x="276" d="M28 0v24h52q22 0 22 22v282l-60 -34l-14 24l74 42v278q0 22 -22 22h-52v24h146v-283l76 43l14 -24l-90 -51v-323q0 -22 22 -22h52v-24h-220z" />
<glyph unicode="&#x143;" horiz-adv-x="770" d="M532 938q28 0 28 -31q0 -23 -28 -44l-128 -101l-13 11l92 133q23 32 49 32zM62 0v32h36q29 0 46 21.5t17 58.5v541q-1 27 -27 27h-72v32h189l347 -558v446q0 37 -17 58.5t-45 21.5h-36v32h238v-32h-36q-28 0 -46 -21.5t-18 -58.5v-618h-40l-393 621h-4v-491 q0 -37 17.5 -58.5t45.5 -21.5h36v-32h-238z" />
<glyph unicode="&#x144;" horiz-adv-x="540" d="M392 684q28 0 28 -31q0 -23 -28 -44l-128 -101l-13 11l92 133q23 32 49 32zM38 0v24h42q22 0 22 22v364q0 22 -22 22h-42v24h136v-92l4 -1q26 50 62.5 77.5t76.5 27.5q50 0 81 -26q46 -37 46 -123v-273q0 -22 22 -22h42v-24h-200v24h42q22 0 22 22v293q0 105 -64 105 q-45 0 -89.5 -57.5t-44.5 -132.5v-208q0 -22 22 -22h42v-24h-200z" />
<glyph unicode="&#x145;" horiz-adv-x="770" d="M364 -85q0 21 13.5 33t33.5 12q26 0 41.5 -19t15.5 -47q0 -43 -27.5 -80t-64.5 -52l-10 11q26 12 45.5 33.5t19.5 41.5q0 17 -8 22q-6 4 -24 4q-16 0 -25.5 13t-9.5 28zM62 0v32h36q29 0 46 21.5t17 58.5v541q-1 27 -27 27h-72v32h189l347 -558v446q0 37 -17 58.5 t-45 21.5h-36v32h238v-32h-36q-28 0 -46 -21.5t-18 -58.5v-618h-40l-393 621h-4v-491q0 -37 17.5 -58.5t45.5 -21.5h36v-32h-238z" />
<glyph unicode="&#x146;" horiz-adv-x="540" d="M224 -85q0 21 13.5 33t33.5 12q26 0 41.5 -19t15.5 -47q0 -43 -27.5 -80t-64.5 -52l-10 11q26 12 45.5 33.5t19.5 41.5q0 17 -8 22q-6 4 -24 4q-16 0 -25.5 13t-9.5 28zM38 0v24h42q22 0 22 22v364q0 22 -22 22h-42v24h136v-92l4 -1q26 50 62.5 77.5t76.5 27.5 q50 0 81 -26q46 -37 46 -123v-273q0 -22 22 -22h42v-24h-200v24h42q22 0 22 22v293q0 105 -64 105q-45 0 -89.5 -57.5t-44.5 -132.5v-208q0 -22 22 -22h42v-24h-200z" />
<glyph unicode="&#x147;" horiz-adv-x="770" d="M256 906l12 14l148 -96l148 96l12 -14l-140 -144h-40zM62 0v32h36q29 0 46 21.5t17 58.5v541q-1 27 -27 27h-72v32h189l347 -558v446q0 37 -17 58.5t-45 21.5h-36v32h238v-32h-36q-28 0 -46 -21.5t-18 -58.5v-618h-40l-393 621h-4v-491q0 -37 17.5 -58.5t45.5 -21.5h36 v-32h-238z" />
<glyph unicode="&#x148;" horiz-adv-x="540" d="M144 661l13 11l119 -100l119 100l13 -11l-112 -153h-40zM38 0v24h42q22 0 22 22v364q0 22 -22 22h-42v24h136v-92l4 -1q26 50 62.5 77.5t76.5 27.5q50 0 81 -26q46 -37 46 -123v-273q0 -22 22 -22h42v-24h-200v24h42q22 0 22 22v293q0 105 -64 105q-45 0 -89.5 -57.5 t-44.5 -132.5v-208q0 -22 22 -22h42v-24h-200z" />
<glyph unicode="&#x149;" horiz-adv-x="672" d="M170 0v24h42q22 0 22 22v364q0 22 -22 22h-42v24h136v-92l4 -1q26 50 62.5 77.5t76.5 27.5q50 0 81 -26q46 -37 46 -123v-273q0 -22 22 -22h42v-24h-200v24h42q22 0 22 22v293q0 105 -64 105q-45 0 -89.5 -57.5t-44.5 -132.5v-208q0 -22 22 -22h42v-24h-200zM32 668 q0 25 15.5 38.5t38.5 13.5q30 0 48 -21.5t18 -54.5q0 -50 -31.5 -92.5t-74.5 -63.5l-12 12q31 15 53.5 41t22.5 49q0 16 -10 24q-8 6 -28 6q-18 0 -29 15t-11 33z" />
<glyph unicode="&#x14a;" horiz-adv-x="770" d="M62 0v32h36q29 0 46 21.5t17 58.5v541q-1 27 -27 27h-72v32h189l347 -558v446q0 37 -17 58.5t-45 21.5h-36v32h238v-32h-36q-28 0 -46 -21.5t-18 -58.5v-699q0 -62 -39.5 -100.5t-105.5 -38.5q-45 0 -75.5 25t-30.5 60q0 19 11 31t27 12q33 0 40 -48q10 -48 47 -48 q32 0 59 23t27 67v98l-393 621h-4v-491q0 -37 17.5 -58.5t45.5 -21.5h36v-32h-238z" />
<glyph unicode="&#x14b;" horiz-adv-x="516" d="M38 0v24h42q22 0 22 22v364q0 22 -22 22h-42v24h136v-92l4 -1q26 50 62.5 77.5t76.5 27.5q50 0 81 -26q46 -37 46 -123v-335q0 -115 -53 -168.5t-119 -53.5q-49 0 -77 18q-40 25 -40 64q0 18 9 29t24 11t24.5 -8t13.5 -17t8 -26q12 -47 49 -47q89 0 89 143v410 q0 105 -64 105q-45 0 -89.5 -57.5t-44.5 -132.5v-208q0 -22 22 -22h42v-24h-200z" />
<glyph unicode="&#x14c;" horiz-adv-x="700" d="M224 862h272v-40h-272v40zM360 -18q-84 0 -151.5 54.5t-103 139.5t-35.5 180t35.5 180t103 139.5t151.5 54.5t151.5 -54.5t103 -139.5t35.5 -180t-35.5 -180t-103 -139.5t-151.5 -54.5zM360 14q184 0 184 342t-184 342t-184 -342t184 -342z" />
<glyph unicode="&#x14d;" horiz-adv-x="496" d="M118 612h260v-40h-260v40zM248 12q112 0 112 216t-112 216t-112 -216t112 -216zM248 -12q-84 0 -142 70.5t-58 169.5t58 169.5t142 70.5t142 -70.5t58 -169.5t-58 -169.5t-142 -70.5z" />
<glyph unicode="&#x14e;" horiz-adv-x="700" d="M360 762q-72 0 -111.5 50t-39.5 104h28q9 -42 40.5 -75t82.5 -33t82.5 33t40.5 75h28q0 -54 -39.5 -104t-111.5 -50zM360 -18q-84 0 -151.5 54.5t-103 139.5t-35.5 180t35.5 180t103 139.5t151.5 54.5t151.5 -54.5t103 -139.5t35.5 -180t-35.5 -180t-103 -139.5 t-151.5 -54.5zM360 14q184 0 184 342t-184 342t-184 -342t184 -342z" />
<glyph unicode="&#x14f;" horiz-adv-x="496" d="M248 526q-65 0 -101.5 47.5t-36.5 92.5h22q6 -40 33.5 -70t82.5 -30t82.5 30t33.5 70h22q0 -45 -36.5 -92.5t-101.5 -47.5zM248 12q112 0 112 216t-112 216t-112 -216t112 -216zM248 -12q-84 0 -142 70.5t-58 169.5t58 169.5t142 70.5t142 -70.5t58 -169.5t-58 -169.5 t-142 -70.5z" />
<glyph unicode="&#x150;" horiz-adv-x="700" d="M544 938q28 0 28 -31q0 -23 -28 -44l-128 -101l-13 11l92 133q23 32 49 32zM408 938q28 0 28 -31q0 -23 -28 -44l-128 -101l-13 11l92 133q23 32 49 32zM360 -18q-84 0 -151.5 54.5t-103 139.5t-35.5 180t35.5 180t103 139.5t151.5 54.5t151.5 -54.5t103 -139.5 t35.5 -180t-35.5 -180t-103 -139.5t-151.5 -54.5zM360 14q184 0 184 342t-184 342t-184 -342t184 -342z" />
<glyph unicode="&#x151;" horiz-adv-x="496" d="M430 684q28 0 28 -31q0 -23 -28 -44l-128 -101l-13 11l92 133q23 32 49 32zM294 684q28 0 28 -31q0 -23 -28 -44l-128 -101l-13 11l92 133q23 32 49 32zM248 12q112 0 112 216t-112 216t-112 -216t112 -216zM248 -12q-84 0 -142 70.5t-58 169.5t58 169.5t142 70.5 t142 -70.5t58 -169.5t-58 -169.5t-142 -70.5z" />
<glyph unicode="&#x154;" horiz-adv-x="716" d="M448 938q28 0 28 -31q0 -23 -28 -44l-128 -101l-13 11l92 133q23 32 49 32zM253 400h97q155 0 155 152q0 61 -32.5 94.5t-88.5 33.5h-104q-27 0 -27 -27v-253zM62 0v32h72q27 0 27 27v594q0 27 -27 27h-72v32h328q105 0 163 -41.5t58 -118.5q0 -74 -55.5 -119t-133.5 -53 v-4q57 -11 93.5 -52.5t48.5 -141.5q10 -82 19 -106t33 -24q43 0 43 108h25q0 -172 -104 -172q-66 0 -91 47q-27 52 -29 177q-1 67 -24 111.5t-74 44.5h-109v-309q0 -27 27 -27h89v-32h-307z" />
<glyph unicode="&#x155;" horiz-adv-x="410" d="M352 684q28 0 28 -31q0 -23 -28 -44l-128 -101l-13 11l92 133q23 32 49 32zM38 0v24h42q22 0 22 22v364q0 22 -22 22h-42v24h136v-126l4 -1q17 48 41.5 81.5t44.5 43.5q25 14 50 14q38 0 57 -24.5t19 -57.5q0 -24 -14 -46t-42 -22q-19 0 -32 9.5t-13 28.5q0 29 27 44 q22 12 22 27q0 17 -28 17q-17 0 -34.5 -9t-38 -38.5t-37.5 -78.5q-26 -74 -26 -140v-132q0 -22 22 -22h42v-24h-200z" />
<glyph unicode="&#x156;" horiz-adv-x="716" d="M332 -85q0 21 13.5 33t33.5 12q26 0 41.5 -19t15.5 -47q0 -43 -27.5 -80t-64.5 -52l-10 11q26 12 45.5 33.5t19.5 41.5q0 17 -8 22q-6 4 -24 4q-16 0 -25.5 13t-9.5 28zM253 400h97q155 0 155 152q0 61 -32.5 94.5t-88.5 33.5h-104q-27 0 -27 -27v-253zM62 0v32h72 q27 0 27 27v594q0 27 -27 27h-72v32h328q105 0 163 -41.5t58 -118.5q0 -74 -55.5 -119t-133.5 -53v-4q57 -11 93.5 -52.5t48.5 -141.5q10 -82 19 -106t33 -24q43 0 43 108h25q0 -172 -104 -172q-66 0 -91 47q-27 52 -29 177q-1 67 -24 111.5t-74 44.5h-109v-309 q0 -27 27 -27h89v-32h-307z" />
<glyph unicode="&#x157;" horiz-adv-x="410" d="M80 -85q0 21 13.5 33t33.5 12q26 0 41.5 -19t15.5 -47q0 -43 -27.5 -80t-64.5 -52l-10 11q26 12 45.5 33.5t19.5 41.5q0 17 -8 22q-6 4 -24 4q-16 0 -25.5 13t-9.5 28zM38 0v24h42q22 0 22 22v364q0 22 -22 22h-42v24h136v-126l4 -1q17 48 41.5 81.5t44.5 43.5 q25 14 50 14q38 0 57 -24.5t19 -57.5q0 -24 -14 -46t-42 -22q-19 0 -32 9.5t-13 28.5q0 29 27 44q22 12 22 27q0 17 -28 17q-17 0 -34.5 -9t-38 -38.5t-37.5 -78.5q-26 -74 -26 -140v-132q0 -22 22 -22h42v-24h-200z" />
<glyph unicode="&#x158;" horiz-adv-x="716" d="M172 906l12 14l148 -96l148 96l12 -14l-140 -144h-40zM253 400h97q155 0 155 152q0 61 -32.5 94.5t-88.5 33.5h-104q-27 0 -27 -27v-253zM62 0v32h72q27 0 27 27v594q0 27 -27 27h-72v32h328q105 0 163 -41.5t58 -118.5q0 -74 -55.5 -119t-133.5 -53v-4 q57 -11 93.5 -52.5t48.5 -141.5q10 -82 19 -106t33 -24q43 0 43 108h25q0 -172 -104 -172q-66 0 -91 47q-27 52 -29 177q-1 67 -24 111.5t-74 44.5h-109v-309q0 -27 27 -27h89v-32h-307z" />
<glyph unicode="&#x159;" horiz-adv-x="410" d="M104 661l13 11l119 -100l119 100l13 -11l-112 -153h-40zM38 0v24h42q22 0 22 22v364q0 22 -22 22h-42v24h136v-126l4 -1q17 48 41.5 81.5t44.5 43.5q25 14 50 14q38 0 57 -24.5t19 -57.5q0 -24 -14 -46t-42 -22q-19 0 -32 9.5t-13 28.5q0 29 27 44q22 12 22 27 q0 17 -28 17q-17 0 -34.5 -9t-38 -38.5t-37.5 -78.5q-26 -74 -26 -140v-132q0 -22 22 -22h42v-24h-200z" />
<glyph unicode="&#x15a;" horiz-adv-x="620" d="M408 938q28 0 28 -31q0 -23 -28 -44l-128 -101l-13 11l92 133q23 32 49 32zM88 306h24q10 -113 82 -202.5t157 -89.5q82 0 119.5 40t37.5 96q0 49 -28.5 77t-83.5 50l-152 61q-154 61 -154 204q0 96 56 142t140 46q40 0 78 -18.5t68 -41.5q24 -18 38 -18q17 0 20 24l4 36 h24l10 -260h-24q-24 108 -88 177t-138 69q-56 0 -92 -36.5t-36 -101.5q0 -45 23 -70t68 -43l193 -77q67 -27 100.5 -77t33.5 -105q0 -83 -55 -144.5t-162 -61.5q-37 0 -77.5 17t-51.5 25t-36 25.5t-30 20.5t-9 3q-8 0 -15.5 -10.5t-9.5 -32.5l-4 -40h-23z" />
<glyph unicode="&#x15b;" horiz-adv-x="434" d="M322 684q28 0 28 -31q0 -23 -28 -44l-128 -101l-13 11l92 133q23 32 49 32zM52 345q0 61 38 92t96 31q53 0 97 -32q22 -16 33 -16q14 0 16 18l2 20h18v-152h-18l-14 35q-22 54 -58.5 78.5t-76.5 24.5q-37 0 -61 -18.5t-24 -51.5q0 -23 12.5 -37.5t33.5 -24.5 q36 -19 42 -21l108 -45q48 -20 72 -48q24 -30 24 -80q0 -67 -38 -98.5t-100 -31.5q-38 0 -66 13.5t-44 27t-27 13.5q-28 0 -35 -34l-4 -20h-18v198h18l34 -72q17 -37 54.5 -69.5t88.5 -32.5q46 0 68.5 22.5t22.5 61.5q0 45 -64 71l-114 46q-116 47 -116 132z" />
<glyph unicode="&#x15c;" horiz-adv-x="620" d="M312 920q47 -90 138 -142l-10 -16q-26 9 -71.5 38.5t-76.5 57.5q-31 -28 -76.5 -57.5t-71.5 -38.5l-10 16q91 52 138 142h40zM88 306h24q10 -113 82 -202.5t157 -89.5q82 0 119.5 40t37.5 96q0 49 -28.5 77t-83.5 50l-152 61q-154 61 -154 204q0 96 56 142t140 46 q40 0 78 -18.5t68 -41.5q24 -18 38 -18q17 0 20 24l4 36h24l10 -260h-24q-24 108 -88 177t-138 69q-56 0 -92 -36.5t-36 -101.5q0 -45 23 -70t68 -43l193 -77q67 -27 100.5 -77t33.5 -105q0 -83 -55 -144.5t-162 -61.5q-37 0 -77.5 17t-51.5 25t-36 25.5t-30 20.5t-9 3 q-8 0 -15.5 -10.5t-9.5 -32.5l-4 -40h-23z" />
<glyph unicode="&#x15d;" horiz-adv-x="434" d="M226 672q36 -103 111 -151l-9 -13q-68 35 -122 92q-54 -57 -122 -92l-9 13q75 48 111 151h40zM52 345q0 61 38 92t96 31q53 0 97 -32q22 -16 33 -16q14 0 16 18l2 20h18v-152h-18l-14 35q-22 54 -58.5 78.5t-76.5 24.5q-37 0 -61 -18.5t-24 -51.5q0 -23 12.5 -37.5 t33.5 -24.5q36 -19 42 -21l108 -45q48 -20 72 -48q24 -30 24 -80q0 -67 -38 -98.5t-100 -31.5q-38 0 -66 13.5t-44 27t-27 13.5q-28 0 -35 -34l-4 -20h-18v198h18l34 -72q17 -37 54.5 -69.5t88.5 -32.5q46 0 68.5 22.5t22.5 61.5q0 45 -64 71l-114 46q-116 47 -116 132z" />
<glyph unicode="&#x15e;" horiz-adv-x="620" d="M88 306h24q10 -113 82 -202.5t157 -89.5q82 0 119.5 40t37.5 96q0 49 -28.5 77t-83.5 50l-152 61q-154 62 -154 204q0 96 56 142t140 46q40 0 78 -18.5t68 -41.5q24 -18 38 -18q17 0 20 24l4 36h24l10 -260h-24q-24 108 -88 177t-138 69q-56 0 -92 -36.5t-36 -101.5 q0 -45 23 -70t68 -43l193 -77q67 -27 100 -77q34 -50 34 -105q0 -83 -55 -144.5t-162 -61.5h-4l-12 -36l26 -6q43 -10 67 -35t24 -59q0 -38 -33 -61t-93 -23q-30 0 -57 13.5t-47 37.5l16 17q37 -36 74 -36q30 0 49 14t19 44q0 28 -12 43q-11 15 -41 22l-31 7l21 61 q-33 5 -64 21t-56 35.5t-34 25.5t-16 6q-8 0 -15.5 -10.5t-9.5 -32.5l-4 -40h-23z" />
<glyph unicode="&#x15f;" horiz-adv-x="434" d="M52 345q0 61 38 92t96 31q53 0 97 -32q22 -16 33 -16q14 0 16 18l2 20h18v-152h-18l-14 35q-22 54 -58.5 78.5t-76.5 24.5q-37 0 -61 -18.5t-24 -51.5q0 -23 12.5 -37.5t33.5 -24.5q35 -18 42 -21l108 -45q48 -20 72 -48q24 -30 24 -80q0 -67 -38 -98.5t-100 -31.5 q-15 0 -21 1l-14 -42l24 -5q41 -9 64 -29.5t23 -54.5q0 -30 -29 -50t-85 -20q-23 0 -47.5 11t-38.5 25l12 16q11 -9 26.5 -16.5t35.5 -7.5q27 0 44.5 12.5t17.5 38.5q0 27 -10 39q-11 13 -34 18l-34 7l22 62q-28 8 -55.5 28.5t-37.5 20.5q-28 0 -35 -34l-4 -20h-18v198h18 l37 -79q12 -26 48.5 -60.5t91.5 -34.5q46 0 68.5 22.5t22.5 61.5q0 45 -64 71l-114 46q-116 47 -116 132z" />
<glyph unicode="&#x160;" horiz-adv-x="620" d="M132 906l12 14l148 -96l148 96l12 -14l-140 -144h-40zM88 306h24q10 -113 82 -202.5t157 -89.5q82 0 119.5 40t37.5 96q0 49 -28.5 77t-83.5 50l-152 61q-154 61 -154 204q0 96 56 142t140 46q40 0 78 -18.5t68 -41.5q24 -18 38 -18q17 0 20 24l4 36h24l10 -260h-24 q-24 108 -88 177t-138 69q-56 0 -92 -36.5t-36 -101.5q0 -45 23 -70t68 -43l193 -77q67 -27 100.5 -77t33.5 -105q0 -83 -55 -144.5t-162 -61.5q-37 0 -77.5 17t-51.5 25t-36 25.5t-30 20.5t-9 3q-8 0 -15.5 -10.5t-9.5 -32.5l-4 -40h-23z" />
<glyph unicode="&#x161;" horiz-adv-x="434" d="M74 661l13 11l119 -100l119 100l13 -11l-112 -153h-40zM52 345q0 61 38 92t96 31q53 0 97 -32q22 -16 33 -16q14 0 16 18l2 20h18v-152h-18l-14 35q-22 54 -58.5 78.5t-76.5 24.5q-37 0 -61 -18.5t-24 -51.5q0 -23 12.5 -37.5t33.5 -24.5q36 -19 42 -21l108 -45 q48 -20 72 -48q24 -30 24 -80q0 -67 -38 -98.5t-100 -31.5q-38 0 -66 13.5t-44 27t-27 13.5q-28 0 -35 -34l-4 -20h-18v198h18l34 -72q17 -37 54.5 -69.5t88.5 -32.5q46 0 68.5 22.5t22.5 61.5q0 45 -64 71l-114 46q-116 47 -116 132z" />
<glyph unicode="&#x162;" horiz-adv-x="714" d="M72 444l8 268h574l8 -268h-25q0 11 -2 35t-15 72.5t-35 76.5q-41 52 -99 52h-46q-27 0 -27 -27v-594q0 -27 27 -27h96v-32h-152l-18 -54l26 -6q43 -10 67 -35t24 -59q0 -38 -33 -61t-93 -23q-30 0 -57 13.5t-47 37.5l16 17q37 -36 74 -36q30 0 49 14t19 44q0 28 -11.5 43 t-41.5 22l-31 7l26 76h-155v32h96q27 0 27 27v594q0 27 -27 27h-46q-58 0 -99 -52q-22 -28 -35 -76.5t-15 -72.5t-2 -35h-25z" />
<glyph unicode="&#x163;" horiz-adv-x="350" d="M28 428v28h22q45 0 70.5 48.5t25.5 107.5v36h28v-192h124v-28h-124v-326q0 -70 53 -70q71 0 71 120h18q0 -23 -1 -38t-6.5 -41.5t-16.5 -42.5t-33 -29t-53 -13h-4l-13 -41l24 -5q41 -9 64 -29.5t23 -54.5q0 -30 -29 -50t-85 -20q-23 0 -47.5 11t-38.5 25l12 16 q11 -9 26.5 -16.5t35.5 -7.5q27 0 44.5 12.5t17.5 38.5q0 27 -10 39q-11 13 -34 18l-34 7l21 60q-35 9 -56 39.5t-21 76.5v321h-74z" />
<glyph unicode="&#x164;" horiz-adv-x="714" d="M208 906l12 14l148 -96l148 96l12 -14l-140 -144h-40zM72 444l8 268h574l8 -268h-25q0 11 -2 35t-15 72.5t-35 76.5q-41 52 -99 52h-46q-27 0 -27 -27v-594q0 -27 27 -27h96v-32h-338v32h96q27 0 27 27v594q0 27 -27 27h-46q-60 0 -99 -52q-22 -28 -35 -76.5t-15 -72.5 t-2 -35h-25z" />
<glyph unicode="&#x165;" horiz-adv-x="360" d="M248 676q0 20 12.5 32t31.5 12q26 0 43 -22t17 -54q0 -91 -98 -156l-10 12q32 22 54 51.5t22 56.5q0 11 -6 18q-7 8 -24 8q-18 0 -30 12.5t-12 29.5zM206 -12q-45 0 -74.5 32t-29.5 87v321h-74v28h22q45 0 70.5 48.5t25.5 107.5v36h28v-192h124v-28h-124v-326 q0 -70 53 -70q71 0 71 120h18q0 -23 -1 -38t-6.5 -41.5t-16.5 -42.5t-33 -29t-53 -13z" />
<glyph unicode="&#x166;" horiz-adv-x="714" d="M72 444l8 268h574l8 -268h-25q0 11 -2 35t-15 72.5t-35 76.5q-41 52 -99 52h-46q-27 0 -27 -27v-261h162v-36h-162v-297q0 -27 27 -27h96v-32h-338v32h96q27 0 27 27v297h-162v36h162v261q0 27 -27 27h-46q-60 0 -99 -52q-22 -28 -35 -76.5t-15 -72.5t-2 -35h-25z" />
<glyph unicode="&#x167;" horiz-adv-x="350" d="M206 -12q-45 0 -74.5 32t-29.5 87v209h-74v28h74v84h-74v28h22q45 0 70.5 48.5t25.5 107.5v36h28v-192h124v-28h-124v-84h124v-28h-124v-214q0 -70 53 -70q71 0 71 120h18q0 -23 -1 -38t-6.5 -41.5t-16.5 -42.5t-33 -29t-53 -13z" />
<glyph unicode="&#x168;" horiz-adv-x="804" d="M496 810q-32 0 -85 20t-77 20q-29 0 -36 -40h-22q0 39 21 66.5t59 27.5q32 0 85 -20t77 -20q29 0 36 40h22q0 -39 -21 -66.5t-59 -27.5zM424 -18q-69 0 -121 21.5t-82 58t-45 81t-15 94.5v416q0 27 -27 27h-72v32h291v-32h-73q-27 0 -27 -27v-443q0 -93 45 -144.5 t126 -51.5q94 0 146.5 53.5t52.5 130.5v401q0 37 -18 59t-46 22h-35v32h238v-32h-35q-28 0 -46 -22t-18 -59v-391q0 -97 -64.5 -161.5t-174.5 -64.5z" />
<glyph unicode="&#x169;" horiz-adv-x="534" d="M320 556q-32 0 -73 20t-65 20q-29 0 -36 -40h-22q0 39 21 66.5t59 27.5q32 0 73 -20t65 -20q29 0 36 40h22q0 -39 -21 -66.5t-59 -27.5zM223 -12q-50 0 -81 26q-46 37 -46 123v273q0 22 -22 22h-42v24h136v-339q0 -105 64 -105q45 0 89.5 57.5t44.5 132.5v208 q0 22 -22 22h-42v24h136v-410q0 -22 22 -22h42v-24h-136v92l-4 1q-26 -50 -62.5 -77.5t-76.5 -27.5z" />
<glyph unicode="&#x16a;" horiz-adv-x="804" d="M286 862h272v-40h-272v40zM424 -18q-69 0 -121 21.5t-82 58t-45 81t-15 94.5v416q0 27 -27 27h-72v32h291v-32h-73q-27 0 -27 -27v-443q0 -93 45 -144.5t126 -51.5q94 0 146.5 53.5t52.5 130.5v401q0 37 -18 59t-46 22h-35v32h238v-32h-35q-28 0 -46 -22t-18 -59v-391 q0 -97 -64.5 -161.5t-174.5 -64.5z" />
<glyph unicode="&#x16b;" horiz-adv-x="534" d="M132 612h260v-40h-260v40zM223 -12q-50 0 -81 26q-46 37 -46 123v273q0 22 -22 22h-42v24h136v-339q0 -105 64 -105q45 0 89.5 57.5t44.5 132.5v208q0 22 -22 22h-42v24h136v-410q0 -22 22 -22h42v-24h-136v92l-4 1q-26 -50 -62.5 -77.5t-76.5 -27.5z" />
<glyph unicode="&#x16c;" horiz-adv-x="804" d="M422 762q-72 0 -111.5 50t-39.5 104h28q9 -42 40.5 -75t82.5 -33t82.5 33t40.5 75h28q0 -54 -39.5 -104t-111.5 -50zM424 -18q-69 0 -121 21.5t-82 58t-45 81t-15 94.5v416q0 27 -27 27h-72v32h291v-32h-73q-27 0 -27 -27v-443q0 -93 45 -144.5t126 -51.5 q94 0 146.5 53.5t52.5 130.5v401q0 37 -18 59t-46 22h-35v32h238v-32h-35q-28 0 -46 -22t-18 -59v-391q0 -97 -64.5 -161.5t-174.5 -64.5z" />
<glyph unicode="&#x16d;" horiz-adv-x="534" d="M262 526q-65 0 -101.5 47.5t-36.5 92.5h22q6 -40 33.5 -70t82.5 -30t82.5 30t33.5 70h22q0 -45 -36.5 -92.5t-101.5 -47.5zM223 -12q-50 0 -81 26q-46 37 -46 123v273q0 22 -22 22h-42v24h136v-339q0 -105 64 -105q45 0 89.5 57.5t44.5 132.5v208q0 22 -22 22h-42v24h136 v-410q0 -22 22 -22h42v-24h-136v92l-4 1q-26 -50 -62.5 -77.5t-76.5 -27.5z" />
<glyph unicode="&#x16e;" horiz-adv-x="804" d="M422 754q-40 0 -68.5 28.5t-28.5 69.5q0 40 28 68t69 28t69 -28t28 -68q0 -41 -28.5 -69.5t-68.5 -28.5zM422 778q31 0 52 21t21 53q0 31 -20.5 51.5t-52.5 20.5t-52.5 -20.5t-20.5 -51.5q0 -32 21 -53t52 -21zM424 -18q-69 0 -121 21.5t-82 58t-45 81t-15 94.5v416 q0 27 -27 27h-72v32h291v-32h-73q-27 0 -27 -27v-443q0 -93 45 -144.5t126 -51.5q94 0 146.5 53.5t52.5 130.5v401q0 37 -18 59t-46 22h-35v32h238v-32h-35q-28 0 -46 -22t-18 -59v-391q0 -97 -64.5 -161.5t-174.5 -64.5z" />
<glyph unicode="&#x16f;" horiz-adv-x="534" d="M262 500q-40 0 -68.5 28.5t-28.5 69.5q0 40 28 68t69 28t69 -28t28 -68q0 -41 -28.5 -69.5t-68.5 -28.5zM262 524q31 0 52 21t21 53q0 31 -20.5 51.5t-52.5 20.5t-52.5 -20.5t-20.5 -51.5q0 -32 21 -53t52 -21zM223 -12q-50 0 -81 26q-46 37 -46 123v273q0 22 -22 22h-42 v24h136v-339q0 -105 64 -105q45 0 89.5 57.5t44.5 132.5v208q0 22 -22 22h-42v24h136v-410q0 -22 22 -22h42v-24h-136v92l-4 1q-26 -50 -62.5 -77.5t-76.5 -27.5z" />
<glyph unicode="&#x170;" horiz-adv-x="804" d="M606 938q28 0 28 -31q0 -23 -28 -44l-128 -101l-13 11l92 133q23 32 49 32zM470 938q28 0 28 -31q0 -23 -28 -44l-128 -101l-13 11l92 133q23 32 49 32zM424 -18q-69 0 -121 21.5t-82 58t-45 81t-15 94.5v416q0 27 -27 27h-72v32h291v-32h-73q-27 0 -27 -27v-443 q0 -93 45 -144.5t126 -51.5q94 0 146.5 53.5t52.5 130.5v401q0 37 -18 59t-46 22h-35v32h238v-32h-35q-28 0 -46 -22t-18 -59v-391q0 -97 -64.5 -161.5t-174.5 -64.5z" />
<glyph unicode="&#x171;" horiz-adv-x="534" d="M446 684q28 0 28 -31q0 -23 -28 -44l-128 -101l-13 11l92 133q23 32 49 32zM310 684q28 0 28 -31q0 -23 -28 -44l-128 -101l-13 11l92 133q23 32 49 32zM223 -12q-50 0 -81 26q-46 37 -46 123v273q0 22 -22 22h-42v24h136v-339q0 -105 64 -105q45 0 89.5 57.5t44.5 132.5 v208q0 22 -22 22h-42v24h136v-410q0 -22 22 -22h42v-24h-136v92l-4 1q-26 -50 -62.5 -77.5t-76.5 -27.5z" />
<glyph unicode="&#x172;" horiz-adv-x="804" d="M62 680v32h291v-32h-73q-27 0 -27 -27v-443q0 -93 45 -144.5t126 -51.5q94 0 146.5 53.5t52.5 130.5v401q0 37 -18 59t-46 22h-35v32h238v-32h-35q-28 0 -46 -22t-18 -59v-391q0 -77 -37.5 -129t-95.5 -78q-22 -10 -54 -38q-44 -39 -44 -98q0 -25 14 -42t38 -17 q37 0 62 27l12 -9q-33 -62 -99 -62q-44 0 -69.5 24.5t-25.5 65.5q0 37 26 70.5t64 56.5v5q-13 -2 -30 -2q-69 0 -121 21.5t-82 58t-45 81t-15 94.5v416q0 27 -27 27h-72z" />
<glyph unicode="&#x173;" horiz-adv-x="534" d="M223 -12q-50 0 -81 26q-46 37 -46 123v273q0 22 -22 22h-42v24h136v-339q0 -105 64 -105q45 0 89.5 57.5t44.5 132.5v208q0 22 -22 22h-42v24h136v-410q0 -22 22 -22h42v-24h-28q-45 -33 -66.5 -62.5t-21.5 -66.5q0 -47 44 -47q29 0 58 34l14 -10q-37 -68 -93 -68 q-33 0 -56 21.5t-23 56.5q0 67 106 138v4h-70v92l-4 1q-26 -50 -62.5 -77.5t-76.5 -27.5z" />
<glyph unicode="&#x174;" horiz-adv-x="1068" d="M566 920q47 -90 138 -142l-10 -16q-26 9 -71.5 38.5t-76.5 57.5q-31 -28 -76.5 -57.5t-71.5 -38.5l-10 16q91 52 138 142h40zM349 -18l-190 654q-16 44 -59 44h-62v32h296v-32h-48q-14 0 -24 -7.5t-10 -17.5q0 -8 4 -22l133 -460l121 438l-10 32q-13 37 -71 37h-29v32 h296v-32h-39q-51 0 -51 -52q0 -14 6 -31l126 -433l125 394q11 43 11 72q0 20 -18 35t-48 15h-34v32h270v-32h-43q-58 0 -81 -73l-199 -625h-25l-164 556l-158 -556h-25z" />
<glyph unicode="&#x175;" horiz-adv-x="776" d="M408 672q36 -103 111 -151l-9 -13q-68 35 -122 92q-54 -57 -122 -92l-9 13q75 48 111 151h40zM264 -12l-161 385q-4 9 -7.5 17.5t-7 15t-7.5 11.5t-9.5 8.5t-13 5t-17.5 1.5h-23v24h216v-24h-28q-12 0 -22 -6.5t-10 -17.5q0 -17 6 -33l112 -270l71 237q4 10 4 21 q0 5 -11 33q-17 36 -43 36h-23v24h216v-24h-40q-14 0 -21 -6t-7.5 -10.5t-0.5 -13.5q0 -14 5 -27l96 -270l81 237q11 31 11 51q0 39 -36 39h-24v24h182v-24h-23q-49 0 -69 -59l-136 -385h-18l-120 328l-104 -328h-18z" />
<glyph unicode="&#x176;" horiz-adv-x="728" d="M412 920q47 -90 138 -142l-10 -16q-26 9 -71.5 38.5t-76.5 57.5q-31 -28 -76.5 -57.5t-71.5 -38.5l-10 16q91 52 138 142h40zM224 0v32h96q27 0 27 27v259l-194 318q-15 26 -27 35t-32 9h-52v32h310v-32h-56q-15 0 -25 -7t-10 -18q0 -15 5 -22l154 -267l102 196 q5 7 11 28t6 33q0 24 -13.5 40.5t-41.5 16.5h-30v32h248v-32h-29q-24 0 -43 -13.5t-27 -25t-21 -34.5l-143 -272v-276q0 -27 27 -27h96v-32h-338z" />
<glyph unicode="&#x177;" horiz-adv-x="530" d="M296 672q36 -103 111 -151l-9 -13q-68 35 -122 92q-54 -57 -122 -92l-9 13q75 48 111 151h40zM134 -238q-39 0 -64 25q-28 26 -28 63q0 28 16 42q15 15 34 15q23 0 34.5 -14.5t11.5 -36.5q0 -12 -8 -28q-6 -10 -6 -19q0 -15 20 -15q30 0 50.5 23.5t30.5 55.5l27 87 l-142 413q-8 22 -13.5 32.5t-17 18.5t-28.5 8h-33v24h226v-24h-32q-12 0 -22 -6.5t-10 -17.5q0 -17 6 -33l104 -307l83 274q11 31 11 51q0 17 -10 28t-26 11h-24v24h182v-24h-23q-49 0 -69 -59l-161 -512q-11 -37 -42 -68t-77 -31z" />
<glyph unicode="&#x179;" horiz-adv-x="652" d="M476 938q28 0 28 -31q0 -23 -28 -44l-128 -101l-13 11l92 133q23 32 49 32zM68 0v32l414 648h-188q-59 0 -109 -58q-33 -39 -52.5 -96.5t-19.5 -69.5h-25l36 256h464v-32l-410 -648h221q55 0 103 56q25 29 44.5 77.5t27.5 82.5l7 34h25l-24 -282h-514z" />
<glyph unicode="&#x17a;" horiz-adv-x="440" d="M336 684q28 0 28 -31q0 -23 -28 -44l-128 -101l-13 11l92 133q23 32 49 32zM40 0v26l260 406h-122q-63 0 -88 -50q-15 -30 -22 -66l-8 -36h-20l6 176h336v-32l-259 -400h127q63 0 88 50q15 30 22 66l8 36h20l-6 -176h-342z" />
<glyph unicode="&#x17b;" horiz-adv-x="652" d="M360 798q-22 0 -37 15t-15 37t15 37t37 15t37 -15t15 -37t-15 -37t-37 -15zM68 0v32l414 648h-188q-59 0 -109 -58q-33 -39 -52.5 -96.5t-19.5 -69.5h-25l36 256h464v-32l-410 -648h221q55 0 103 56q25 29 44.5 77.5t27.5 82.5l7 34h25l-24 -282h-514z" />
<glyph unicode="&#x17c;" horiz-adv-x="440" d="M220 544q-22 0 -37 15t-15 37t15 37t37 15t37 -15t15 -37t-15 -37t-37 -15zM40 0v26l260 406h-122q-63 0 -88 -50q-15 -30 -22 -66l-8 -36h-20l6 176h336v-32l-259 -400h127q63 0 88 50q15 30 22 66l8 36h20l-6 -176h-342z" />
<glyph unicode="&#x17d;" horiz-adv-x="652" d="M200 906l12 14l148 -96l148 96l12 -14l-140 -144h-40zM68 0v32l414 648h-188q-59 0 -109 -58q-33 -39 -52.5 -96.5t-19.5 -69.5h-25l36 256h464v-32l-410 -648h221q55 0 103 56q25 29 44.5 77.5t27.5 82.5l7 34h25l-24 -282h-514z" />
<glyph unicode="&#x17e;" horiz-adv-x="440" d="M88 661l13 11l119 -100l119 100l13 -11l-112 -153h-40zM40 0v26l260 406h-122q-63 0 -88 -50q-15 -30 -22 -66l-8 -36h-20l6 176h336v-32l-259 -400h127q63 0 88 50q15 30 22 66l8 36h20l-6 -176h-342z" />
<glyph unicode="&#x17f;" horiz-adv-x="330" d="M28 0v24h52q22 0 22 22v479q0 98 46 146.5t107 48.5q43 0 73 -26.5t30 -75.5q0 -26 -12.5 -41t-34.5 -15q-18 0 -29.5 11.5t-11.5 30.5q0 24 18 36q16 9 16 24q0 32 -51 32q-79 0 -79 -143v-507q0 -22 22 -22h72v-24h-240z" />
<glyph unicode="&#x180;" horiz-adv-x="512" d="M290 12q48 0 67 56.5t19 159.5t-19 159.5t-67 56.5q-47 0 -84.5 -56.5t-37.5 -125.5v-93q0 -61 33.5 -109t88.5 -48zM96 0v556h-74v28h74v82q0 22 -22 22h-52v24h146v-128h184v-28h-184v-164l6 -2q20 33 52.5 55.5t65.5 22.5q79 0 125.5 -69t46.5 -171t-48.5 -171 t-127.5 -69q-87 0 -142 96l-4 -2l-28 -82h-18z" />
<glyph unicode="&#x186;" horiz-adv-x="670" d="M84 453q4 37 14 72t30 73t47 66.5t70 47t95 18.5q56 0 103 -20t79.5 -55t55 -82t32.5 -100t10 -111q0 -60 -12 -116t-36 -104t-57 -84t-78 -56t-97 -20q-61 0 -124 46q-16 10 -26 19q-16 14 -28 14q-8 0 -11.5 -4.5t-8.5 -17.5l-17 -49h-25v278h25q33 -122 92.5 -188 t122.5 -66q42 0 73 17t50 46t31 75t16 95t4 115q0 48 -1.5 83.5t-6 72t-12.5 62.5t-21 49.5t-31 38t-44 22.5t-58 8q-40 0 -74.5 -14t-58.5 -37t-42.5 -55t-29 -67t-15.5 -72h-36z" />
<glyph unicode="&#x18e;" horiz-adv-x="690" d="M648 712v-32h-72q-27 0 -27 -27v-594q0 -27 27 -27h72v-32h-558l-12 268h25l4 -32q4 -33 18.5 -79t34.5 -74q20 -26 51.5 -38.5t58.5 -12.5h160q27 0 27 27v285h-88q-27 0 -45 -12.5t-25.5 -36t-9.5 -43t-2 -47.5h-26v313h26q0 -27 2.5 -47t9.5 -43t25 -35.5t45 -12.5h88 v273q0 27 -27 27h-161q-79 0 -117 -58q-18 -27 -28 -61t-12 -55l-1 -20h-25l4 226h558z" />
<glyph unicode="&#x18f;" horiz-adv-x="670" d="M340 -18q-92 0 -154 52.5t-89 137t-27 196.5h444q0 80 -8 136t-27.5 102t-56.5 69t-92 23q-106 0 -167 -102q-32 -53 -44 -128h-36q14 84 49 144q69 118 198 118q93 0 160.5 -55t98.5 -138t31 -181q0 -101 -32.5 -185.5t-97.5 -136.5t-150 -52zM340 14q64 0 103 41 t54 108t17 169h-338q0 -46 4 -88t15.5 -85t29 -74t47 -51t68.5 -20z" />
<glyph unicode="&#x190;" horiz-adv-x="624" d="M70 193q0 69 50 117.5t108 59.5v10q-46 8 -93 50.5t-47 109.5q0 24 7 48.5t24 50.5t42.5 46t65.5 32.5t89 12.5q73 0 143 -48q27 -18 39 -18q15 0 20 22l7 36h25v-259h-25q-16 112 -72 173.5t-137 61.5q-65 0 -98.5 -44t-33.5 -109q0 -62 31 -107.5t95 -45.5h100v-36 h-102q-47 0 -78 -27t-42.5 -63.5t-11.5 -79.5q0 -172 178 -172q53 0 106.5 28t53.5 70q0 24 -22 48q-29 29 -29 56q0 20 13 34t36 14q31 0 50.5 -25t19.5 -64q0 -86 -67.5 -139.5t-160.5 -53.5q-80 0 -141 19t-102 68t-41 124z" />
<glyph unicode="&#x195;" horiz-adv-x="710" d="M28 0v24h56q22 0 22 22v620q0 22 -22 22h-56v24h150v-348l4 -1q26 50 62.5 77.5t76.5 27.5q50 0 81 -26q46 -37 46 -123v-219q0 -33 19.5 -58.5t49.5 -25.5q36 0 62 30.5t36.5 70t10.5 81.5q0 77 -39 130q-51 68 -51 96q0 44 40 44q82 0 82 -241q0 -59 -13.5 -110.5 t-49 -90t-89.5 -38.5q-60 0 -95 38t-35 94v219q0 105 -64 105q-45 0 -89.5 -57.5t-44.5 -132.5v-208q0 -22 22 -22h42v-24h-214z" />
<glyph unicode="&#x1a6;" horiz-adv-x="720" d="M253 274h97q155 0 155 152q0 61 -32.5 94.5t-88.5 33.5h-104q-27 0 -27 -27v-253zM62 0v32h72q27 0 27 27v594q0 27 -27 27h-72v32h306v-32h-88q-27 0 -27 -27v-67h145q95 0 154 -40.5t59 -123.5q0 -73 -55 -116.5t-134 -51.5v-4q124 -23 139 -218q6 -78 19 -111t38 -33 q28 0 41.5 36t13.5 76h25q0 -73 -29.5 -120.5t-89.5 -47.5q-34 0 -61 19t-39 55q-18 52 -20 143q-3 95 -24 144t-77 49h-105v-183q0 -27 27 -27h89v-32h-307z" />
<glyph unicode="&#x1b7;" horiz-adv-x="614" d="M66 150q0 42 27 70t63 28q31 0 47.5 -17t16.5 -40q0 -44 -53 -61q-33 -10 -33 -38q0 -25 22 -43t56 -26.5t74 -8.5q84 0 132 53.5t48 137.5q0 77 -35 125t-106 48q-53 0 -106 -46l-19 20l248 264h-202q-38 0 -54.5 -7t-33.5 -25q-16 -18 -26 -45t-11.5 -40t-1.5 -19h-25 l15 232h441v-36l-249 -266l3 -4q22 4 46 4q98 0 160 -54t62 -150q0 -100 -82 -162t-204 -62q-105 0 -162.5 47t-57.5 121z" />
<glyph unicode="&#x1bf;" horiz-adv-x="500" d="M364 334q0 90 -62 90q-45 0 -88.5 -62t-43.5 -130v-205q52 26 90 61q49 46 76.5 111t27.5 135zM36 -252l-10 24l52 22q20 8 20 28v564q0 18 -16 18q-5 0 -16 -4l-30 -11l-10 24l116 49h28v-110l6 -2q28 55 72 86.5t88 31.5q46 0 81 -29t35 -90q0 -68 -44 -140t-114 -131 q-56 -47 -124 -78v-199z" />
<glyph unicode="&#x1c4;" horiz-adv-x="652" d="M848 0v32l414 648h-188q-59 0 -109 -58q-33 -39 -52.5 -96.5t-19.5 -69.5h-25l36 256h464v-32l-410 -648h221q55 0 103 56q25 29 44.5 77.5t27.5 82.5l7 34h25l-24 -282h-514zM980 906l12 14l148 -96l148 96l12 -14l-140 -144h-40zM62 0v32h72q27 0 27 27v594 q0 27 -27 27h-72v32h366q127 0 214.5 -98.5t87.5 -251.5q0 -154 -88 -258t-214 -104h-366zM624 362q0 85 -18 153.5t-64.5 116.5t-117.5 48h-144q-27 0 -27 -27v-594q0 -27 27 -27h144q53 0 93.5 29t63 77.5t33 104.5t10.5 119z" />
<glyph unicode="&#x1c5;" horiz-adv-x="1220" d="M820 0v26l260 406h-122q-63 0 -88 -50q-15 -30 -22 -66l-8 -36h-20l6 176h336v-32l-259 -400h127q63 0 88 50q15 30 22 66l8 36h20l-6 -176h-342zM868 661l13 11l119 -100l119 100l13 -11l-112 -153h-40zM62 0v32h72q27 0 27 27v594q0 27 -27 27h-72v32h366 q127 0 214.5 -98.5t87.5 -251.5q0 -154 -88 -258t-214 -104h-366zM624 362q0 85 -18 153.5t-64.5 116.5t-117.5 48h-144q-27 0 -27 -27v-594q0 -27 27 -27h144q53 0 93.5 29t63 77.5t33 104.5t10.5 119z" />
<glyph unicode="&#x1c6;" horiz-adv-x="962" d="M562 0v26l260 406h-122q-63 0 -88 -50q-15 -30 -22 -66l-8 -36h-20l6 176h336v-32l-259 -400h127q63 0 88 50q15 30 22 66l8 36h20l-6 -176h-342zM610 661l13 11l119 -100l119 100l13 -11l-112 -153h-40zM222 12q55 0 88.5 48t33.5 109v93q0 69 -37.5 125.5t-84.5 56.5 q-48 0 -67 -56.5t-19 -159.5t19 -159.5t67 -56.5zM344 0v42l-5 3q-49 -57 -115 -57q-79 0 -127.5 69t-48.5 171t46.5 171t125.5 69q33 0 65.5 -22.5t52.5 -55.5l6 2v274q0 22 -22 22h-72v24h166v-666q0 -22 22 -22h52v-24h-146z" />
<glyph unicode="&#x1c7;" horiz-adv-x="1210" d="M1178 712v-32h-72q-27 0 -27 -27v-459q0 -98 -57 -155t-138 -57q-74 0 -122 39t-48 106q0 43 23 67t54 24q29 0 45 -16t16 -41q0 -20 -14 -34.5t-34 -14.5q-16 0 -23 -7t-7 -23q0 -31 32 -49.5t78 -18.5q49 0 76 38t27 91v510q0 27 -27 27h-72v32h290zM62 0v32h72 q27 0 27 27v594q0 27 -27 27h-72v32h306v-32h-88q-27 0 -27 -27v-594q0 -27 27 -27h140q26 0 58 13t52 39q20 28 34.5 74t18.5 78l4 33h25l-13 -269h-537z" />
<glyph unicode="&#x1c8;" horiz-adv-x="990" d="M722 432v24h166v-499q0 -98 -46 -146.5t-107 -48.5q-43 0 -73 26.5t-30 75.5q0 26 12.5 41t34.5 15q18 0 29.5 -11.5t11.5 -30.5q0 -24 -18 -36q-16 -9 -16 -24q0 -32 51 -32q79 0 79 143v481q0 22 -22 22h-72zM846 580q-22 0 -37 15t-15 37t15 37t37 15t37 -15t15 -37 t-15 -37t-37 -15zM62 0v32h72q27 0 27 27v594q0 27 -27 27h-72v32h306v-32h-88q-27 0 -27 -27v-594q0 -27 27 -27h140q26 0 58 13t52 39q20 28 34.5 74t18.5 78l4 33h25l-13 -269h-537z" />
<glyph unicode="&#x1c9;" horiz-adv-x="590" d="M322 432v24h166v-499q0 -98 -46 -146.5t-107 -48.5q-43 0 -73 26.5t-30 75.5q0 26 12.5 41t34.5 15q18 0 29.5 -11.5t11.5 -30.5q0 -24 -18 -36q-16 -9 -16 -24q0 -32 51 -32q79 0 79 143v481q0 22 -22 22h-72zM446 580q-22 0 -37 15t-15 37t15 37t37 15t37 -15t15 -37 t-15 -37t-37 -15zM28 0v24h52q22 0 22 22v620q0 22 -22 22h-52v24h146v-666q0 -22 22 -22h52v-24h-220z" />
<glyph unicode="&#x1ca;" horiz-adv-x="1310" d="M1278 712v-32h-72q-27 0 -27 -27v-459q0 -98 -57 -155t-138 -57q-74 0 -122 39t-48 106q0 43 23 67t54 24q29 0 45 -16t16 -41q0 -20 -14 -34.5t-34 -14.5q-16 0 -23 -7t-7 -23q0 -31 32 -49.5t78 -18.5q49 0 76 38t27 91v510q0 27 -27 27h-72v32h290zM62 0v32h36 q29 0 46 21.5t17 58.5v541q-1 27 -27 27h-72v32h189l347 -558v446q0 37 -17 58.5t-45 21.5h-36v32h238v-32h-36q-28 0 -46 -21.5t-18 -58.5v-618h-40l-393 621h-4v-491q0 -37 17.5 -58.5t45.5 -21.5h36v-32h-238z" />
<glyph unicode="&#x1cb;" horiz-adv-x="1090" d="M822 432v24h166v-499q0 -98 -46 -146.5t-107 -48.5q-43 0 -73 26.5t-30 75.5q0 26 12.5 41t34.5 15q18 0 29.5 -11.5t11.5 -30.5q0 -24 -18 -36q-16 -9 -16 -24q0 -32 51 -32q79 0 79 143v481q0 22 -22 22h-72zM946 580q-22 0 -37 15t-15 37t15 37t37 15t37 -15t15 -37 t-15 -37t-37 -15zM62 0v32h36q29 0 46 21.5t17 58.5v541q-1 27 -27 27h-72v32h189l347 -558v446q0 37 -17 58.5t-45 21.5h-36v32h238v-32h-36q-28 0 -46 -21.5t-18 -58.5v-618h-40l-393 621h-4v-491q0 -37 17.5 -58.5t45.5 -21.5h36v-32h-238z" />
<glyph unicode="&#x1cc;" horiz-adv-x="848" d="M580 432v24h166v-499q0 -98 -46 -146.5t-107 -48.5q-43 0 -73 26.5t-30 75.5q0 26 12.5 41t34.5 15q18 0 29.5 -11.5t11.5 -30.5q0 -24 -18 -36q-16 -9 -16 -24q0 -32 51 -32q79 0 79 143v481q0 22 -22 22h-72zM704 580q-22 0 -37 15t-15 37t15 37t37 15t37 -15t15 -37 t-15 -37t-37 -15zM38 0v24h42q22 0 22 22v364q0 22 -22 22h-42v24h136v-92l4 -1q26 50 62.5 77.5t76.5 27.5q50 0 81 -26q46 -37 46 -123v-273q0 -22 22 -22h42v-24h-200v24h42q22 0 22 22v293q0 105 -64 105q-45 0 -89.5 -57.5t-44.5 -132.5v-208q0 -22 22 -22h42v-24h-200 z" />
<glyph unicode="&#x1dd;" horiz-adv-x="460" d="M228 12q49 0 72.5 57.5t23.5 134.5h-190q0 -78 22.5 -135t71.5 -57zM224 -12q-44 0 -79.5 22.5t-55.5 59t-30.5 78.5t-10.5 84h276q0 102 -25 157t-89 55q-20 0 -38.5 -6.5t-37.5 -21t-33 -44.5t-19 -72h-24q6 74 45 121t109 47q91 0 145.5 -67t54.5 -173q0 -96 -53 -168 t-135 -72z" />
<glyph unicode="&#x1e2;" horiz-adv-x="1004" d="M514 862h272v-40h-272v40zM26 0v32h32q33 0 57.5 18t43.5 55l266 503q10 19 13 28q4 12 4 24q0 20 -25 20h-41v32h558l4 -226h-25l-1 20q-1 16 -12 55q-10 34 -28 61q-38 58 -117 58h-161q-27 0 -27 -27v-273h88q27 0 45 12.5t25 35.5t9.5 43t2.5 47h26v-313h-26 q0 28 -2 47.5t-9.5 43t-25.5 36t-45 12.5h-88v-285q0 -27 27 -27h159q30 0 59 12q34 14 53 40q20 28 34 74t18 78l4 32h25l-12 -268h-553v32h67q27 0 27 27v151h-217l-35 -65q-18 -33 -18 -66q0 -47 44 -47h47v-32h-270zM475 246v374l-198 -374h198z" />
<glyph unicode="&#x1e3;" horiz-adv-x="704" d="M226 612h260v-40h-260v40zM46 106q0 31 12 55.5t27.5 38t42 24.5t43.5 15.5t45 9.5l92 17v85q0 93 -93 93q-34 0 -62 -17.5t-28 -39.5q0 -10 3 -15q4 -8 15 -10q37 -10 37 -39q0 -39 -44 -39q-22 0 -40 17t-18 49q0 55 43 86.5t97 31.5q98 0 138 -60q53 60 124 60 q44 0 79.5 -22.5t55.5 -59t30.5 -78.5t10.5 -84h-276q0 -102 25 -157t89 -55q20 0 38.5 6.5t37.5 21t33 44.5t19 72h24q-6 -74 -45 -121t-109 -47q-123 0 -177 121q-17 -50 -54.5 -85.5t-84.5 -35.5q-53 0 -91.5 26t-38.5 92zM380 252h190q0 78 -22.5 135t-71.5 57 t-72.5 -57.5t-23.5 -134.5zM130 103q0 -79 62 -79q24 0 43.5 11.5t33.5 34t22 39t17 41.5v95l-87 -19q-48 -10 -69.5 -39.5t-21.5 -83.5z" />
<glyph unicode="&#x1ea;" horiz-adv-x="700" d="M70 356q0 95 35.5 180t103 139.5t151.5 54.5t151.5 -54.5t103 -139.5t35.5 -180q0 -139 -74 -247.5t-181 -124.5q-36 -4 -61 -36q-30 -37 -30 -83q0 -25 14 -42t38 -17q37 0 62 27l12 -9q-33 -62 -99 -62q-44 0 -69.5 24.5t-25.5 65.5q0 68 93 128v4 q-114 15 -186.5 124.5t-72.5 247.5zM176 356q0 -342 184 -342t184 342t-184 342t-184 -342z" />
<glyph unicode="&#x1eb;" horiz-adv-x="496" d="M136 228q0 -216 112 -216t112 216t-112 216t-112 -216zM48 228q0 99 58 169.5t142 70.5t142 -70.5t58 -169.5q0 -92 -46 -154.5t-120 -82.5q-38 -10 -65 -46.5t-27 -73.5q0 -47 44 -47q29 0 58 34l14 -10q-37 -68 -93 -68q-33 0 -56 21.5t-23 56.5q0 69 96 129v2 q-77 8 -129.5 76.5t-52.5 162.5z" />
<glyph unicode="&#x1ec;" horiz-adv-x="700" d="M224 862h272v-40h-272v40zM70 356q0 95 35.5 180t103 139.5t151.5 54.5t151.5 -54.5t103 -139.5t35.5 -180q0 -139 -74 -247.5t-181 -124.5q-36 -4 -61 -36q-30 -37 -30 -83q0 -25 14 -42t38 -17q37 0 62 27l12 -9q-33 -62 -99 -62q-44 0 -69.5 24.5t-25.5 65.5 q0 68 93 128v4q-114 15 -186.5 124.5t-72.5 247.5zM176 356q0 -342 184 -342t184 342t-184 342t-184 -342z" />
<glyph unicode="&#x1ed;" horiz-adv-x="496" d="M118 612h260v-40h-260v40zM136 228q0 -216 112 -216t112 216t-112 216t-112 -216zM48 228q0 99 58 169.5t142 70.5t142 -70.5t58 -169.5q0 -92 -46 -154.5t-120 -82.5q-38 -10 -65 -46.5t-27 -73.5q0 -47 44 -47q29 0 58 34l14 -10q-37 -68 -93 -68q-33 0 -56 21.5 t-23 56.5q0 69 96 129v2q-77 8 -129.5 76.5t-52.5 162.5z" />
<glyph unicode="&#x1f0;" horiz-adv-x="320" d="M44 661l13 11l119 -100l119 100l13 -11l-112 -153h-40zM52 432v24h166v-499q0 -98 -46 -146.5t-107 -48.5q-43 0 -73 26.5t-30 75.5q0 26 12.5 41t34.5 15q18 0 29.5 -11.5t11.5 -30.5q0 -24 -18 -36q-16 -9 -16 -24q0 -32 51 -32q79 0 79 143v481q0 22 -22 22h-72z" />
<glyph unicode="&#x1f1;" horiz-adv-x="1432" d="M848 0v32l414 648h-188q-59 0 -109 -58q-33 -39 -52.5 -96.5t-19.5 -69.5h-25l36 256h464v-32l-410 -648h221q55 0 103 56q25 29 44.5 77.5t27.5 82.5l7 34h25l-24 -282h-514zM62 0v32h72q27 0 27 27v594q0 27 -27 27h-72v32h366q127 0 214.5 -98.5t87.5 -251.5 q0 -154 -88 -258t-214 -104h-366zM624 362q0 85 -18 153.5t-64.5 116.5t-117.5 48h-144q-27 0 -27 -27v-594q0 -27 27 -27h144q53 0 93.5 29t63 77.5t33 104.5t10.5 119z" />
<glyph unicode="&#x1f2;" horiz-adv-x="1220" d="M820 0v26l260 406h-122q-63 0 -88 -50q-15 -30 -22 -66l-8 -36h-20l6 176h336v-32l-259 -400h127q63 0 88 50q15 30 22 66l8 36h20l-6 -176h-342zM62 0v32h72q27 0 27 27v594q0 27 -27 27h-72v32h366q127 0 214.5 -98.5t87.5 -251.5q0 -154 -88 -258t-214 -104h-366z M624 362q0 85 -18 153.5t-64.5 116.5t-117.5 48h-144q-27 0 -27 -27v-594q0 -27 27 -27h144q53 0 93.5 29t63 77.5t33 104.5t10.5 119z" />
<glyph unicode="&#x1f3;" horiz-adv-x="962" d="M562 0v26l260 406h-122q-63 0 -88 -50q-15 -30 -22 -66l-8 -36h-20l6 176h336v-32l-259 -400h127q63 0 88 50q15 30 22 66l8 36h20l-6 -176h-342zM222 12q55 0 88.5 48t33.5 109v93q0 69 -37.5 125.5t-84.5 56.5q-48 0 -67 -56.5t-19 -159.5t19 -159.5t67 -56.5zM344 0 v42l-5 3q-49 -57 -115 -57q-79 0 -127.5 69t-48.5 171t46.5 171t125.5 69q33 0 65.5 -22.5t52.5 -55.5l6 2v274q0 22 -22 22h-72v24h166v-666q0 -22 22 -22h52v-24h-146z" />
<glyph unicode="&#x1f4;" horiz-adv-x="720" d="M474 938q28 0 28 -31q0 -23 -28 -44l-128 -101l-13 11l92 133q23 32 49 32zM350 730q61 0 124 -46q16 -11 26 -19q15 -14 28 -14q8 0 11.5 4.5t8.5 17.5l17 49h25v-278h-25q-33 122 -92.5 188t-122.5 66q-53 0 -88 -24t-53.5 -71.5t-25.5 -106t-7 -140.5t7 -140 t25.5 -106t53.5 -72t88 -24q56 0 102 56.5t46 118.5v106q0 27 -27 27h-72v32h291v-32h-73q-27 0 -27 -27v-308h-32v91q0 34 -17 34t-35 -30q-23 -37 -65 -68.5t-91 -31.5q-85 0 -149 51t-97.5 134.5t-33.5 188.5q0 101 32.5 185.5t97.5 136.5t150 52z" />
<glyph unicode="&#x1f5;" horiz-adv-x="540" d="M378 684q28 0 28 -31q0 -23 -28 -44l-128 -101l-13 11l92 133q23 32 49 32zM52 -122q0 37 29 65t69 34v3q-88 19 -88 74q0 41 31.5 64.5t77.5 31.5v3q-101 43 -101 151q0 76 52.5 120t125.5 44q42 0 82.5 -19t50.5 -33q9 26 29 39t40 13q34 0 56 -20t22 -52 q0 -24 -11.5 -39t-30.5 -15q-16 0 -28 8.5t-12 27.5q0 22 17 32q11 7 11 18q0 16 -27 16q-18 0 -32.5 -14.5t-16.5 -33.5q28 -39 28 -92q0 -75 -51.5 -119.5t-126.5 -44.5q-57 0 -101.5 -15.5t-44.5 -51.5q0 -33 64 -33q21 0 34 1q12 1 31 1h103q64 0 107 -34.5t43 -101.5 q0 -70 -59.5 -107t-156.5 -37q-88 0 -152 28t-64 88zM150 304q0 -66 26 -103t72 -37t72 37t26 103t-26 103t-72 37t-72 -37t-26 -103zM96 -120q0 -47 53 -70.5t119 -23.5q45 0 82.5 8.5t67.5 35t30 68.5q0 31 -18.5 53.5t-64.5 22.5h-111q-40 0 -73 -7.5t-59 -29.5t-26 -57z " />
<glyph unicode="&#x1f6;" horiz-adv-x="956" d="M62 0v32h72q27 0 27 27v594q0 27 -27 27h-72v32h290v-32h-72q-27 0 -27 -27v-261h302v261q0 27 -27 27h-72v32h290v-32h-72q-27 0 -27 -27v-500q0 -42 10.5 -70t30 -39t34.5 -14.5t36 -3.5q50 0 83 49.5t33 99.5q0 67 -46 98q-63 42 -63 78q0 22 13 36.5t32 14.5 q48 0 76 -56t28 -132q0 -94 -51 -163t-134 -69q-78 0 -126 49t-48 143v182h-302v-297q0 -27 27 -27h72v-32h-290z" />
<glyph unicode="&#x1f7;" horiz-adv-x="624" d="M434 730q57 0 103.5 -65.5t46.5 -142.5q0 -169 -100 -290q-85 -103 -234 -150v-181l-164 -69l-14 30l66 29q20 9 20 28v710q0 20 -16 20q-7 0 -16 -4l-40 -17l-14 30l142 64h36v-99q37 13 87 55q63 52 97 52zM378 638q-37 0 -76 -26q-28 -18 -52 -26v-470q78 22 141 79 q101 92 101 263q0 40 -11.5 79.5t-38.5 70t-64 30.5z" />
<glyph unicode="&#x1fa;" horiz-adv-x="764" d="M374 877l60 57q18 18 35 18q7 0 12 -5.5t5 -13.5q0 -16 -29 -30l-77 -35zM312 796q0 30 24 47t60 17t60 -17t24 -47t-24 -47t-60 -17t-60 17t-24 47zM336 796q0 -40 60 -40t60 40t-60 40t-60 -40zM266 246h205l-104 303zM46 0v32h37q58 0 84 73l217 607h25l217 -636 q18 -44 60 -44h56v-32h-310v32h66q15 0 25 7.5t10 17.5q0 13 -4 22l-45 131h-231l-23 -65q-14 -40 -14 -60q0 -21 11.5 -37t39.5 -16h53v-32h-274z" />
<glyph unicode="&#x1fb;" horiz-adv-x="500" d="M344 872q28 0 28 -31q0 -23 -28 -44l-128 -101l-13 11l92 133q23 32 49 32zM228 484q-40 0 -68.5 28.5t-28.5 69.5q0 40 28 68t69 28t69 -28t28 -68q0 -41 -28.5 -69.5t-68.5 -28.5zM228 508q31 0 52 21t21 53q0 31 -20.5 51.5t-52.5 20.5t-52.5 -20.5t-20.5 -51.5 q0 -32 21 -53t52 -21zM130 103q0 -79 62 -79q24 0 43.5 11.5t34 34t22 39t16.5 41.5v95l-87 -19q-48 -10 -69.5 -39.5t-21.5 -83.5zM46 106q0 31 12 55.5t27.5 38.5t42.5 25t43.5 15t44.5 9l92 17v85q0 93 -93 93q-34 0 -62 -17.5t-28 -39.5q0 -10 3 -15q4 -8 15 -10 q37 -10 37 -39q0 -39 -44 -39q-22 0 -40 17t-18 49q0 55 43 86.5t97 31.5q66 0 114 -34.5t48 -107.5v-246q0 -50 31 -50q47 0 47 100h18q0 -142 -80 -142q-85 0 -88 96l-5 2q-15 -35 -48.5 -66.5t-78.5 -31.5q-53 0 -91.5 26t-38.5 92z" />
<glyph unicode="&#x1fc;" horiz-adv-x="1004" d="M766 938q28 0 28 -31q0 -23 -28 -44l-128 -101l-13 11l92 133q23 32 49 32zM26 0v32h32q33 0 57.5 18t43.5 55l266 503q10 19 13 28q4 12 4 24q0 20 -25 20h-41v32h558l4 -226h-25l-1 20q-1 16 -12 55q-10 34 -28 61q-38 58 -117 58h-161q-27 0 -27 -27v-273h88 q27 0 45 12.5t25 35.5t9.5 43t2.5 47h26v-313h-26q0 28 -2 47.5t-9.5 43t-25.5 36t-45 12.5h-88v-285q0 -27 27 -27h159q30 0 59 12q34 14 53 40q20 28 34 74t18 78l4 32h25l-12 -268h-553v32h67q27 0 27 27v151h-217l-35 -65q-18 -33 -18 -66q0 -47 44 -47h47v-32h-270z M475 246v374l-198 -374h198z" />
<glyph unicode="&#x1fd;" horiz-adv-x="704" d="M472 684q28 0 28 -31q0 -23 -28 -44l-128 -101l-13 11l92 133q23 32 49 32zM46 106q0 31 12 55.5t27.5 38t42 24.5t43.5 15.5t45 9.5l92 17v85q0 93 -93 93q-34 0 -62 -17.5t-28 -39.5q0 -10 3 -15q4 -8 15 -10q37 -10 37 -39q0 -39 -44 -39q-22 0 -40 17t-18 49 q0 55 43 86.5t97 31.5q98 0 138 -60q53 60 124 60q44 0 79.5 -22.5t55.5 -59t30.5 -78.5t10.5 -84h-276q0 -102 25 -157t89 -55q20 0 38.5 6.5t37.5 21t33 44.5t19 72h24q-6 -74 -45 -121t-109 -47q-123 0 -177 121q-17 -50 -54.5 -85.5t-84.5 -35.5q-53 0 -91.5 26 t-38.5 92zM380 252h190q0 78 -22.5 135t-71.5 57t-72.5 -57.5t-23.5 -134.5zM130 103q0 -79 62 -79q24 0 43.5 11.5t33.5 34t22 39t17 41.5v95l-87 -19q-48 -10 -69.5 -39.5t-21.5 -83.5z" />
<glyph unicode="&#x1fe;" horiz-adv-x="700" d="M484 938q28 0 28 -31q0 -23 -28 -44l-128 -101l-13 11l92 133q23 32 49 32zM360 -18q-110 0 -190 90l-68 -90l-32 24l75 99q-75 108 -75 251q0 148 82 261t208 113q108 0 189 -89l67 89l32 -24l-74 -98q76 -107 76 -252q0 -95 -35.5 -180t-103 -139.5t-151.5 -54.5z M360 14q184 0 184 342q0 111 -19 187l-316 -419q45 -110 151 -110zM360 698q-184 0 -184 -342q0 -107 18 -185l316 418q-44 109 -150 109z" />
<glyph unicode="&#x1ff;" horiz-adv-x="496" d="M364 684q28 0 28 -31q0 -23 -28 -44l-128 -101l-13 11l92 133q23 32 49 32zM248 -12q-76 0 -131 58l-47 -58l-22 18l51 62q-51 68 -51 160q0 99 58 169.5t142 70.5q76 0 131 -58l47 58l22 -18l-51 -62q51 -68 51 -160q0 -99 -58 -169.5t-142 -70.5zM248 12q112 0 112 216 q0 60 -9 104l-197 -242q27 -78 94 -78zM248 444q-112 0 -112 -216q0 -60 9 -104l197 242q-27 78 -94 78z" />
<glyph unicode="&#x200;" horiz-adv-x="764" d="M348 938q26 0 49 -32l92 -133l-13 -11l-128 101q-28 21 -28 44q0 31 28 31zM212 938q26 0 49 -32l92 -133l-13 -11l-128 101q-28 21 -28 44q0 31 28 31zM266 246h205l-104 303zM46 0v32h37q58 0 84 73l217 607h25l217 -636q18 -44 60 -44h56v-32h-310v32h66q15 0 25 7.5 t10 17.5q0 13 -4 22l-45 131h-231l-23 -65q-14 -40 -14 -60q0 -21 11.5 -37t39.5 -16h53v-32h-274z" />
<glyph unicode="&#x201;" horiz-adv-x="500" d="M180 684q26 0 49 -32l92 -133l-13 -11l-128 101q-28 21 -28 44q0 31 28 31zM44 684q26 0 49 -32l92 -133l-13 -11l-128 101q-28 21 -28 44q0 31 28 31zM130 103q0 -79 62 -79q24 0 43.5 11.5t34 34t22 39t16.5 41.5v95l-87 -19q-48 -10 -69.5 -39.5t-21.5 -83.5zM46 106 q0 31 12 55.5t27.5 38.5t42.5 25t43.5 15t44.5 9l92 17v85q0 93 -93 93q-34 0 -62 -17.5t-28 -39.5q0 -10 3 -15q4 -8 15 -10q37 -10 37 -39q0 -39 -44 -39q-22 0 -40 17t-18 49q0 55 43 86.5t97 31.5q66 0 114 -34.5t48 -107.5v-246q0 -50 31 -50q47 0 47 100h18 q0 -142 -80 -142q-85 0 -88 96l-5 2q-15 -35 -48.5 -66.5t-78.5 -31.5q-53 0 -91.5 26t-38.5 92z" />
<glyph unicode="&#x202;" horiz-adv-x="764" d="M396 920q49 0 92 -49.5t55 -100.5l-20 -8q-21 45 -54 73.5t-73 28.5t-73 -28.5t-54 -73.5l-20 8q12 51 55 100.5t92 49.5zM266 246h205l-104 303zM46 0v32h37q58 0 84 73l217 607h25l217 -636q18 -44 60 -44h56v-32h-310v32h66q15 0 25 7.5t10 17.5q0 13 -4 22l-45 131 h-231l-23 -65q-14 -40 -14 -60q0 -21 11.5 -37t39.5 -16h53v-32h-274z" />
<glyph unicode="&#x203;" horiz-adv-x="500" d="M228 670q45 0 81.5 -48.5t50.5 -97.5l-16 -6q-15 36 -45.5 66t-70.5 30t-70.5 -30t-45.5 -66l-16 6q14 49 50.5 97.5t81.5 48.5zM130 103q0 -79 62 -79q24 0 43.5 11.5t34 34t22 39t16.5 41.5v95l-87 -19q-48 -10 -69.5 -39.5t-21.5 -83.5zM46 106q0 31 12 55.5 t27.5 38.5t42.5 25t43.5 15t44.5 9l92 17v85q0 93 -93 93q-34 0 -62 -17.5t-28 -39.5q0 -10 3 -15q4 -8 15 -10q37 -10 37 -39q0 -39 -44 -39q-22 0 -40 17t-18 49q0 55 43 86.5t97 31.5q66 0 114 -34.5t48 -107.5v-246q0 -50 31 -50q47 0 47 100h18q0 -142 -80 -142 q-85 0 -88 96l-5 2q-15 -35 -48.5 -66.5t-78.5 -31.5q-53 0 -91.5 26t-38.5 92z" />
<glyph unicode="&#x204;" horiz-adv-x="690" d="M320 938q26 0 49 -32l92 -133l-13 -11l-128 101q-28 21 -28 44q0 31 28 31zM184 938q26 0 49 -32l92 -133l-13 -11l-128 101q-28 21 -28 44q0 31 28 31zM62 0v32h72q27 0 27 27v594q0 27 -27 27h-72v32h558l4 -226h-25l-1 20q-2 21 -12 55t-28 61q-38 58 -117 58h-161 q-27 0 -27 -27v-273h88q27 0 45 12.5t25 35.5t9.5 43t2.5 47h26v-313h-26q0 28 -2 47.5t-9.5 43t-25.5 36t-45 12.5h-88v-285q0 -27 27 -27h160q27 0 58.5 12.5t51.5 38.5q20 28 34.5 74t18.5 79l4 32h25l-12 -268h-558z" />
<glyph unicode="&#x205;" horiz-adv-x="460" d="M192 684q26 0 49 -32l92 -133l-13 -11l-128 101q-28 21 -28 44q0 31 28 31zM56 684q26 0 49 -32l92 -133l-13 -11l-128 101q-28 21 -28 44q0 31 28 31zM136 252h190q0 36 -5 68t-15 61t-29 46t-45 17t-45 -17t-30 -46t-16 -61.5t-5 -67.5zM48 228q0 62 23 116t66.5 89 t98.5 35q36 0 66 -15t50 -40t34 -57t20 -65t6 -67h-276q0 -49 5 -85.5t17 -66t35 -45t57 -15.5q20 0 38.5 6t38 21t33 45t18.5 72h24q-6 -74 -45 -121t-109 -47q-90 0 -145 67t-55 173z" />
<glyph unicode="&#x206;" horiz-adv-x="690" d="M368 920q49 0 92 -49.5t55 -100.5l-20 -8q-21 45 -54 73.5t-73 28.5t-73 -28.5t-54 -73.5l-20 8q12 51 55 100.5t92 49.5zM62 0v32h72q27 0 27 27v594q0 27 -27 27h-72v32h558l4 -226h-25l-1 20q-2 21 -12 55t-28 61q-38 58 -117 58h-161q-27 0 -27 -27v-273h88 q27 0 45 12.5t25 35.5t9.5 43t2.5 47h26v-313h-26q0 28 -2 47.5t-9.5 43t-25.5 36t-45 12.5h-88v-285q0 -27 27 -27h160q27 0 58.5 12.5t51.5 38.5q20 28 34.5 74t18.5 79l4 32h25l-12 -268h-558z" />
<glyph unicode="&#x207;" horiz-adv-x="460" d="M240 670q45 0 81.5 -48.5t50.5 -97.5l-16 -6q-15 36 -45.5 66t-70.5 30t-70.5 -30t-45.5 -66l-16 6q14 49 50.5 97.5t81.5 48.5zM136 252h190q0 36 -5 68t-15 61t-29 46t-45 17t-45 -17t-30 -46t-16 -61.5t-5 -67.5zM48 228q0 62 23 116t66.5 89t98.5 35q36 0 66 -15 t50 -40t34 -57t20 -65t6 -67h-276q0 -49 5 -85.5t17 -66t35 -45t57 -15.5q20 0 38.5 6t38 21t33 45t18.5 72h24q-6 -74 -45 -121t-109 -47q-90 0 -145 67t-55 173z" />
<glyph unicode="&#x208;" horiz-adv-x="394" d="M160 938q26 0 49 -32l92 -133l-13 -11l-128 101q-28 21 -28 44q0 31 28 31zM24 938q26 0 49 -32l92 -133l-13 -11l-128 101q-28 21 -28 44q0 31 28 31zM62 0v32h72q27 0 27 27v594q0 27 -27 27h-72v32h290v-32h-72q-27 0 -27 -27v-594q0 -27 27 -27h72v-32h-290z" />
<glyph unicode="&#x209;" horiz-adv-x="270" d="M90 684q26 0 49 -32l92 -133l-13 -11l-128 101q-28 21 -28 44q0 31 28 31zM-46 684q26 0 49 -32l92 -133l-13 -11l-128 101q-28 21 -28 44q0 31 28 31zM38 0v24h42q22 0 22 22v364q0 22 -22 22h-42v24h136v-410q0 -22 22 -22h42v-24h-200z" />
<glyph unicode="&#x20a;" horiz-adv-x="394" d="M208 920q49 0 92 -49.5t55 -100.5l-20 -8q-21 45 -54 73.5t-73 28.5t-73 -28.5t-54 -73.5l-20 8q12 51 55 100.5t92 49.5zM62 0v32h72q27 0 27 27v594q0 27 -27 27h-72v32h290v-32h-72q-27 0 -27 -27v-594q0 -27 27 -27h72v-32h-290z" />
<glyph unicode="&#x20b;" horiz-adv-x="270" d="M138 670q45 0 81.5 -48.5t50.5 -97.5l-16 -6q-15 36 -45.5 66t-70.5 30t-70.5 -30t-45.5 -66l-16 6q14 49 50.5 97.5t81.5 48.5zM38 0v24h42q22 0 22 22v364q0 22 -22 22h-42v24h136v-410q0 -22 22 -22h42v-24h-200z" />
<glyph unicode="&#x20c;" horiz-adv-x="700" d="M312 938q26 0 49 -32l92 -133l-13 -11l-128 101q-28 21 -28 44q0 31 28 31zM176 938q26 0 49 -32l92 -133l-13 -11l-128 101q-28 21 -28 44q0 31 28 31zM360 -18q-84 0 -151.5 54.5t-103 139.5t-35.5 180t35.5 180t103 139.5t151.5 54.5t151.5 -54.5t103 -139.5 t35.5 -180t-35.5 -180t-103 -139.5t-151.5 -54.5zM360 14q184 0 184 342t-184 342t-184 -342t184 -342z" />
<glyph unicode="&#x20d;" horiz-adv-x="496" d="M200 684q26 0 49 -32l92 -133l-13 -11l-128 101q-28 21 -28 44q0 31 28 31zM64 684q26 0 49 -32l92 -133l-13 -11l-128 101q-28 21 -28 44q0 31 28 31zM248 12q112 0 112 216t-112 216t-112 -216t112 -216zM248 -12q-84 0 -142 70.5t-58 169.5t58 169.5t142 70.5 t142 -70.5t58 -169.5t-58 -169.5t-142 -70.5z" />
<glyph unicode="&#x20e;" horiz-adv-x="700" d="M360 920q49 0 92 -49.5t55 -100.5l-20 -8q-21 45 -54 73.5t-73 28.5t-73 -28.5t-54 -73.5l-20 8q12 51 55 100.5t92 49.5zM360 -18q-84 0 -151.5 54.5t-103 139.5t-35.5 180t35.5 180t103 139.5t151.5 54.5t151.5 -54.5t103 -139.5t35.5 -180t-35.5 -180t-103 -139.5 t-151.5 -54.5zM360 14q184 0 184 342t-184 342t-184 -342t184 -342z" />
<glyph unicode="&#x20f;" horiz-adv-x="496" d="M248 670q45 0 81.5 -48.5t50.5 -97.5l-16 -6q-15 36 -45.5 66t-70.5 30t-70.5 -30t-45.5 -66l-16 6q14 49 50.5 97.5t81.5 48.5zM248 12q112 0 112 216t-112 216t-112 -216t112 -216zM248 -12q-84 0 -142 70.5t-58 169.5t58 169.5t142 70.5t142 -70.5t58 -169.5 t-58 -169.5t-142 -70.5z" />
<glyph unicode="&#x210;" horiz-adv-x="716" d="M284 938q26 0 49 -32l92 -133l-13 -11l-128 101q-28 21 -28 44q0 31 28 31zM148 938q26 0 49 -32l92 -133l-13 -11l-128 101q-28 21 -28 44q0 31 28 31zM253 400h97q155 0 155 152q0 61 -32.5 94.5t-88.5 33.5h-104q-27 0 -27 -27v-253zM62 0v32h72q27 0 27 27v594 q0 27 -27 27h-72v32h328q105 0 163 -41.5t58 -118.5q0 -74 -55.5 -119t-133.5 -53v-4q57 -11 93.5 -52.5t48.5 -141.5q10 -82 19 -106t33 -24q43 0 43 108h25q0 -172 -104 -172q-66 0 -91 47q-27 52 -29 177q-1 67 -24 111.5t-74 44.5h-109v-309q0 -27 27 -27h89v-32h-307z " />
<glyph unicode="&#x211;" horiz-adv-x="410" d="M188 684q26 0 49 -32l92 -133l-13 -11l-128 101q-28 21 -28 44q0 31 28 31zM52 684q26 0 49 -32l92 -133l-13 -11l-128 101q-28 21 -28 44q0 31 28 31zM38 0v24h42q22 0 22 22v364q0 22 -22 22h-42v24h136v-126l4 -1q17 48 41.5 81.5t44.5 43.5q25 14 50 14 q38 0 57 -24.5t19 -57.5q0 -24 -14 -46t-42 -22q-19 0 -32 9.5t-13 28.5q0 29 27 44q22 12 22 27q0 17 -28 17q-17 0 -34.5 -9t-38 -38.5t-37.5 -78.5q-26 -74 -26 -140v-132q0 -22 22 -22h42v-24h-200z" />
<glyph unicode="&#x212;" horiz-adv-x="716" d="M332 920q49 0 92 -49.5t55 -100.5l-20 -8q-21 45 -54 73.5t-73 28.5t-73 -28.5t-54 -73.5l-20 8q12 51 55 100.5t92 49.5zM253 400h97q155 0 155 152q0 61 -32.5 94.5t-88.5 33.5h-104q-27 0 -27 -27v-253zM62 0v32h72q27 0 27 27v594q0 27 -27 27h-72v32h328 q105 0 163 -41.5t58 -118.5q0 -74 -55.5 -119t-133.5 -53v-4q57 -11 93.5 -52.5t48.5 -141.5q10 -82 19 -106t33 -24q43 0 43 108h25q0 -172 -104 -172q-66 0 -91 47q-27 52 -29 177q-1 67 -24 111.5t-74 44.5h-109v-309q0 -27 27 -27h89v-32h-307z" />
<glyph unicode="&#x213;" horiz-adv-x="410" d="M236 670q45 0 81.5 -48.5t50.5 -97.5l-16 -6q-15 36 -45.5 66t-70.5 30t-70.5 -30t-45.5 -66l-16 6q14 49 50.5 97.5t81.5 48.5zM38 0v24h42q22 0 22 22v364q0 22 -22 22h-42v24h136v-126l4 -1q17 48 41.5 81.5t44.5 43.5q25 14 50 14q38 0 57 -24.5t19 -57.5 q0 -24 -14 -46t-42 -22q-19 0 -32 9.5t-13 28.5q0 29 27 44q22 12 22 27q0 17 -28 17q-17 0 -34.5 -9t-38 -38.5t-37.5 -78.5q-26 -74 -26 -140v-132q0 -22 22 -22h42v-24h-200z" />
<glyph unicode="&#x214;" horiz-adv-x="804" d="M374 938q26 0 49 -32l92 -133l-13 -11l-128 101q-28 21 -28 44q0 31 28 31zM238 938q26 0 49 -32l92 -133l-13 -11l-128 101q-28 21 -28 44q0 31 28 31zM424 -18q-69 0 -121 21.5t-82 58t-45 81t-15 94.5v416q0 27 -27 27h-72v32h291v-32h-73q-27 0 -27 -27v-443 q0 -93 45 -144.5t126 -51.5q94 0 146.5 53.5t52.5 130.5v401q0 37 -18 59t-46 22h-35v32h238v-32h-35q-28 0 -46 -22t-18 -59v-391q0 -97 -64.5 -161.5t-174.5 -64.5z" />
<glyph unicode="&#x215;" horiz-adv-x="534" d="M214 684q26 0 49 -32l92 -133l-13 -11l-128 101q-28 21 -28 44q0 31 28 31zM78 684q26 0 49 -32l92 -133l-13 -11l-128 101q-28 21 -28 44q0 31 28 31zM223 -12q-50 0 -81 26q-46 37 -46 123v273q0 22 -22 22h-42v24h136v-339q0 -105 64 -105q45 0 89.5 57.5t44.5 132.5 v208q0 22 -22 22h-42v24h136v-410q0 -22 22 -22h42v-24h-136v92l-4 1q-26 -50 -62.5 -77.5t-76.5 -27.5z" />
<glyph unicode="&#x216;" horiz-adv-x="804" d="M422 920q49 0 92 -49.5t55 -100.5l-20 -8q-21 45 -54 73.5t-73 28.5t-73 -28.5t-54 -73.5l-20 8q12 51 55 100.5t92 49.5zM424 -18q-69 0 -121 21.5t-82 58t-45 81t-15 94.5v416q0 27 -27 27h-72v32h291v-32h-73q-27 0 -27 -27v-443q0 -93 45 -144.5t126 -51.5 q94 0 146.5 53.5t52.5 130.5v401q0 37 -18 59t-46 22h-35v32h238v-32h-35q-28 0 -46 -22t-18 -59v-391q0 -97 -64.5 -161.5t-174.5 -64.5z" />
<glyph unicode="&#x217;" horiz-adv-x="534" d="M262 670q45 0 81.5 -48.5t50.5 -97.5l-16 -6q-15 36 -45.5 66t-70.5 30t-70.5 -30t-45.5 -66l-16 6q14 49 50.5 97.5t81.5 48.5zM223 -12q-50 0 -81 26q-46 37 -46 123v273q0 22 -22 22h-42v24h136v-339q0 -105 64 -105q45 0 89.5 57.5t44.5 132.5v208q0 22 -22 22h-42 v24h136v-410q0 -22 22 -22h42v-24h-136v92l-4 1q-26 -50 -62.5 -77.5t-76.5 -27.5z" />
<glyph unicode="&#x218;" horiz-adv-x="620" d="M282 -85q0 21 13.5 33t33.5 12q26 0 41.5 -19t15.5 -47q0 -43 -27.5 -80t-64.5 -52l-10 11q26 12 45.5 33.5t19.5 41.5q0 17 -8 22q-6 4 -24 4q-16 0 -25.5 13t-9.5 28zM88 306h24q10 -113 82 -202.5t157 -89.5q82 0 119.5 40t37.5 96q0 49 -28.5 77t-83.5 50l-152 61 q-154 61 -154 204q0 96 56 142t140 46q40 0 78 -18.5t68 -41.5q24 -18 38 -18q17 0 20 24l4 36h24l10 -260h-24q-24 108 -88 177t-138 69q-56 0 -92 -36.5t-36 -101.5q0 -45 23 -70t68 -43l193 -77q67 -27 100.5 -77t33.5 -105q0 -83 -55 -144.5t-162 -61.5q-37 0 -77.5 17 t-51.5 25t-36 25.5t-30 20.5t-9 3q-8 0 -15.5 -10.5t-9.5 -32.5l-4 -40h-23z" />
<glyph unicode="&#x219;" horiz-adv-x="434" d="M184 -85q0 21 13.5 33t33.5 12q26 0 41.5 -19t15.5 -47q0 -43 -27.5 -80t-64.5 -52l-10 11q26 12 45.5 33.5t19.5 41.5q0 17 -8 22q-6 4 -24 4q-16 0 -25.5 13t-9.5 28zM52 345q0 61 38 92t96 31q53 0 97 -32q22 -16 33 -16q14 0 16 18l2 20h18v-152h-18l-14 35 q-22 54 -58.5 78.5t-76.5 24.5q-37 0 -61 -18.5t-24 -51.5q0 -23 12.5 -37.5t33.5 -24.5q36 -19 42 -21l108 -45q48 -20 72 -48q24 -30 24 -80q0 -67 -38 -98.5t-100 -31.5q-38 0 -66 13.5t-44 27t-27 13.5q-28 0 -35 -34l-4 -20h-18v198h18l34 -72q17 -37 54.5 -69.5 t88.5 -32.5q46 0 68.5 22.5t22.5 61.5q0 45 -64 71l-114 46q-116 47 -116 132z" />
<glyph unicode="&#x21a;" horiz-adv-x="714" d="M316 -85q0 21 13.5 33t33.5 12q26 0 41.5 -19t15.5 -47q0 -43 -27.5 -80t-64.5 -52l-10 11q26 12 45.5 33.5t19.5 41.5q0 17 -8 22q-6 4 -24 4q-16 0 -25.5 13t-9.5 28zM72 444l8 268h574l8 -268h-25q0 11 -2 35t-15 72.5t-35 76.5q-41 52 -99 52h-46q-27 0 -27 -27v-594 q0 -27 27 -27h96v-32h-338v32h96q27 0 27 27v594q0 27 -27 27h-46q-60 0 -99 -52q-22 -28 -35 -76.5t-15 -72.5t-2 -35h-25z" />
<glyph unicode="&#x21b;" horiz-adv-x="350" d="M154 -85q0 21 13.5 33t33.5 12q26 0 41.5 -19t15.5 -47q0 -43 -27.5 -80t-64.5 -52l-10 11q26 12 45.5 33.5t19.5 41.5q0 17 -8 22q-6 4 -24 4q-16 0 -25.5 13t-9.5 28zM206 -12q-45 0 -74.5 32t-29.5 87v321h-74v28h22q45 0 70.5 48.5t25.5 107.5v36h28v-192h124v-28 h-124v-326q0 -70 53 -70q71 0 71 120h18q0 -23 -1 -38t-6.5 -41.5t-16.5 -42.5t-33 -29t-53 -13z" />
<glyph unicode="&#x21c;" horiz-adv-x="520" d="M286 730q68 0 114 -46.5t46 -108.5q0 -43 -37.5 -92.5t-92.5 -92.5l4 -9q63 -7 104.5 -50.5t41.5 -104.5q0 -154 -149 -269q-107 -83 -257 -125l-14 29q150 58 232 141t82 180q0 59 -40 86.5t-83 27.5q-38 0 -62 -10.5t-60 -36.5l-21 31l114 80q146 102 146 186 q0 38 -25.5 69t-65.5 31q-85 0 -157 -88l-22 22q37 56 96.5 103t105.5 47z" />
<glyph unicode="&#x21d;" horiz-adv-x="406" d="M211 468q58 0 95.5 -37t37.5 -83q0 -39 -26.5 -80t-66.5 -72l2 -7q43 -4 75 -38t32 -74q0 -120 -107 -209q-34 -29 -93 -59t-119 -47l-9 21q114 48 177 115.5t63 141.5q0 34 -24 58.5t-51 24.5q-31 0 -56 -11.5t-67 -41.5l-16 24l100 71q50 35 82 76t32 78q0 29 -22 51 t-46 22q-86 0 -150 -81l-16 13q34 57 82.5 100.5t90.5 43.5z" />
<glyph unicode="&#x224;" horiz-adv-x="620" d="M68 0v32l414 648h-188q-33 0 -61.5 -18t-47.5 -40q-23 -28 -41 -70t-24.5 -67t-6.5 -29h-25l36 256h464v-32l-410 -648h314q16 0 32 -3t32 -10t27.5 -18t19 -28t7.5 -38q0 -112 -234 -173l-14 24q35 11 58.5 21.5t43.5 25.5t30 35t10 47q0 26 -13.5 43t-42 26t-63.5 12.5 t-87 3.5h-230z" />
<glyph unicode="&#x225;" horiz-adv-x="420" d="M40 0v26l260 406h-122q-62 0 -88 -50q-10 -22 -18 -47t-10 -40l-2 -15h-20l6 176h336v-32l-259 -400h213q34 0 53 -20.5t19 -43.5q0 -48 -48 -81t-147 -63l-8 20q63 20 89 45t26 59q0 60 -83 60h-197z" />
<glyph unicode="&#x228;" horiz-adv-x="690" d="M62 0v32h72q27 0 27 27v594q0 27 -27 27h-72v32h558l4 -226h-25l-1 20q-2 21 -12 55t-28 61q-38 58 -117 58h-161q-27 0 -27 -27v-273h88q27 0 45 12.5t25 35.5t9.5 43t2.5 47h26v-313h-26q0 28 -2 47.5t-9.5 43t-25.5 36t-45 12.5h-88v-285q0 -27 27 -27h160 q27 0 58.5 12.5t51.5 38.5q20 28 34.5 74t18.5 79l4 32h25l-12 -268h-219l-18 -54l26 -6q42 -10 67 -34q24 -25 24 -60q0 -38 -33 -61t-93 -23q-34 0 -61 15t-43 36l16 17q38 -36 74 -36q29 0 48.5 13t19.5 45q0 28 -12.5 43.5t-40.5 21.5l-31 7l26 76h-308z" />
<glyph unicode="&#x229;" horiz-adv-x="460" d="M136 252h190q0 36 -5 68t-15 61t-29 46t-45 17t-45 -17t-30 -46t-16 -61.5t-5 -67.5zM48 228q0 62 23 116t66.5 89t98.5 35q36 0 66 -15t50 -40t34 -57t20 -65t6 -67h-276q0 -49 5 -85.5t17 -66t35 -45t57 -15.5q20 0 38.5 6t38 21t33 45t18.5 72h24q-2 -30 -11.5 -58 t-27 -53.5t-46.5 -41t-67 -15.5h-12l-13 -41l24 -5q36 -8 61.5 -28t25.5 -56q0 -30 -29 -50t-85 -20q-24 0 -48 11t-38 25l12 16q31 -24 62 -24q26 0 44 12.5t18 38.5q0 27 -11 39.5t-33 17.5l-34 7l20 60q-75 11 -120.5 78t-45.5 159z" />
<glyph unicode="&#x232;" horiz-adv-x="728" d="M256 862h272v-40h-272v40zM224 0v32h96q27 0 27 27v259l-194 318q-15 26 -27 35t-32 9h-52v32h310v-32h-56q-15 0 -25 -7t-10 -18q0 -15 5 -22l154 -267l102 196q5 7 11 28t6 33q0 24 -13.5 40.5t-41.5 16.5h-30v32h248v-32h-29q-24 0 -43 -13.5t-27 -25t-21 -34.5 l-143 -272v-276q0 -27 27 -27h96v-32h-338z" />
<glyph unicode="&#x233;" horiz-adv-x="530" d="M146 612h260v-40h-260v40zM134 -238q-39 0 -64 25q-28 26 -28 63q0 28 16 42q15 15 34 15q23 0 34.5 -14.5t11.5 -36.5q0 -12 -8 -28q-6 -10 -6 -19q0 -15 20 -15q30 0 50.5 23.5t30.5 55.5l27 87l-142 413q-8 22 -13.5 32.5t-17 18.5t-28.5 8h-33v24h226v-24h-32 q-12 0 -22 -6.5t-10 -17.5q0 -17 6 -33l104 -307l83 274q11 31 11 51q0 17 -10 28t-26 11h-24v24h182v-24h-23q-49 0 -69 -59l-161 -512q-11 -37 -42 -68t-77 -31z" />
<glyph unicode="&#x243;" horiz-adv-x="690" d="M253 388h131q81 0 110.5 41.5t29.5 112.5q0 60 -38 99t-94 39h-112q-27 0 -27 -27v-265zM62 0v32h72q27 0 27 27v125h-93v36h93v433q0 27 -27 27h-72v32h326q92 0 158 -48.5t66 -121.5q0 -68 -46 -112t-107 -57v-4q65 -5 120 -53.5t55 -121.5q0 -91 -68 -142.5 t-167 -51.5h-337zM253 356v-136h115v-36h-115v-125q0 -27 27 -27h108q140 0 140 162t-140 162h-135z" />
<glyph unicode="&#x254;" horiz-adv-x="436" d="M48 300q2 29 13.5 58t31 54t50.5 40.5t67 15.5q88 0 140 -63t52 -169q0 -108 -54.5 -178t-141.5 -70q-68 0 -109 41t-41 90q0 31 16 48.5t39 17.5q20 0 33.5 -13t13.5 -31t-10 -29.5t-24 -16.5q-16 -5 -16 -18q0 -9 5.5 -19t16 -21t30.5 -18t46 -7q33 0 55 16t33.5 48.5 t15.5 70t4 89.5q0 42 -2 71t-9 57t-18 44t-30.5 26t-46.5 10q-31 0 -56.5 -13t-41.5 -35t-25.5 -46t-12.5 -50h-24z" />
<glyph unicode="&#x259;" horiz-adv-x="460" d="M228 12q49 0 72.5 57.5t23.5 134.5h-190q0 -78 22.5 -135t71.5 -57zM224 -12q-44 0 -79.5 22.5t-55.5 59t-30.5 78.5t-10.5 84h276q0 102 -25 157t-89 55q-20 0 -38.5 -6.5t-37.5 -21t-33 -44.5t-19 -72h-24q6 74 45 121t109 47q91 0 145.5 -67t54.5 -173q0 -96 -53 -168 t-135 -72z" />
<glyph unicode="&#x25b;" horiz-adv-x="442" d="M44 117q0 74 86 115v6q-31 10 -54 34t-23 60q0 47 31 79t72 44.5t87 12.5q64 0 113.5 -32t49.5 -82q0 -21 -12 -33.5t-34 -12.5q-17 0 -27.5 10.5t-10.5 27.5q0 12 6 29q6 13 6 26q0 20 -29.5 31.5t-64.5 11.5q-46 0 -78.5 -25t-32.5 -81q0 -88 77 -88h76v-32h-76 q-36 0 -55 -29.5t-19 -65.5q0 -53 27.5 -82t70.5 -29q45 0 86 15t41 41q0 19 -13 32q-17 17 -17 36q0 36 36 36q22 0 34.5 -15t12.5 -43q0 -60 -55 -93t-137 -33q-69 0 -121.5 32.5t-52.5 96.5z" />
<glyph unicode="&#x280;" horiz-adv-x="516" d="M174 252h77q33 0 53 23t20 65q0 92 -74 92h-54q-22 0 -22 -22v-158zM38 0v24h42q22 0 22 22v364q0 22 -22 22h-42v24h228q63 0 104.5 -28.5t41.5 -81.5q0 -28 -12.5 -49t-32 -32.5t-34.5 -16.5t-29 -8v-4q81 -17 91 -115q3 -24 4 -46t9 -36.5t24 -14.5q24 0 33 29.5 t9 60.5h18q0 -19 -3 -37t-10.5 -40t-26 -35.5t-45.5 -13.5q-31 0 -51 14q-37 26 -37 87v54q0 47 -20.5 66t-46.5 19h-78v-182q0 -22 22 -22h44v-24h-202z" />
<glyph unicode="&#x292;" horiz-adv-x="464" d="M32 -108q0 34 20 55t45 21q22 0 34.5 -13t12.5 -31q0 -32 -35 -46q-9 -4 -15 -12t-6 -16q0 -24 33.5 -44t81.5 -20q62 0 98.5 44t36.5 136q0 88 -34 128.5t-93 40.5q-16 0 -32.5 -9.5t-25.5 -19t-21 -25.5l-21 16l219 283h-144q-33 0 -51.5 -7.5t-33.5 -26.5 q-9 -12 -14.5 -32t-6.5 -33v-13h-20l6 188h336v-25l-209 -271l3 -4q24 7 57 7q35 0 66 -11.5t55.5 -35t39 -62t14.5 -88.5q0 -92 -62 -148t-163 -56q-73 0 -122 38t-49 92z" />
<glyph unicode="&#x2bb;" horiz-adv-x="200" d="M160 540q0 -25 -15.5 -38.5t-38.5 -13.5q-30 0 -48 21.5t-18 54.5q0 50 31.5 92.5t74.5 63.5l12 -12q-31 -15 -53.5 -41t-22.5 -49q0 -16 10 -24q8 -6 28 -6q18 0 29 -15t11 -33z" />
<glyph unicode="&#x2bc;" horiz-adv-x="200" d="M40 668q0 25 15.5 38.5t38.5 13.5q30 0 48 -21.5t18 -54.5q0 -50 -31.5 -92.5t-74.5 -63.5l-12 12q31 15 53.5 41t22.5 49q0 16 -10 24q-8 6 -28 6q-18 0 -29 15t-11 33z" />
<glyph unicode="&#x2bd;" horiz-adv-x="200" d="M160 668q0 -18 -11 -33t-29 -15q-20 0 -28 -6q-10 -8 -10 -24q0 -23 22.5 -49t53.5 -41l-12 -12q-43 21 -74.5 63.5t-31.5 92.5q0 33 18 54.5t48 21.5q23 0 38.5 -13.5t15.5 -38.5z" />
<glyph unicode="&#x2be;" horiz-adv-x="200" d="M42 500v28q36 0 60 23t24 58t-24 58t-60 23v28q46 0 81 -31t35 -78t-35 -78t-81 -31z" />
<glyph unicode="&#x2bf;" horiz-adv-x="200" d="M42 609q0 47 35 78t81 31v-28q-36 0 -60 -23t-24 -58t24 -58t60 -23v-28q-46 0 -81 31t-35 78z" />
<glyph unicode="&#x300;" d="M-378 684q26 0 49 -32l92 -133l-13 -11l-128 101q-28 21 -28 44q0 31 28 31z" />
<glyph unicode="&#x301;" d="M-146 684q28 0 28 -31q0 -23 -28 -44l-128 -101l-13 11l92 133q23 32 49 32z" />
<glyph unicode="&#x302;" d="M-242 672q36 -103 111 -151l-9 -13q-68 35 -122 92q-54 -57 -122 -92l-9 13q75 48 111 151h40z" />
<glyph unicode="&#x303;" d="M-204 556q-32 0 -73 20t-65 20q-29 0 -36 -40h-22q0 39 21 66.5t59 27.5q32 0 73 -20t65 -20q29 0 36 40h22q0 -39 -21 -66.5t-59 -27.5z" />
<glyph unicode="&#x304;" d="M-392 612h260v-40h-260v40z" />
<glyph unicode="&#x305;" d="M-520 862h520v-40h-520v40z" />
<glyph unicode="&#x306;" d="M-262 526q-65 0 -101.5 47.5t-36.5 92.5h22q6 -40 33.5 -70t82.5 -30t82.5 30t33.5 70h22q0 -45 -36.5 -92.5t-101.5 -47.5z" />
<glyph unicode="&#x307;" d="M-262 544q-22 0 -37 15t-15 37t15 37t37 15t37 -15t15 -37t-15 -37t-37 -15z" />
<glyph unicode="&#x308;" d="M-168 648q22 0 37 -15t15 -37t-15 -37t-37 -15t-37 15t-15 37t15 37t37 15zM-356 648q22 0 37 -15t15 -37t-15 -37t-37 -15t-37 15t-15 37t15 37t37 15z" />
<glyph unicode="&#x30a;" d="M-262 500q-40 0 -68.5 28.5t-28.5 69.5q0 40 28 68t69 28t69 -28t28 -68q0 -41 -28.5 -69.5t-68.5 -28.5zM-262 524q31 0 52 21t21 53q0 31 -20.5 51.5t-52.5 20.5t-52.5 -20.5t-20.5 -51.5q0 -32 21 -53t52 -21z" />
<glyph unicode="&#x30b;" d="M-78 684q28 0 28 -31q0 -23 -28 -44l-128 -101l-13 11l92 133q23 32 49 32zM-214 684q28 0 28 -31q0 -23 -28 -44l-128 -101l-13 11l92 133q23 32 49 32z" />
<glyph unicode="&#x30c;" d="M-394 661l13 11l119 -100l119 100l13 -11l-112 -153h-40z" />
<glyph unicode="&#x30f;" d="M-310 684q26 0 49 -32l92 -133l-13 -11l-128 101q-28 21 -28 44q0 31 28 31zM-446 684q26 0 49 -32l92 -133l-13 -11l-128 101q-28 21 -28 44q0 31 28 31z" />
<glyph unicode="&#x311;" d="M-262 670q45 0 81.5 -48.5t50.5 -97.5l-16 -6q-15 36 -45.5 66t-70.5 30t-70.5 -30t-45.5 -66l-16 6q14 49 50.5 97.5t81.5 48.5z" />
<glyph unicode="&#x312;" d="M-200 540q0 -25 -15.5 -38.5t-38.5 -13.5q-30 0 -48 21.5t-18 54.5q0 50 31.5 92.5t74.5 63.5l12 -12q-31 -15 -53.5 -41t-22.5 -49q0 -16 10 -24q8 -6 28 -6q18 0 29 -15t11 -33z" />
<glyph unicode="&#x313;" d="M-320 668q0 25 15.5 38.5t38.5 13.5q30 0 48 -21.5t18 -54.5q0 -50 -31.5 -92.5t-74.5 -63.5l-12 12q31 15 53.5 41t22.5 49q0 16 -10 24q-8 6 -28 6q-18 0 -29 15t-11 33z" />
<glyph unicode="&#x314;" d="M-200 668q0 -18 -11 -33t-29 -15q-20 0 -28 -6q-10 -8 -10 -24q0 -23 22.5 -49t53.5 -41l-12 -12q-43 21 -74.5 63.5t-31.5 92.5q0 33 18 54.5t48 21.5q23 0 38.5 -13.5t15.5 -38.5z" />
<glyph unicode="&#x316;" d="M-378 -64q26 0 49 -32l92 -133l-13 -11l-128 101q-28 21 -28 44q0 31 28 31z" />
<glyph unicode="&#x317;" d="M-146 -64q28 0 28 -31q0 -23 -28 -44l-128 -101l-13 11l92 133q23 32 49 32z" />
<glyph unicode="&#x323;" d="M-262 -204q-22 0 -37 15t-15 37t15 37t37 15t37 -15t15 -37t-15 -37t-37 -15z" />
<glyph unicode="&#x324;" d="M-168 -100q22 0 37 -15t15 -37t-15 -37t-37 -15t-37 15t-15 37t15 37t37 15zM-356 -100q22 0 37 -15t15 -37t-15 -37t-37 -15t-37 15t-15 37t15 37t37 15z" />
<glyph unicode="&#x325;" d="M-262 -248q-40 0 -68.5 28.5t-28.5 69.5q0 40 28 68t69 28t69 -28t28 -68q0 -41 -28.5 -69.5t-68.5 -28.5zM-262 -224q31 0 52 21t21 53q0 31 -20.5 51.5t-52.5 20.5t-52.5 -20.5t-20.5 -51.5q0 -32 21 -53t52 -21z" />
<glyph unicode="&#x326;" d="M-314 -85q0 21 13.5 33t33.5 12q26 0 41.5 -19t15.5 -47q0 -43 -27.5 -80t-64.5 -52l-10 11q26 12 45.5 33.5t19.5 41.5q0 17 -8 22q-6 4 -24 4q-16 0 -25.5 13t-9.5 28z" />
<glyph unicode="&#x327;" d="M-368 -176l12 16q11 -9 26.5 -16.5t35.5 -7.5q27 0 44.5 12.5t17.5 38.5q0 27 -10 39q-11 13 -34 18l-34 7l24 69h25l-18 -53l24 -5q41 -9 64 -29.5t23 -54.5q0 -30 -29 -50t-85 -20q-23 0 -47.5 11t-38.5 25z" />
<glyph unicode="&#x328;" d="M-394 -142q0 32 23 63t47.5 50t63.5 43l10 -14q-45 -33 -66.5 -62.5t-21.5 -66.5q0 -47 44 -47q29 0 58 34l14 -10q-37 -68 -93 -68q-33 0 -56 21.5t-23 56.5z" />
<glyph unicode="&#x32c;" d="M-394 -87l13 11l119 -100l119 100l13 -11l-112 -153h-40z" />
<glyph unicode="&#x32d;" d="M-242 -76q36 -103 111 -151l-9 -13q-68 35 -122 92q-54 -57 -122 -92l-9 13q75 48 111 151h40z" />
<glyph unicode="&#x32e;" d="M-262 -222q-65 0 -101.5 47.5t-36.5 92.5h22q6 -40 33.5 -70t82.5 -30t82.5 30t33.5 70h22q0 -45 -36.5 -92.5t-101.5 -47.5z" />
<glyph unicode="&#x32f;" d="M-262 -78q45 0 81.5 -48.5t50.5 -97.5l-16 -6q-15 36 -45.5 66t-70.5 30t-70.5 -30t-45.5 -66l-16 6q14 49 50.5 97.5t81.5 48.5z" />
<glyph unicode="&#x330;" d="M-204 -192q-32 0 -73 20t-65 20q-29 0 -36 -40h-22q0 39 21 66.5t59 27.5q32 0 73 -20t65 -20q29 0 36 40h22q0 -39 -21 -66.5t-59 -27.5z" />
<glyph unicode="&#x331;" d="M-392 -136h260v-40h-260v40z" />
<glyph unicode="&#x332;" d="M-520 -158v40h520v-40h-520z" />
<glyph unicode="&#x333;" d="M-520 -272v40h520v-40h-520zM-520 -158v40h520v-40h-520z" />
<glyph unicode="&#x33e;" d="M-302 569q0 25 17 63q15 30 15 51q0 14 -7.5 20.5t-24.5 8.5v18q32 0 56 -17t24 -48q0 -25 -17 -63q-15 -30 -15 -51q0 -14 7.5 -20.5t24.5 -8.5v-18q-32 0 -56 17t-24 48z" />
<glyph unicode="&#x342;" d="M-434 600q0 37 26 58t69 21q18 0 31.5 -2.5t27 -11.5t17 -12t19.5 -17q18 -19 42.5 -41t42.5 -22q9 0 17 5.5t8 15.5q0 13 -13 20q-23 14 -23 35q0 12 9 21t24 9q20 0 33.5 -13.5t13.5 -33.5q0 -37 -26 -58t-69 -21q-18 0 -31.5 2.5t-27 11.5t-17 12t-19.5 17 q-18 19 -42.5 41t-42.5 22q-9 0 -17 -5.5t-8 -15.5q0 -13 13 -20q23 -14 23 -35q0 -12 -9 -21t-24 -9q-20 0 -33.5 13.5t-13.5 33.5z" />
<glyph unicode="&#x343;" d="M-274 730q33 0 54.5 -28.5t21.5 -66.5q0 -81 -75 -127l-15 17q60 39 60 96q0 25 -16 25q-7 0 -19 -7q-12 -6 -21 -6q-20 0 -32 11q-14 11 -14 34q0 24 16 38t40 14z" />
<glyph unicode="&#x344;" d="M-156 616q22 0 37 -15t15 -37t-15 -37t-37 -15t-37 15t-15 37t15 37t37 15zM-368 616q22 0 37 -15t15 -37t-15 -37t-37 -15t-37 15t-15 37t15 37t37 15zM-194 762q32 0 32 -31q0 -11 -3 -20t-8 -16t-11 -17l-88 -138l-20 10l50 158q5 17 9.5 26.5t14.5 18.5t24 9z" />
<glyph unicode="&#x345;" d="M-262 -84q12 0 18 -26l22 -96q4 -18 4 -32q0 -17 -13 -30.5t-31 -13.5t-31 13.5t-13 30.5q0 14 4 32l22 96q6 26 18 26z" />
<glyph unicode="&#x351;" d="M-318 609q0 47 35 78t81 31v-28q-36 0 -60 -23t-24 -58t24 -58t60 -23v-28q-46 0 -81 31t-35 78z" />
<glyph unicode="&#x357;" d="M-318 500v28q36 0 60 23t24 58t-24 58t-60 23v28q46 0 81 -31t35 -78t-35 -78t-81 -31z" />
<glyph unicode="&#x359;" d="M-370 -212q0 15 12.5 22.5t35.5 10.5q8 1 23.5 6.5t15.5 9.5t-15.5 9.5t-23.5 6.5q-23 3 -35.5 10.5t-12.5 22.5q0 10 7 16.5t18 6.5t19 -6t18 -18q8 -11 19 -20.5t15 -9.5q3 0 3 2q0 21 -9 43q-6 15 -6 29q0 11 7.5 19t16.5 8t16.5 -8t7.5 -19q0 -14 -6 -29 q-9 -22 -9 -43q0 -2 3 -2q4 0 15 9.5t19 20.5q10 12 18 18t19 6t18 -6.5t7 -16.5q0 -15 -12.5 -22.5t-35.5 -10.5q-8 -1 -23.5 -6.5t-15.5 -9.5t15.5 -9.5t23.5 -6.5q23 -3 35.5 -10.5t12.5 -22.5q0 -10 -7 -16.5t-18 -6.5t-19 6t-18 18q-8 11 -19 20.5t-15 9.5q-3 0 -3 -2 q0 -21 9 -43q6 -15 6 -29q0 -11 -7.5 -19t-16.5 -8t-16.5 8t-7.5 19q0 14 6 29q9 22 9 43q0 2 -3 2q-4 0 -15 -9.5t-19 -20.5q-10 -12 -18 -18t-19 -6t-18 6.5t-7 16.5z" />
<glyph unicode="&#x35c;" d="M0 -238q-143 0 -298 122l8 16q131 -82 290 -82t290 82l8 -16q-155 -122 -298 -122z" />
<glyph unicode="&#x35d;" d="M0 682q-143 0 -298 122l8 16q131 -82 290 -82t290 82l8 -16q-155 -122 -298 -122z" />
<glyph unicode="&#x361;" d="M0 820q143 0 298 -122l-8 -16q-131 82 -290 82t-290 -82l-8 16q155 122 298 122z" />
<glyph unicode="&#x363;" d="M-326 595q0 -23 10.5 -33t23.5 -10q14 0 25 5.5t19 16t12 18.5t9 19v53l-49 -8q-28 -5 -39 -19.5t-11 -41.5zM-386 589q0 21 10 37t28 25t33 13t36 8l52 9v49q0 54 -53 54q-19 0 -35 -9t-16 -19t12 -15q20 -7 20 -28q0 -13 -8.5 -19t-19.5 -6q-13 0 -24.5 11t-11.5 29 q0 34 26 53t60 19q41 0 70.5 -19t29.5 -60v-136q0 -29 17 -29q26 0 26 52h14q0 -80 -51 -80q-55 0 -56 56l-3 1q-10 -21 -33 -39t-51 -18q-30 0 -51 15t-21 46z" />
<glyph unicode="&#x364;" d="M-326 679h106q0 27 -4.5 49t-17 38.5t-31.5 16.5t-31.5 -16.5t-17 -38.5t-4.5 -49zM-388 664q0 54 33 95t85 41q28 0 50 -13t34.5 -34t19 -45t6.5 -49h-166q0 -27 3 -46t10 -35t21 -24.5t33 -8.5q27 0 49 17.5t28 59.5h16q-3 -41 -28.5 -67.5t-68.5 -26.5q-57 0 -91 38 t-34 98z" />
<glyph unicode="&#x365;" d="M-302 882q0 15 10.5 25.5t25.5 10.5t25.5 -10.5t10.5 -25.5t-10.5 -25.5t-25.5 -10.5t-25.5 10.5t-10.5 25.5zM-324 536v16h24q14 0 14 14v194q0 14 -14 14h-24v16h88v-224q0 -14 14 -14h24v-16h-126z" />
<glyph unicode="&#x366;" d="M-325 664q0 -120 63 -120t63 120t-63 120t-63 -120zM-387 664q0 56 36.5 96t88.5 40t88.5 -40t36.5 -96t-36.5 -96t-88.5 -40t-88.5 40t-36.5 96z" />
<glyph unicode="&#x367;" d="M-424 773v17h88v-188q0 -24 8 -41t28 -17q25 0 49.5 32t24.5 73v110q0 14 -14 14h-26v17h90v-224q0 -14 14 -14h24v-16h-88v55h-2q-16 -30 -37 -46.5t-45 -16.5q-28 0 -49 14q-27 22 -27 69v148q0 14 -14 14h-24z" />
<glyph unicode="&#x368;" d="M-384 664q0 58 34 97t87 39q41 0 66 -23t25 -52q0 -17 -9.5 -29t-24.5 -12q-12 0 -19.5 7t-7.5 17q0 16 15 24q10 5 10 15q0 11 -14 24t-40 13q-18 0 -30.5 -8t-19 -25.5t-8.5 -37.5t-2 -49t2 -49t9 -37.5t19 -25.5t32 -8q35 0 53.5 24t22.5 56h16q-2 -38 -26 -67 t-69 -29q-53 0 -87 39t-34 97z" />
<glyph unicode="&#x369;" d="M-345 663q0 -57 10.5 -88t37.5 -31q31 0 49.5 26.5t18.5 59.5v52q0 38 -21 69t-47 31q-27 0 -37.5 -31t-10.5 -88zM-408 663q0 58 29 96.5t76 38.5q21 0 40 -12t30 -33l3 1v140q0 14 -14 14h-38v16h102v-358q0 -14 14 -14h24v-16h-88v27l-3 1q-11 -16 -29.5 -26 t-39.5 -10q-48 0 -77 39t-29 96z" />
<glyph unicode="&#x36a;" d="M-410 536v16h28q14 0 14 14v328q0 14 -14 14h-28v16h92v-184h2q32 60 83 60q29 0 48 -14q15 -11 22 -30.5t7 -38.5v-151q0 -14 14 -14h24v-16h-126v16h24q14 0 14 14v161q0 23 -8.5 40t-28.5 17q-25 0 -50 -31t-25 -73v-114q0 -14 14 -14h24v-16h-130z" />
<glyph unicode="&#x36b;" d="M-480 536v16h24q14 0 14 14v194q0 14 -14 14h-24v16h88v-51h3q31 59 76 59q31 0 50 -14q15 -14 23 -39h3q32 53 77 53q31 0 52 -14q15 -11 21.5 -30.5t6.5 -38.5v-149q0 -14 14 -14h24v-16h-126v16h24q14 0 14 14v159q0 23 -8.5 40t-28.5 17q-25 0 -47 -31t-22 -73v-112 q0 -14 14 -14h24v-16h-126v16h24q14 0 14 14v159q0 23 -8.5 40t-28.5 17q-25 0 -47 -31t-22 -73v-112q0 -14 14 -14h24v-16h-126z" />
<glyph unicode="&#x36c;" d="M-348 536v16h24q14 0 14 14v194q0 14 -14 14h-24v16h88v-72l3 -1q11 31 26 51q10 14 24.5 22t29.5 8q23 0 34 -14t11 -33q0 -14 -9 -27t-26 -13q-11 0 -18.5 6.5t-7.5 16.5q0 16 13 23q12 7 12 14q0 11 -15 11q-37 0 -62 -69q-15 -39 -15 -77v-70q0 -14 14 -14h24v-16 h-126z" />
<glyph unicode="&#x36d;" d="M-364 758v20h14q21 0 34.5 14.5t18.5 32.5t5 39h20v-86h70v-20h-70v-163q0 -38 29 -38q39 0 39 67h14q0 -96 -66 -96q-28 0 -47 19t-19 49v162h-42z" />
<glyph unicode="&#x36e;" d="M-416 774v16h130v-16h-17q-6 0 -11 -4t-5 -10t5 -16l64 -138l46 120q6 15 6 26q0 10 -6 16t-15 6h-14v16h107v-16h-12q-25 0 -38 -32l-82 -214h-11l-99 214q-8 17 -15 24.5t-20 7.5h-13z" />
<glyph unicode="&#x36f;" d="M-394 774v16h121v-16h-12q-10 0 -10 -11q0 -7 4 -11l39 -56l36 48q5 6 5 16q0 6 -4.5 10t-9.5 4h-13v16h102v-16h-14q-22 0 -39 -24l-52 -71l77 -112q4 -5 6 -8t8 -5t14 -2h12v-16h-126v16h14q12 0 12 10q0 6 -4 12l-44 64l-37 -50q-8 -10 -8 -19q0 -17 13 -17h10v-16 h-98v16h15q19 0 41 31l52 71l-74 108q-4 6 -8.5 9t-14.5 3h-13z" />
<glyph unicode="&#x374;" horiz-adv-x="240" d="M177 730q13 0 22 -8.5t9 -20.5q0 -28 -32 -62l-112 -131l-18 12l74 156q12 26 24.5 40t32.5 14z" />
<glyph unicode="&#x375;" horiz-adv-x="240" d="M63 -282q-13 0 -22 8.5t-9 20.5q0 28 32 62l112 131l18 -12l-74 -156q-12 -26 -24.5 -40t-32.5 -14z" />
<glyph unicode="&#x37a;" horiz-adv-x="440" d="M220 -84q12 0 18 -26l22 -96q4 -18 4 -32q0 -17 -13 -30.5t-31 -13.5t-31 13.5t-13 30.5q0 14 4 32l22 96q6 26 18 26z" />
<glyph unicode="&#x1ffd;" horiz-adv-x="240" d="M188 730q32 0 32 -31q0 -11 -3 -20t-8 -16t-11 -17l-88 -138l-20 10l50 158q5 17 9.5 26.5t14.5 18.5t24 9z" />
<glyph unicode="&#x384;" horiz-adv-x="240" d="M188 730q32 0 32 -31q0 -11 -3 -20t-8 -16t-11 -17l-88 -138l-20 10l50 158q5 17 9.5 26.5t14.5 18.5t24 9z" />
<glyph unicode="&#x1fee;" horiz-adv-x="440" d="M326 616q22 0 37 -15t15 -37t-15 -37t-37 -15t-37 15t-15 37t15 37t37 15zM114 616q22 0 37 -15t15 -37t-15 -37t-37 -15t-37 15t-15 37t15 37t37 15zM288 762q32 0 32 -31q0 -11 -3 -20t-8 -16t-11 -17l-88 -138l-20 10l50 158q5 17 9.5 26.5t14.5 18.5t24 9z" />
<glyph unicode="&#x385;" horiz-adv-x="440" d="M326 616q22 0 37 -15t15 -37t-15 -37t-37 -15t-37 15t-15 37t15 37t37 15zM114 616q22 0 37 -15t15 -37t-15 -37t-37 -15t-37 15t-15 37t15 37t37 15zM288 762q32 0 32 -31q0 -11 -3 -20t-8 -16t-11 -17l-88 -138l-20 10l50 158q5 17 9.5 26.5t14.5 18.5t24 9z" />
<glyph unicode="&#x1fbb;" horiz-adv-x="788" d="M290 246h205l-104 303zM70 0v32h37q58 0 84 73l217 607h25l217 -636q18 -44 60 -44h56v-32h-310v32h66q15 0 25 7.5t10 17.5q0 13 -4 22l-45 131h-231l-23 -65q-14 -40 -14 -60q0 -21 11.5 -37t39.5 -16h53v-32h-274zM188 730q32 0 32 -31q0 -11 -3 -20t-8 -16t-11 -17 l-88 -138l-20 10l50 158q5 17 9.5 26.5t14.5 18.5t24 9z" />
<glyph unicode="&#x386;" horiz-adv-x="788" d="M290 246h205l-104 303zM70 0v32h37q58 0 84 73l217 607h25l217 -636q18 -44 60 -44h56v-32h-310v32h66q15 0 25 7.5t10 17.5q0 13 -4 22l-45 131h-231l-23 -65q-14 -40 -14 -60q0 -21 11.5 -37t39.5 -16h53v-32h-274zM188 730q32 0 32 -31q0 -11 -3 -20t-8 -16t-11 -17 l-88 -138l-20 10l50 158q5 17 9.5 26.5t14.5 18.5t24 9z" />
<glyph unicode="&#x387;" horiz-adv-x="296" d="M76 438q0 30 21 51t51 21t51 -21t21 -51t-21 -51t-51 -21t-51 21t-21 51z" />
<glyph unicode="&#x1fc9;" horiz-adv-x="930" d="M302 0v32h72q27 0 27 27v594q0 27 -27 27h-72v32h558l4 -226h-25l-1 20q-2 21 -12 55t-28 61q-38 58 -117 58h-161q-27 0 -27 -27v-273h88q27 0 45 12.5t25 35.5t9.5 43t2.5 47h26v-313h-26q0 28 -2 47.5t-9.5 43t-25.5 36t-45 12.5h-88v-285q0 -27 27 -27h160 q27 0 58.5 12.5t51.5 38.5q20 28 34.5 74t18.5 79l4 32h25l-12 -268h-558zM188 730q32 0 32 -31q0 -11 -3 -20t-8 -16t-11 -17l-88 -138l-20 10l50 158q5 17 9.5 26.5t14.5 18.5t24 9z" />
<glyph unicode="&#x388;" horiz-adv-x="930" d="M302 0v32h72q27 0 27 27v594q0 27 -27 27h-72v32h558l4 -226h-25l-1 20q-2 21 -12 55t-28 61q-38 58 -117 58h-161q-27 0 -27 -27v-273h88q27 0 45 12.5t25 35.5t9.5 43t2.5 47h26v-313h-26q0 28 -2 47.5t-9.5 43t-25.5 36t-45 12.5h-88v-285q0 -27 27 -27h160 q27 0 58.5 12.5t51.5 38.5q20 28 34.5 74t18.5 79l4 32h25l-12 -268h-558zM188 730q32 0 32 -31q0 -11 -3 -20t-8 -16t-11 -17l-88 -138l-20 10l50 158q5 17 9.5 26.5t14.5 18.5t24 9z" />
<glyph unicode="&#x1fcb;" horiz-adv-x="1028" d="M302 0v32h72q27 0 27 27v594q0 27 -27 27h-72v32h290v-32h-72q-27 0 -27 -27v-261h302v261q0 27 -27 27h-72v32h290v-32h-72q-27 0 -27 -27v-594q0 -27 27 -27h72v-32h-290v32h72q27 0 27 27v297h-302v-297q0 -27 27 -27h72v-32h-290zM188 730q32 0 32 -31q0 -11 -3 -20 t-8 -16t-11 -17l-88 -138l-20 10l50 158q5 17 9.5 26.5t14.5 18.5t24 9z" />
<glyph unicode="&#x389;" horiz-adv-x="1028" d="M302 0v32h72q27 0 27 27v594q0 27 -27 27h-72v32h290v-32h-72q-27 0 -27 -27v-261h302v261q0 27 -27 27h-72v32h290v-32h-72q-27 0 -27 -27v-594q0 -27 27 -27h72v-32h-290v32h72q27 0 27 27v297h-302v-297q0 -27 27 -27h72v-32h-290zM188 730q32 0 32 -31q0 -11 -3 -20 t-8 -16t-11 -17l-88 -138l-20 10l50 158q5 17 9.5 26.5t14.5 18.5t24 9z" />
<glyph unicode="&#x1fdb;" horiz-adv-x="636" d="M304 0v32h72q27 0 27 27v594q0 27 -27 27h-72v32h290v-32h-72q-27 0 -27 -27v-594q0 -27 27 -27h72v-32h-290zM188 730q32 0 32 -31q0 -11 -3 -20t-8 -16t-11 -17l-88 -138l-20 10l50 158q5 17 9.5 26.5t14.5 18.5t24 9z" />
<glyph unicode="&#x38a;" horiz-adv-x="636" d="M304 0v32h72q27 0 27 27v594q0 27 -27 27h-72v32h290v-32h-72q-27 0 -27 -27v-594q0 -27 27 -27h72v-32h-290zM188 730q32 0 32 -31q0 -11 -3 -20t-8 -16t-11 -17l-88 -138l-20 10l50 158q5 17 9.5 26.5t14.5 18.5t24 9z" />
<glyph unicode="&#x1ff9;" horiz-adv-x="852" d="M512 -18q-84 0 -151.5 54.5t-103 139.5t-35.5 180t35.5 180t103 139.5t151.5 54.5t151.5 -54.5t103 -139.5t35.5 -180t-35.5 -180t-103 -139.5t-151.5 -54.5zM512 14q184 0 184 342t-184 342t-184 -342t184 -342zM188 730q32 0 32 -31q0 -11 -3 -20t-8 -16t-11 -17 l-88 -138l-20 10l50 158q5 17 9.5 26.5t14.5 18.5t24 9z" />
<glyph unicode="&#x38c;" horiz-adv-x="852" d="M512 -18q-84 0 -151.5 54.5t-103 139.5t-35.5 180t35.5 180t103 139.5t151.5 54.5t151.5 -54.5t103 -139.5t35.5 -180t-35.5 -180t-103 -139.5t-151.5 -54.5zM512 14q184 0 184 342t-184 342t-184 -342t184 -342zM188 730q32 0 32 -31q0 -11 -3 -20t-8 -16t-11 -17 l-88 -138l-20 10l50 158q5 17 9.5 26.5t14.5 18.5t24 9z" />
<glyph unicode="&#x1feb;" horiz-adv-x="864" d="M356 0v32h96q27 0 27 27v356q0 120 -64 202q-58 76 -139 89l8 22q83 -11 145 -60q79 -63 115 -157h6q24 88 60 141q54 78 133 78q55 0 79 -32q18 -26 18 -57q0 -30 -18.5 -53.5t-46.5 -23.5q-31 0 -47 16.5t-16 41.5q0 24 18 44q12 12 12 22t-16 10q-42 0 -77 -44.5 t-55 -107.5q-23 -72 -23 -152v-335q0 -27 27 -27h96v-32h-338zM188 730q32 0 32 -31q0 -11 -3 -20t-8 -16t-11 -17l-88 -138l-20 10l50 158q5 17 9.5 26.5t14.5 18.5t24 9z" />
<glyph unicode="&#x38e;" horiz-adv-x="864" d="M356 0v32h96q27 0 27 27v356q0 120 -64 202q-58 76 -139 89l8 22q83 -11 145 -60q79 -63 115 -157h6q24 88 60 141q54 78 133 78q55 0 79 -32q18 -26 18 -57q0 -30 -18.5 -53.5t-46.5 -23.5q-31 0 -47 16.5t-16 41.5q0 24 18 44q12 12 12 22t-16 10q-42 0 -77 -44.5 t-55 -107.5q-23 -72 -23 -152v-335q0 -27 27 -27h96v-32h-338zM188 730q32 0 32 -31q0 -11 -3 -20t-8 -16t-11 -17l-88 -138l-20 10l50 158q5 17 9.5 26.5t14.5 18.5t24 9z" />
<glyph unicode="&#x1ffb;" horiz-adv-x="876" d="M529 698q-83 0 -134 -64t-51 -180q0 -109 36.5 -167.5t78.5 -71.5l35 -11v-204h-226l-18 208h26l18 -97q5 -27 34 -27h105q27 0 27 27v76l-62 19q-67 26 -113.5 98t-46.5 150q0 123 84 199.5t207 76.5q122 0 205.5 -76.5t83.5 -199.5q0 -78 -46.5 -150t-113.5 -98 l-62 -19v-76q0 -27 27 -27h105q29 0 34 27l18 97h26l-18 -208h-226v204l35 11q44 14 79.5 71.5t35.5 167.5q0 116 -50.5 180t-132.5 64zM188 730q32 0 32 -31q0 -11 -3 -20t-8 -16t-11 -17l-88 -138l-20 10l50 158q5 17 9.5 26.5t14.5 18.5t24 9z" />
<glyph unicode="&#x38f;" horiz-adv-x="876" d="M529 698q-83 0 -134 -64t-51 -180q0 -109 36.5 -167.5t78.5 -71.5l35 -11v-204h-226l-18 208h26l18 -97q5 -27 34 -27h105q27 0 27 27v76l-62 19q-67 26 -113.5 98t-46.5 150q0 123 84 199.5t207 76.5q122 0 205.5 -76.5t83.5 -199.5q0 -78 -46.5 -150t-113.5 -98 l-62 -19v-76q0 -27 27 -27h105q29 0 34 27l18 97h26l-18 -208h-226v204l35 11q44 14 79.5 71.5t35.5 167.5q0 116 -50.5 180t-132.5 64zM188 730q32 0 32 -31q0 -11 -3 -20t-8 -16t-11 -17l-88 -138l-20 10l50 158q5 17 9.5 26.5t14.5 18.5t24 9z" />
<glyph unicode="&#x1fd3;" horiz-adv-x="288" d="M248 616q22 0 37 -15t15 -37t-15 -37t-37 -15t-37 15t-15 37t15 37t37 15zM36 616q22 0 37 -15t15 -37t-15 -37t-37 -15t-37 15t-15 37t15 37t37 15zM210 762q32 0 32 -31q0 -11 -3 -20t-8 -16t-11 -17l-88 -138l-20 10l50 158q5 17 9.5 26.5t14.5 18.5t24 9zM126 468 q50 0 50 -47q0 -15 -12 -53l-41 -137q-19 -61 -19 -105q0 -33 13 -52.5t35 -19.5q48 0 59 71q11 -7 18 -26t7 -33q0 -37 -18 -56q-19 -22 -48 -22q-47 0 -70.5 34t-23.5 108v273q0 65 50 65z" />
<glyph unicode="&#x390;" horiz-adv-x="288" d="M248 616q22 0 37 -15t15 -37t-15 -37t-37 -15t-37 15t-15 37t15 37t37 15zM36 616q22 0 37 -15t15 -37t-15 -37t-37 -15t-37 15t-15 37t15 37t37 15zM210 762q32 0 32 -31q0 -11 -3 -20t-8 -16t-11 -17l-88 -138l-20 10l50 158q5 17 9.5 26.5t14.5 18.5t24 9zM126 468 q50 0 50 -47q0 -15 -12 -53l-41 -137q-19 -61 -19 -105q0 -33 13 -52.5t35 -19.5q48 0 59 71q11 -7 18 -26t7 -33q0 -37 -18 -56q-19 -22 -48 -22q-47 0 -70.5 34t-23.5 108v273q0 65 50 65z" />
<glyph unicode="&#x391;" horiz-adv-x="764" d="M266 246h205l-104 303zM46 0v32h37q58 0 84 73l217 607h25l217 -636q18 -44 60 -44h56v-32h-310v32h66q15 0 25 7.5t10 17.5q0 13 -4 22l-45 131h-231l-23 -65q-14 -40 -14 -60q0 -21 11.5 -37t39.5 -16h53v-32h-274z" />
<glyph unicode="&#x392;" horiz-adv-x="690" d="M253 356v-297q0 -27 27 -27h108q140 0 140 162t-140 162h-135zM62 0v32h72q27 0 27 27v594q0 27 -27 27h-72v32h326q92 0 158 -48.5t66 -121.5q0 -68 -46 -112t-107 -57v-4q65 -5 120 -53.5t55 -121.5q0 -91 -68 -142.5t-167 -51.5h-337zM253 388h131q81 0 110.5 41.5 t29.5 112.5q0 60 -38 99t-94 39h-112q-27 0 -27 -27v-265z" />
<glyph unicode="&#x393;" horiz-adv-x="650" d="M62 0v32h72q27 0 27 27v594q0 27 -27 27h-72v32h524l12 -268h-25l-4 32q-4 33 -18 79t-34 73q-39 52 -110 52h-127q-27 0 -27 -27v-594q0 -27 27 -27h89v-32h-307z" />
<glyph unicode="&#x395;" horiz-adv-x="690" d="M62 0v32h72q27 0 27 27v594q0 27 -27 27h-72v32h558l4 -226h-25l-1 20q-2 21 -12 55t-28 61q-38 58 -117 58h-161q-27 0 -27 -27v-273h88q27 0 45 12.5t25 35.5t9.5 43t2.5 47h26v-313h-26q0 28 -2 47.5t-9.5 43t-25.5 36t-45 12.5h-88v-285q0 -27 27 -27h160 q27 0 58.5 12.5t51.5 38.5q20 28 34.5 74t18.5 79l4 32h25l-12 -268h-558z" />
<glyph unicode="&#x396;" horiz-adv-x="652" d="M68 0v32l414 648h-188q-59 0 -109 -58q-33 -39 -52.5 -96.5t-19.5 -69.5h-25l36 256h464v-32l-410 -648h221q55 0 103 56q25 29 44.5 77.5t27.5 82.5l7 34h25l-24 -282h-514z" />
<glyph unicode="&#x397;" horiz-adv-x="788" d="M62 0v32h72q27 0 27 27v594q0 27 -27 27h-72v32h290v-32h-72q-27 0 -27 -27v-261h302v261q0 27 -27 27h-72v32h290v-32h-72q-27 0 -27 -27v-594q0 -27 27 -27h72v-32h-290v32h72q27 0 27 27v297h-302v-297q0 -27 27 -27h72v-32h-290z" />
<glyph unicode="&#x398;" horiz-adv-x="700" d="M360 -18q-84 0 -151.5 54.5t-103 139.5t-35.5 180t35.5 180t103 139.5t151.5 54.5t151.5 -54.5t103 -139.5t35.5 -180t-35.5 -180t-103 -139.5t-151.5 -54.5zM360 14q184 0 184 342t-184 342t-184 -342t184 -342zM222 497h32v-60q0 -27 27 -27h158q27 0 27 27v60h32v-250 h-32v60q0 27 -27 27h-158q-27 0 -27 -27v-60h-32v250z" />
<glyph unicode="&#x399;" horiz-adv-x="394" d="M62 0v32h72q27 0 27 27v594q0 27 -27 27h-72v32h290v-32h-72q-27 0 -27 -27v-594q0 -27 27 -27h72v-32h-290z" />
<glyph unicode="&#x39a;" horiz-adv-x="756" d="M62 0v32h72q27 0 27 27v594q0 27 -27 27h-72v32h285v-32h-67q-27 0 -27 -27v-310l231 236l10.5 14t7.5 12t4.5 14t1.5 19q0 18 -13 30t-32 12h-27v32h264v-32h-40q-33 0 -90 -59l-168 -170l204 -375q13 -25 29 -34.5t46 -9.5h33v-32h-302v32h67q11 0 19 6.5t8 14.5 q0 15 -7 25l-163 306l-83 -84v-241q0 -27 27 -27h67v-32h-285z" />
<glyph unicode="&#x39b;" horiz-adv-x="764" d="M46 0v32h37q58 0 84 73l217 607h25l217 -636q18 -44 60 -44h56v-32h-310v32h66q15 0 25 7.5t10 17.5q0 8 -4 22l-162 470l-137 -404q-14 -40 -14 -60q0 -21 11.5 -37t39.5 -16h53v-32h-274z" />
<glyph unicode="&#x39c;" horiz-adv-x="838" d="M62 0v32h36q28 0 45.5 21.5t17.5 58.5v541q0 27 -27 27h-72v32h212l163 -551l152 551h207v-32h-72q-27 0 -27 -27v-594q0 -27 27 -27h72v-32h-290v32h72q27 0 27 27v590l-183 -661h-24l-191 634h-6v-510q0 -37 17.5 -58.5t45.5 -21.5h36v-32h-238z" />
<glyph unicode="&#x39d;" horiz-adv-x="770" d="M62 0v32h36q29 0 46 21.5t17 58.5v541q-1 27 -27 27h-72v32h189l347 -558v446q0 37 -17 58.5t-45 21.5h-36v32h238v-32h-36q-28 0 -46 -21.5t-18 -58.5v-618h-40l-393 621h-4v-491q0 -37 17.5 -58.5t45.5 -21.5h36v-32h-238z" />
<glyph unicode="&#x39e;" horiz-adv-x="660" d="M606 712v-222h-32v111q0 27 -27 27h-414q-27 0 -27 -27v-111h-32v222h532zM74 0v222h32v-111q0 -27 27 -27h414q27 0 27 27v111h32v-222h-532zM194 497h32v-60q0 -27 27 -27h174q27 0 27 27v60h32v-250h-32v60q0 27 -27 27h-174q-27 0 -27 -27v-60h-32v250z" />
<glyph unicode="&#x39f;" horiz-adv-x="700" d="M360 -18q-84 0 -151.5 54.5t-103 139.5t-35.5 180t35.5 180t103 139.5t151.5 54.5t151.5 -54.5t103 -139.5t35.5 -180t-35.5 -180t-103 -139.5t-151.5 -54.5zM360 14q184 0 184 342t-184 342t-184 -342t184 -342z" />
<glyph unicode="&#x3a0;" horiz-adv-x="788" d="M62 0v32h72q27 0 27 27v594q0 27 -27 27h-72v32h684v-32h-72q-27 0 -27 -27v-594q0 -27 27 -27h72v-32h-290v32h72q27 0 27 27v594q0 27 -27 27h-248q-27 0 -27 -27v-594q0 -27 27 -27h72v-32h-290z" />
<glyph unicode="&#x3a1;" horiz-adv-x="680" d="M62 0v32h72q27 0 27 27v594q0 27 -27 27h-72v32h334q106 0 173 -51.5t67 -134.5t-67 -136.5t-173 -53.5h-143v-277q0 -27 27 -27h88v-32h-306zM253 368h156q54 0 87.5 46.5t33.5 111.5t-33 109.5t-88 44.5h-129q-27 0 -27 -27v-285z" />
<glyph unicode="&#x3a3;" horiz-adv-x="640" d="M66 0v32l251 299l-231 349v32h486v-232h-25l-1 24q-1 24 -12 60t-30 60q-14 18 -43 37t-63 19h-198l196 -308l-244 -289h315q27 0 43.5 17t27.5 53q13 43 18 79l5 37h25v-269h-520z" />
<glyph unicode="&#x3a4;" horiz-adv-x="714" d="M72 444l8 268h574l8 -268h-25q0 11 -2 35t-15 72.5t-35 76.5q-41 52 -99 52h-46q-27 0 -27 -27v-594q0 -27 27 -27h96v-32h-338v32h96q27 0 27 27v594q0 27 -27 27h-46q-60 0 -99 -52q-22 -28 -35 -76.5t-15 -72.5t-2 -35h-25z" />
<glyph unicode="&#x3a5;" horiz-adv-x="624" d="M116 0v32h96q27 0 27 27v356q0 120 -64 202q-58 76 -139 89l8 22q83 -11 145 -60q79 -63 115 -157h6q24 88 60 141q54 78 133 78q55 0 79 -32q18 -26 18 -57q0 -30 -18.5 -53.5t-46.5 -23.5q-31 0 -47 16.5t-16 41.5q0 24 18 44q12 12 12 22t-16 10q-42 0 -77 -44.5 t-55 -107.5q-23 -72 -23 -152v-335q0 -27 27 -27h96v-32h-338z" />
<glyph unicode="&#x3a6;" horiz-adv-x="840" d="M476 552v-384h92q64 0 96 57t32 135q0 77 -32 134.5t-96 57.5h-92zM261 0v32h96q27 0 27 27v77h-82q-103 0 -173.5 62t-70.5 162t70.5 162t173.5 62h82v69q0 27 -27 27h-96v32h338v-32h-96q-27 0 -27 -27v-69h82q103 0 173.5 -62t70.5 -162t-70.5 -162t-173.5 -62h-82 v-77q0 -27 27 -27h96v-32h-338zM384 168v384h-92q-64 0 -96 -57.5t-32 -134.5q0 -78 32 -135t96 -57h92z" />
<glyph unicode="&#x3a7;" horiz-adv-x="750" d="M46 0v32h31q29 0 48.5 10t28.5 24.5t22 32.5l169 253l-149 276q-15 28 -30.5 40t-48.5 12h-61v32h310v-32h-60q-18 0 -18 -15q0 -13 8 -26l108 -200l95 142q20 30 20 57q0 17 -13.5 29.5t-35.5 12.5h-31v32h270v-32h-45q-56 0 -88 -49l-153 -230l177 -325q25 -44 62 -44 h62v-32h-310v32h60q27 0 27 21q0 11 -7 25l-128 236l-115 -175q-25 -38 -25 -63q0 -18 9 -31t27 -13h54v-32h-270z" />
<glyph unicode="&#x3a8;" horiz-adv-x="864" d="M279 0v32h72q27 0 27 27v113q-65 0 -118.5 30.5t-84.5 90.5q-41 80 -41 231q0 36 -1.5 59.5t-7 48t-17.5 36.5t-31 12h-39v32h54q45 0 78 -26t46 -66q14 -46 14 -128q0 -110 7 -159t25 -75q22 -33 48.5 -43.5t67.5 -10.5v449q0 27 -27 27h-72v32h290v-32h-72 q-27 0 -27 -27v-449q40 5 76.5 34t51.5 79q18 59 18 163q0 125 30 184t111 59q35 0 61 -27.5t26 -62.5q0 -36 -16.5 -58t-45.5 -22q-51 0 -60 50q-1 6 -2 16t-2 15q-4 17 -17 17q-45 0 -45 -129q0 -159 -26 -226q-21 -54 -66 -85.5t-94 -38.5v-113q0 -27 27 -27h72v-32h-290 z" />
<glyph unicode="&#x3aa;" horiz-adv-x="394" d="M62 0v32h72q27 0 27 27v594q0 27 -27 27h-72v32h290v-32h-72q-27 0 -27 -27v-594q0 -27 27 -27h72v-32h-290zM310 902q22 0 37 -15t15 -37t-15 -37t-37 -15t-37 15t-15 37t15 37t37 15zM106 902q22 0 37 -15t15 -37t-15 -37t-37 -15t-37 15t-15 37t15 37t37 15z" />
<glyph unicode="&#x3ab;" horiz-adv-x="624" d="M116 0v32h96q27 0 27 27v356q0 120 -64 202q-58 76 -139 89l8 22q83 -11 145 -60q79 -63 115 -157h6q24 88 60 141q54 78 133 78q55 0 79 -32q18 -26 18 -57q0 -30 -18.5 -53.5t-46.5 -23.5q-31 0 -47 16.5t-16 41.5q0 24 18 44q12 12 12 22t-16 10q-42 0 -77 -44.5 t-55 -107.5q-23 -72 -23 -152v-335q0 -27 27 -27h96v-32h-338zM406 902q22 0 37 -15t15 -37t-15 -37t-37 -15t-37 15t-15 37t15 37t37 15zM202 902q22 0 37 -15t15 -37t-15 -37t-37 -15t-37 15t-15 37t15 37t37 15z" />
<glyph unicode="&#x1f71;" horiz-adv-x="552" d="M362 730q32 0 32 -31q0 -11 -3 -20t-8 -16t-11 -17l-88 -138l-20 10l50 158q5 17 9.5 26.5t14.5 18.5t24 9zM190 -10q-58 0 -98 46t-40 136q0 114 45 197q25 47 62 73t77 26q47 0 74.5 -47t37.5 -118l6 -2l62 155h84l-125 -272q8 -60 33 -90t57 -30t57 34q0 -46 -16 -78 t-48 -32q-44 0 -65.5 42.5t-31.5 119.5h-6q-18 -45 -33 -68q-60 -92 -132 -92zM162 46q25 0 46.5 10.5t36.5 28.5t28.5 40.5t23.5 47.5t21 49q14 34 14 48q0 36 -10 59q-28 63 -73 63q-64 0 -112 -66q-29 -41 -43 -89.5t-14 -79.5q0 -111 82 -111z" />
<glyph unicode="&#x3ac;" horiz-adv-x="552" d="M362 730q32 0 32 -31q0 -11 -3 -20t-8 -16t-11 -17l-88 -138l-20 10l50 158q5 17 9.5 26.5t14.5 18.5t24 9zM190 -10q-58 0 -98 46t-40 136q0 114 45 197q25 47 62 73t77 26q47 0 74.5 -47t37.5 -118l6 -2l62 155h84l-125 -272q8 -60 33 -90t57 -30t57 34q0 -46 -16 -78 t-48 -32q-44 0 -65.5 42.5t-31.5 119.5h-6q-18 -45 -33 -68q-60 -92 -132 -92zM162 46q25 0 46.5 10.5t36.5 28.5t28.5 40.5t23.5 47.5t21 49q14 34 14 48q0 36 -10 59q-28 63 -73 63q-64 0 -112 -66q-29 -41 -43 -89.5t-14 -79.5q0 -111 82 -111z" />
<glyph unicode="&#x1f73;" horiz-adv-x="446" d="M304 730q32 0 32 -31q0 -11 -3 -20t-8 -16t-11 -17l-88 -138l-20 10l50 158q5 17 9.5 26.5t14.5 18.5t24 9zM56 132q0 71 70 109v4q-60 37 -60 86q0 62 49 99.5t107 37.5q74 0 115 -26t41 -39t-11.5 -26t-20.5 -13q-2 0 -32 16q-44 22 -85 22q-50 0 -86.5 -23t-36.5 -68 q0 -35 40 -55q51 32 111 32q33 0 56 -11t23 -32q0 -22 -21.5 -33.5t-51.5 -11.5q-62 0 -118 34q-49 -24 -49 -79q0 -45 45 -68t101 -23q99 0 153 68l11 -4q-8 -47 -50 -93.5t-114 -46.5q-77 0 -131.5 36t-54.5 108z" />
<glyph unicode="&#x3ad;" horiz-adv-x="446" d="M304 730q32 0 32 -31q0 -11 -3 -20t-8 -16t-11 -17l-88 -138l-20 10l50 158q5 17 9.5 26.5t14.5 18.5t24 9zM56 132q0 71 70 109v4q-60 37 -60 86q0 62 49 99.5t107 37.5q74 0 115 -26t41 -39t-11.5 -26t-20.5 -13q-2 0 -32 16q-44 22 -85 22q-50 0 -86.5 -23t-36.5 -68 q0 -35 40 -55q51 32 111 32q33 0 56 -11t23 -32q0 -22 -21.5 -33.5t-51.5 -11.5q-62 0 -118 34q-49 -24 -49 -79q0 -45 45 -68t101 -23q99 0 153 68l11 -4q-8 -47 -50 -93.5t-114 -46.5q-77 0 -131.5 36t-54.5 108z" />
<glyph unicode="&#x1f75;" horiz-adv-x="568" d="M360 730q32 0 32 -31q0 -11 -3 -20t-8 -16t-11 -17l-88 -138l-20 10l50 158q5 17 9.5 26.5t14.5 18.5t24 9zM145 12q0 18 21 121t21 149q0 52 -28 87t-75 35q-35 0 -64 -33q0 43 18 70t52 27q45 0 76 -46t40 -111l8 -2q22 64 68.5 111.5t93.5 47.5q62 0 97 -46 q35 -47 35 -129q0 -92 -10 -235q-14 -189 -14 -265q0 -75 -42 -75q-56 0 -56 52q0 44 15.5 113t30.5 125q17 64 34.5 146t17.5 138q0 17 -4 34.5t-13 36t-27.5 30t-43.5 11.5q-44 0 -78 -41.5t-52.5 -101.5t-27.5 -133q-6 -50 -8.5 -81t-12.5 -45t-35 -14q-37 0 -37 24z" />
<glyph unicode="&#x3ae;" horiz-adv-x="568" d="M360 730q32 0 32 -31q0 -11 -3 -20t-8 -16t-11 -17l-88 -138l-20 10l50 158q5 17 9.5 26.5t14.5 18.5t24 9zM145 12q0 18 21 121t21 149q0 52 -28 87t-75 35q-35 0 -64 -33q0 43 18 70t52 27q45 0 76 -46t40 -111l8 -2q22 64 68.5 111.5t93.5 47.5q62 0 97 -46 q35 -47 35 -129q0 -92 -10 -235q-14 -189 -14 -265q0 -75 -42 -75q-56 0 -56 52q0 44 15.5 113t30.5 125q17 64 34.5 146t17.5 138q0 17 -4 34.5t-13 36t-27.5 30t-43.5 11.5q-44 0 -78 -41.5t-52.5 -101.5t-27.5 -133q-6 -50 -8.5 -81t-12.5 -45t-35 -14q-37 0 -37 24z" />
<glyph unicode="&#x1f77;" horiz-adv-x="288" d="M208 730q32 0 32 -31q0 -11 -3 -20t-8 -16t-11 -17l-88 -138l-20 10l50 158q5 17 9.5 26.5t14.5 18.5t24 9zM126 468q50 0 50 -47q0 -15 -12 -53l-41 -137q-19 -61 -19 -105q0 -33 13 -52.5t35 -19.5q48 0 59 71q11 -7 18 -26t7 -33q0 -37 -18 -56q-19 -22 -48 -22 q-47 0 -70.5 34t-23.5 108v273q0 65 50 65z" />
<glyph unicode="&#x3af;" horiz-adv-x="288" d="M208 730q32 0 32 -31q0 -11 -3 -20t-8 -16t-11 -17l-88 -138l-20 10l50 158q5 17 9.5 26.5t14.5 18.5t24 9zM126 468q50 0 50 -47q0 -15 -12 -53l-41 -137q-19 -61 -19 -105q0 -33 13 -52.5t35 -19.5q48 0 59 71q11 -7 18 -26t7 -33q0 -37 -18 -56q-19 -22 -48 -22 q-47 0 -70.5 34t-23.5 108v273q0 65 50 65z" />
<glyph unicode="&#x1fe3;" horiz-adv-x="480" d="M310 616q22 0 37 -15t15 -37t-15 -37t-37 -15t-37 15t-15 37t15 37t37 15zM98 616q22 0 37 -15t15 -37t-15 -37t-37 -15t-37 15t-15 37t15 37t37 15zM272 762q32 0 32 -31q0 -11 -3 -20t-8 -16t-11 -17l-88 -138l-20 10l50 158q5 17 9.5 26.5t14.5 18.5t24 9zM108 468 q21 0 31.5 -13.5t10.5 -30.5q0 -33 -30 -111q-32 -84 -32 -139q0 -57 29 -91.5t89 -34.5q72 0 113 62t41 158q0 115 -60 188l10 10q49 -34 85.5 -106.5t36.5 -138.5q0 -96 -53.5 -164.5t-143.5 -68.5q-39 0 -77.5 19.5t-59.5 49.5q-34 50 -34 150q0 11 7 58t7 56q0 21 -7 45 q-9 36 -9 44q0 58 46 58z" />
<glyph unicode="&#x3b0;" horiz-adv-x="480" d="M310 616q22 0 37 -15t15 -37t-15 -37t-37 -15t-37 15t-15 37t15 37t37 15zM98 616q22 0 37 -15t15 -37t-15 -37t-37 -15t-37 15t-15 37t15 37t37 15zM272 762q32 0 32 -31q0 -11 -3 -20t-8 -16t-11 -17l-88 -138l-20 10l50 158q5 17 9.5 26.5t14.5 18.5t24 9zM108 468 q21 0 31.5 -13.5t10.5 -30.5q0 -33 -30 -111q-32 -84 -32 -139q0 -57 29 -91.5t89 -34.5q72 0 113 62t41 158q0 115 -60 188l10 10q49 -34 85.5 -106.5t36.5 -138.5q0 -96 -53.5 -164.5t-143.5 -68.5q-39 0 -77.5 19.5t-59.5 49.5q-34 50 -34 150q0 11 7 58t7 56q0 21 -7 45 q-9 36 -9 44q0 58 46 58z" />
<glyph unicode="&#x3b1;" horiz-adv-x="552" d="M190 -10q-58 0 -98 46t-40 136q0 114 45 197q25 47 62 73t77 26q47 0 74.5 -47t37.5 -118l6 -2l62 155h84l-125 -272q8 -60 33 -90t57 -30t57 34q0 -46 -16 -78t-48 -32q-44 0 -65.5 42.5t-31.5 119.5h-6q-18 -45 -33 -68q-60 -92 -132 -92zM162 46q25 0 46.5 10.5 t36.5 28.5t28.5 40.5t23.5 47.5t21 49q14 34 14 48q0 36 -10 59q-28 63 -73 63q-64 0 -112 -66q-29 -41 -43 -89.5t-14 -79.5q0 -111 82 -111z" />
</font>
</defs>
</svg>
